<?xml version="1.0" encoding="UTF-8" standalone="no"?>
<svg
   xmlns:dc="http://purl.org/dc/elements/1.1/"
   xmlns:cc="http://creativecommons.org/ns#"
   xmlns:rdf="http://www.w3.org/1999/02/22-rdf-syntax-ns#"
   xmlns:svg="http://www.w3.org/2000/svg"
   xmlns="http://www.w3.org/2000/svg"
   xmlns:xlink="http://www.w3.org/1999/xlink"
   id="svg4505"
   height="22"
   width="22"
   version="1.1">
  <defs
     id="defs4507">
    <linearGradient
       id="linearGradient4011">
      <stop
         offset="0"
         style="stop-color:#ffffff;stop-opacity:1"
         id="stop4013" />
      <stop
         offset="0.507761"
         style="stop-color:#ffffff;stop-opacity:0.23529412"
         id="stop4015" />
      <stop
         offset="0.83456558"
         style="stop-color:#ffffff;stop-opacity:0.15686275"
         id="stop4017" />
      <stop
         offset="1"
         style="stop-color:#ffffff;stop-opacity:0.39215687"
         id="stop4019" />
    </linearGradient>
    <linearGradient
       id="linearGradient4632-92-3-0-8-1-6-6">
      <stop
         offset="0"
         style="stop-color:#fafafa;stop-opacity:1"
         id="stop4634-68-8-0-2-9-1-1" />
      <stop
         offset="1"
         style="stop-color:#e1e1e1;stop-opacity:1"
         id="stop4636-8-21-7-1-4-9-4" />
    </linearGradient>
    <linearGradient
       id="linearGradient3104-8-8-97-4-6-2-0-1-4-0-5-8-3-9-1-4">
      <stop
         offset="0"
         style="stop-color:#000000;stop-opacity:0.32173914"
         id="stop3106-5-4-3-5-0-1-61-9-2-7-3-3-2-6-9-2" />
      <stop
         offset="1"
         style="stop-color:#000000;stop-opacity:0.27826086"
         id="stop3108-4-3-7-8-2-4-01-9-9-0-6-4-3-7-7-3" />
    </linearGradient>
    <radialGradient
       xlink:href="#radialGradient2444"
       id="radialGradient3543"
       gradientUnits="userSpaceOnUse"
       gradientTransform="matrix(0,1.7050677,-1.8037581,-4.6409319e-8,26.241396,-9.483573)"
       cx="1.4009665"
       cy="8.5012016"
       fx="1.4009665"
       fy="8.5012016"
       r="19.99999" />
    <radialGradient
       id="radialGradient2444"
       gradientUnits="userSpaceOnUse"
       cy="14.113"
       cx="63.969002"
       gradientTransform="matrix(1.5647,-9.5143e-8,6.1772e-8,1.0159,-59.14917,8.1461003)"
       r="23.097">
      <stop
         id="stop3618"
         style="stop-color:#ADC980"
         offset="0" />
      <stop
         id="stop3270"
         style="stop-color:#87A556"
         offset="0.6875183" />
      <stop
         id="stop3620"
         style="stop-color:#688933"
         offset="1" />
    </radialGradient>
    <linearGradient
       x1="71.204407"
       y1="15.369057"
       x2="71.204407"
       y2="40.495617"
       id="linearGradient3097"
       xlink:href="#linearGradient4806-9"
       gradientUnits="userSpaceOnUse"
       gradientTransform="matrix(0.77562456,0,0,0.77562491,-44.981566,-10.614261)" />
    <linearGradient
       id="linearGradient4806-9">
      <stop
         id="stop4808-49"
         style="stop-color:#ffffff;stop-opacity:1"
         offset="0" />
      <stop
         id="stop4810-05"
         style="stop-color:#ffffff;stop-opacity:0.23529412"
         offset="0.42447853" />
      <stop
         id="stop4812-6"
         style="stop-color:#ffffff;stop-opacity:0.15686275"
         offset="0.82089913" />
      <stop
         id="stop4814-7"
         style="stop-color:#ffffff;stop-opacity:0.39215687"
         offset="1" />
    </linearGradient>
    <linearGradient
       gradientTransform="matrix(0.21621622,0,0,0.21621622,0.990049,11.017354)"
       gradientUnits="userSpaceOnUse"
       xlink:href="#linearGradient4011"
       id="linearGradient3364-8"
       y2="42.883553"
       x2="71.204407"
       y1="7.8309216"
       x1="71.204407" />
    <radialGradient
       gradientTransform="matrix(0,0.5485247,-0.58027369,-1.4929998e-8,21.403203,8.557946)"
       gradientUnits="userSpaceOnUse"
       xlink:href="#linearGradient4632-92-3-0-8-1-6-6"
       id="radialGradient3370-2"
       fy="8.4497671"
       fx="6.2751122"
       r="19.99999"
       cy="8.4497671"
       cx="6.2751122" />
    <linearGradient
       gradientTransform="matrix(0.53833223,0,0,0.5558293,31.381992,-6.173296)"
       gradientUnits="userSpaceOnUse"
       xlink:href="#linearGradient3104-8-8-97-4-6-2-0-1-4-0-5-8-3-9-1-4"
       id="linearGradient3373-2-5"
       y2="5.1757793"
       x2="-95.837799"
       y1="54.199703"
       x1="-95.837799" />
  </defs>
  <metadata
     id="metadata4510">
    <rdf:RDF>
      <cc:Work
         rdf:about="">
        <dc:format>image/svg+xml</dc:format>
        <dc:type
           rdf:resource="http://purl.org/dc/dcmitype/StillImage" />
        <dc:title />
      </cc:Work>
    </rdf:RDF>
  </metadata>
  <path
     style="color:#000000;display:inline;overflow:visible;visibility:visible;fill:url(#radialGradient3543);fill-opacity:1;fill-rule:nonzero;stroke:none;stroke-width:1;marker:none;enable-background:accumulate"
     id="path2555"
     d="m 11.000002,0.4979502 c -5.7935384,0 -10.5000019,4.7064618 -10.5000019,10.4999998 0,5.793538 4.7064635,10.500002 10.5000019,10.500001 5.793535,0 10.500004,-4.706463 10.499998,-10.500001 C 21.5,5.204412 16.793537,0.4979502 11.000002,0.4979502 Z" />
  <path
     style="color:#000000;font-style:normal;font-variant:normal;font-weight:normal;font-stretch:normal;font-size:medium;line-height:normal;font-family:Sans;-inkscape-font-specification:Sans;text-indent:0;text-align:start;text-decoration:none;text-decoration-line:none;letter-spacing:normal;word-spacing:normal;text-transform:none;direction:ltr;block-progression:tb;writing-mode:lr-tb;baseline-shift:baseline;text-anchor:start;clip-rule:nonzero;display:inline;overflow:visible;visibility:visible;opacity:0.05;isolation:auto;mix-blend-mode:normal;color-interpolation:sRGB;color-interpolation-filters:linearRGB;solid-color:#000000;solid-opacity:1;fill:#000000;fill-opacity:1;fill-rule:nonzero;stroke:none;stroke-width:1;stroke-linecap:butt;stroke-linejoin:miter;stroke-miterlimit:4;stroke-dasharray:none;stroke-dashoffset:0;stroke-opacity:1;marker:none;color-rendering:auto;image-rendering:auto;shape-rendering:auto;text-rendering:auto;enable-background:accumulate"
     id="path4436"
     d="m 13.785156,4.4023438 a 0.93543811,0.93543811 0 0 0 -0.966797,0.9355468 l 0,0.3632813 C 12.552894,5.6701574 12.284377,5.640625 12,5.640625 c -2.959831,0 -5.5027423,1.7790034 -6.6660156,4.3144531 L 5.0429688,9.7832031 A 0.93543811,0.93543811 0 0 0 3.6308594,10.587891 l -0.00391,4.820312 a 0.93543811,0.93543811 0 0 0 1.4101563,0.804688 l 0.296875,-0.173829 C 6.4969286,18.575332 9.0395742,20.355469 12,20.355469 c 0.282127,0 0.548034,-0.02975 0.810547,-0.06055 l 0,0.4375 a 0.93543811,0.93543811 0 0 0 1.412109,0.804687 L 18.306641,19.125 a 0.93543811,0.93543811 0 0 0 -0.002,-1.611328 l -0.369141,-0.21875 c 0.878255,-1.211171 1.421875,-2.691834 1.421875,-4.296875 0,-1.58252 -0.525606,-3.0450094 -1.382813,-4.248047 l 0.333985,-0.1972656 a 0.93543811,0.93543811 0 0 0 0.002,-1.609375 L 14.230469,4.5332031 A 0.93543811,0.93543811 0 0 0 13.785156,4.4023438 Z M 12,10.583984 c 0.219161,0 0.429871,0.02973 0.632812,0.08399 a 0.93543811,0.93543811 0 0 0 0.34961,0.02344 0.93543811,0.93543811 0 0 0 0.626953,0.390625 0.93543811,0.93543811 0 0 0 0.177734,0.289063 c 0.39105,0.430015 0.626953,0.991607 0.626953,1.626953 0,0.653681 -0.250212,1.225627 -0.662109,1.658203 a 0.93543811,0.93543811 0 0 0 -0.208984,0.347656 0.93543811,0.93543811 0 0 0 -0.503907,0.304688 0.93543811,0.93543811 0 0 0 -0.402343,0.01563 c -0.208251,0.0547 -0.42015,0.08398 -0.636719,0.08398 -1.118219,0 -2.0246412,-0.730568 -2.3144531,-1.736328 a 0.93543811,0.93543811 0 0 0 -0.171875,-0.326172 0.93543811,0.93543811 0 0 0 0,-0.002 0.93543811,0.93543811 0 0 0 0.00195,-0.693359 0.93543811,0.93543811 0 0 0 0.1699219,-0.326172 C 9.9755817,11.316891 10.882923,10.583984 12,10.583984 Z"
     transform="translate(-1,-1)" />
  <path
     style="color:#000000;font-style:normal;font-variant:normal;font-weight:normal;font-stretch:normal;font-size:medium;line-height:normal;font-family:Sans;-inkscape-font-specification:Sans;text-indent:0;text-align:start;text-decoration:none;text-decoration-line:none;letter-spacing:normal;word-spacing:normal;text-transform:none;direction:ltr;block-progression:tb;writing-mode:lr-tb;baseline-shift:baseline;text-anchor:start;clip-rule:nonzero;display:inline;overflow:visible;visibility:visible;opacity:0.15;isolation:auto;mix-blend-mode:normal;color-interpolation:sRGB;color-interpolation-filters:linearRGB;solid-color:#000000;solid-opacity:1;fill:#000000;fill-opacity:1;fill-rule:nonzero;stroke:none;stroke-width:1;stroke-linecap:butt;stroke-linejoin:miter;stroke-miterlimit:4;stroke-dasharray:none;stroke-dashoffset:0;stroke-opacity:1;marker:none;color-rendering:auto;image-rendering:auto;shape-rendering:auto;text-rendering:auto;enable-background:accumulate"
     d="m 12.754668,4.337136 -0.005,4.821836 L 16.833223,6.7480547 12.754669,4.337136 Z M 11,5.5766088 c -2.6440969,0 -4.9188951,1.6114524 -5.9012476,3.9014852 L 5.8550399,9.924265 C 6.6732709,7.8901003 8.6676655,6.4609449 11,6.4609449 c 0.300017,0 0.593023,0.026714 0.879335,0.073028 l 0,-0.89334 C 11.591434,5.6006749 11.299142,5.5766119 11,5.5766119 Z m 0,2.182831 c -1.841754,0 -3.4166883,1.1892619 -3.9965222,2.8390812 l 0.7832978,0.465177 C 8.1891653,9.666148 9.4683,8.6487782 11,8.6487789 c 0.302856,0 0.596357,0.039458 0.875334,0.1140431 l 0,-0.9073456 C 11.592647,7.7954304 11.299532,7.7594394 11,7.7594394 Z m 5.149962,0.4061545 -0.76129,0.4511719 c 0.719668,0.9341818 1.148437,2.1068148 1.148437,3.3812878 0,1.298867 -0.44475,2.488581 -1.189453,3.431307 l 0.76129,0.451172 c 0.821605,-1.079158 1.3125,-2.425958 1.3125,-3.882479 0,-1.43417 -0.472814,-2.76171 -1.271484,-3.8324597 z M 14.249238,9.291023 13.478944,9.742195 c 0.540756,0.59464 0.870332,1.384199 0.870332,2.255859 0,0.897138 -0.350698,1.703626 -0.92035,2.301877 l 0.779296,0.460175 c 0.640325,-0.7432 1.030393,-1.710739 1.030393,-2.762052 0,-1.028086 -0.374058,-1.971056 -0.989377,-2.707031 z m -10.6820699,0.296113 -0.005,4.821836 4.083555,-2.410918 L 3.5671697,9.587136 Z M 7.7867756,12.93241 7.0034778,13.392585 C 7.5820857,15.044416 9.156824,16.236669 11,16.236669 c 0.299532,0 0.592647,-0.03599 0.875334,-0.09604 l 0,-0.911347 C 11.596282,15.302572 11.302913,15.343329 11,15.343329 c -1.5317,0 -2.8108347,-1.014471 -3.2132244,-2.410919 z m -1.9317357,1.139434 -0.7562875,0.44617 C 6.0811049,16.808048 8.3559031,18.4195 11,18.4195 c 0.295561,0 0.585877,-0.02445 0.870332,-0.06402 l 0,-0.888338 c -0.283813,0.04479 -0.573225,0.06803 -0.870332,0.06803 -2.3323345,0 -4.3267291,-1.429156 -5.1449601,-3.463319 z m 6.8946261,0.843321 -0.004,4.816835 4.083555,-2.410918 -4.079553,-2.405917 z"
     id="path9-1" />
  <path
     style="color:#000000;font-style:normal;font-variant:normal;font-weight:normal;font-stretch:normal;font-size:medium;line-height:normal;font-family:Sans;-inkscape-font-specification:Sans;text-indent:0;text-align:start;text-decoration:none;text-decoration-line:none;letter-spacing:normal;word-spacing:normal;text-transform:none;direction:ltr;block-progression:tb;writing-mode:lr-tb;baseline-shift:baseline;text-anchor:start;display:inline;overflow:visible;visibility:visible;fill:#ffffff;fill-opacity:1;stroke:none;stroke-width:1.17073166;marker:none;enable-background:accumulate"
     d="m 12.754668,3.3370326 -0.005,4.8218365 4.083555,-2.4109178 -4.078554,-2.4109187 z M 11,4.5765054 c -2.6440969,0 -4.9188951,1.6114524 -5.9012476,3.9014855 L 5.8550399,8.9241612 C 6.6732709,6.8899969 8.6676655,5.4608415 11,5.4608415 c 0.300017,0 0.593023,0.026714 0.879335,0.073028 l 0,-0.89334 C 11.591434,4.6005714 11.299142,4.5765083 11,4.5765083 Z m 0,2.182831 c -1.841754,0 -3.4166883,1.1892619 -3.9965222,2.8390816 l 0.7832978,0.465177 C 8.1891653,8.6660444 9.4683,7.6486748 11,7.6486755 c 0.302856,0 0.596357,0.039458 0.875334,0.1140431 l 0,-0.9073456 C 11.592647,6.7953275 11.299532,6.7593364 11,6.7593364 Z m 5.149962,0.4061545 -0.76129,0.4511719 c 0.719668,0.9341821 1.148437,2.1068152 1.148437,3.3812882 0,1.298867 -0.44475,2.488581 -1.189453,3.431307 l 0.76129,0.451172 c 0.821605,-1.079158 1.3125,-2.425958 1.3125,-3.882479 0,-1.43417 -0.472814,-2.7617107 -1.271484,-3.8324601 z M 14.249238,8.29092 13.478944,8.7420919 c 0.540756,0.5946401 0.870332,1.3841991 0.870332,2.2558591 0,0.897138 -0.350698,1.703626 -0.92035,2.301877 l 0.779296,0.460175 c 0.640325,-0.7432 1.030393,-1.710739 1.030393,-2.762052 0,-1.028086 -0.374058,-1.971056 -0.989377,-2.707031 z m -10.6820699,0.296113 -0.005,4.821836 4.083555,-2.410918 -4.0785534,-2.410918 z m 4.2196075,3.345274 -0.7832978,0.460175 C 7.5820857,14.044313 9.156824,15.236566 11,15.236566 c 0.299532,0 0.592647,-0.03599 0.875334,-0.09604 l 0,-0.911347 C 11.596282,14.302465 11.302913,14.343226 11,14.343226 c -1.5317,0 -2.8108347,-1.014471 -3.2132244,-2.410919 z m -1.9317357,1.139434 -0.7562875,0.44617 C 6.0811049,15.807945 8.3559031,17.419397 11,17.419397 c 0.295561,0 0.585877,-0.02445 0.870332,-0.06402 l 0,-0.888338 c -0.283813,0.04479 -0.573225,0.06803 -0.870332,0.06803 -2.3323345,0 -4.3267291,-1.429156 -5.1449601,-3.463319 z m 6.8946261,0.843321 -0.004,4.816835 4.083555,-2.410918 -4.079553,-2.405917 z"
     id="path9" />
  <path
     d="M 11,0.5 C 5.206462,0.5 0.5,5.206462 0.5,10.999999 0.5,16.793538 5.206462,21.500002 11,21.5 16.793538,21.5 21.500007,16.793538 21.5,10.999999 21.5,5.206462 16.793538,0.5 11,0.5 Z"
     id="path2555-7-1-7"
     style="color:#000000;clip-rule:nonzero;display:inline;overflow:visible;visibility:visible;opacity:0.3;isolation:auto;mix-blend-mode:normal;color-interpolation:sRGB;color-interpolation-filters:linearRGB;solid-color:#000000;solid-opacity:1;fill:none;fill-opacity:1;fill-rule:nonzero;stroke:#000000;stroke-width:1;stroke-linecap:round;stroke-linejoin:round;stroke-miterlimit:4;stroke-dasharray:none;stroke-dashoffset:0;stroke-opacity:1;marker:none;color-rendering:auto;image-rendering:auto;shape-rendering:auto;text-rendering:auto;enable-background:accumulate" />
  <path
     d="m 20.500001,11 c 0,5.246706 -4.253305,9.5 -9.500001,9.5 -5.246695,0 -9.5,-4.253294 -9.5,-9.5 0,-5.246704 4.253305,-9.5 9.5,-9.5 5.246696,0 9.500001,4.253296 9.500001,9.5 z"
     id="path3421"
     style="color:#000000;display:inline;overflow:visible;visibility:visible;opacity:0.5;fill:none;stroke:url(#linearGradient3097);stroke-width:1;stroke-linecap:round;stroke-linejoin:round;stroke-miterlimit:4;stroke-dasharray:none;stroke-dashoffset:0;stroke-opacity:1;marker:none;enable-background:accumulate" />
  <path
     style="color:#000000;display:inline;overflow:visible;visibility:visible;opacity:0.8;fill:none;stroke:url(#linearGradient3373-2-5);stroke-width:1;stroke-linecap:butt;stroke-linejoin:miter;stroke-miterlimit:4;stroke-dasharray:none;stroke-dashoffset:0;stroke-opacity:1;marker:none;enable-background:accumulate"
     id="path2555-7-2"
     d="M 16.500001,11.5 C 13.741174,11.5 11.5,13.741172 11.5,16.5 c 0,2.758828 2.241174,5.000001 5.000001,5 2.758825,0 5.000002,-2.241172 4.999999,-5 0,-2.758828 -2.241174,-5 -4.999999,-5 z" />
  <path
     style="color:#000000;display:inline;overflow:visible;visibility:visible;fill:url(#radialGradient3370-2);fill-opacity:1;fill-rule:nonzero;stroke:none;stroke-width:1;marker:none;enable-background:accumulate"
     id="path2555-03-8"
     d="M 16.500001,12 C 14.017056,12 12,14.017055 12,16.5 12,18.982944 14.017056,21.000001 16.500001,21 18.982944,21 21.000003,18.982944 21,16.5 21,14.017055 18.982944,12 16.500001,12 Z" />
  <path
     style="color:#000000;display:inline;overflow:visible;visibility:visible;fill:none;stroke:url(#linearGradient3364-8);stroke-width:0.99999988;stroke-linecap:round;stroke-linejoin:round;stroke-miterlimit:4;stroke-dasharray:none;stroke-dashoffset:0;stroke-opacity:1;marker:none;enable-background:accumulate"
     id="path8655-6-4-6"
     d="m 20.5,16.499859 c 0,2.20921 -1.790994,4.000142 -3.999949,4.000142 C 14.290891,20.500001 12.5,18.709049 12.5,16.499859 12.5,14.290751 14.290891,12.5 16.500051,12.5 18.709006,12.5 20.5,14.290751 20.5,16.499859 l 0,0 z" />
  <path
     style="color:#000000;display:inline;overflow:visible;visibility:visible;fill:#ffffff;fill-opacity:1;fill-rule:nonzero;stroke:none;stroke-width:1;marker:none;enable-background:accumulate"
     id="rect3005-5-6-9"
     d="m 14,17 0,1 2.5,3 2.5,-3 0,-1 z" />
  <path
     style="color:#000000;display:inline;overflow:visible;visibility:visible;fill:#87a556;fill-opacity:1;fill-rule:nonzero;stroke:none;stroke-width:1;marker:none;enable-background:accumulate"
     id="rect3005-5-7"
     d="m 16,14 0,3 -2,0 2.5,3 2.5,-3 -2,0 0,-3 z" />
  <path
     style="color:#000000;display:inline;overflow:visible;visibility:visible;opacity:0.15;fill:#000000;fill-opacity:1;fill-rule:nonzero;stroke:none;stroke-width:1;marker:none;enable-background:accumulate"
     id="rect4305-3"
     d="m 16,14 0,1 1,0 0,-1 z m -2,3 1.007031,1 L 16,18 16,17 Z m 3,0 0,1 1.016406,0 L 19,17 Z" />
</svg>
