<?xml version="1.0" encoding="UTF-8" standalone="no"?>
<svg
   xmlns:dc="http://purl.org/dc/elements/1.1/"
   xmlns:cc="http://creativecommons.org/ns#"
   xmlns:rdf="http://www.w3.org/1999/02/22-rdf-syntax-ns#"
   xmlns:svg="http://www.w3.org/2000/svg"
   xmlns="http://www.w3.org/2000/svg"
   xmlns:sodipodi="http://sodipodi.sourceforge.net/DTD/sodipodi-0.dtd"
   xmlns:inkscape="http://www.inkscape.org/namespaces/inkscape"
   sodipodi:docname="account-logged-in.svg"
   inkscape:version="1.0alpha2 (ba7fb61f5a, 2019-08-31)"
   id="svg3172"
   height="22"
   width="22"
   version="1.0">
  <metadata
     id="metadata10">
    <rdf:RDF>
      <cc:Work
         rdf:about="">
        <dc:format>image/svg+xml</dc:format>
        <dc:type
           rdf:resource="http://purl.org/dc/dcmitype/StillImage" />
        <dc:title></dc:title>
      </cc:Work>
    </rdf:RDF>
  </metadata>
  <sodipodi:namedview
     inkscape:document-rotation="0"
     inkscape:current-layer="svg3172"
     inkscape:window-maximized="1"
     inkscape:window-y="28"
     inkscape:window-x="0"
     inkscape:cy="8.7697591"
     inkscape:cx="-1.927835"
     inkscape:zoom="13.227273"
     showgrid="false"
     id="namedview8"
     inkscape:window-height="1381"
     inkscape:window-width="2560"
     inkscape:pageshadow="2"
     inkscape:pageopacity="0"
     guidetolerance="10"
     gridtolerance="10"
     objecttolerance="10"
     borderopacity="1"
     bordercolor="#666666"
     pagecolor="#ffffff" />
  <defs
     id="defs3174" />
  <g
     transform="translate(2)"
     id="g835">
    <path
       inkscape:connector-curvature="0"
       style="display:inline;overflow:visible;visibility:visible;opacity:0.3;fill:#000000;fill-opacity:1;fill-rule:nonzero;stroke:none;stroke-width:3;marker:none;enable-background:accumulate"
       id="path2396-7"
       d="M 8.9999997,5 C 5.1360001,5 2,8.1360005 2,12 2,15.864 5.1359999,18.999999 8.9999997,19 12.864,19 16,15.864 16,12 16,8.1360001 12.864,5.0000002 8.9999997,5 Z M 12,7 14,9 8.4999997,16.5 4.5,13 l 2,-2 1.9999997,2 z" />
    <path
       inkscape:connector-curvature="0"
       style="display:inline;overflow:visible;visibility:visible;fill:#dfdbd2;fill-opacity:1;fill-rule:nonzero;stroke:none;stroke-width:3;marker:none;enable-background:accumulate"
       id="path2396"
       d="M 8.9999997,3.9991931 C 5.1360001,3.9991931 2,7.1351936 2,10.999193 c 0,3.864 3.1359999,6.999999 6.9999997,7 3.8640003,0 7.0000003,-3.136 7.0000003,-7 C 16,7.1351932 12.864,3.9991933 8.9999997,3.9991931 Z m 3.0000003,2 2,2 -5.5000003,7.4999999 -3.9999997,-3.5 2,-1.9999999 1.9999997,1.9999999 z" />
    <path
       inkscape:connector-curvature="0"
       style="opacity:0.3;fill:none;stroke:#ffffff;stroke-width:0.5;stroke-linecap:butt;stroke-linejoin:miter;stroke-miterlimit:4;stroke-dasharray:none;stroke-opacity:1"
       id="path3170"
       d="M 4.8544493,11.999193 6.5,10.353642 8.5545307,12.408173 12.054531,6.4081731 13.672816,8.0264584 8.4727347,15.144744 Z" />
  </g>
</svg>
