<?xml version="1.0" encoding="UTF-8" standalone="no"?>
<svg
   xmlns:dc="http://purl.org/dc/elements/1.1/"
   xmlns:cc="http://creativecommons.org/ns#"
   xmlns:rdf="http://www.w3.org/1999/02/22-rdf-syntax-ns#"
   xmlns:svg="http://www.w3.org/2000/svg"
   xmlns="http://www.w3.org/2000/svg"
   xmlns:sodipodi="http://sodipodi.sourceforge.net/DTD/sodipodi-0.dtd"
   xmlns:inkscape="http://www.inkscape.org/namespaces/inkscape"
   inkscape:version="1.0alpha2 (ba7fb61f5a, 2019-08-31)"
   sodipodi:docname="audio-volume-muted-panel.svg"
   id="svg3830"
   height="22"
   width="22"
   version="1.1">
  <sodipodi:namedview
     inkscape:current-layer="svg3830"
     inkscape:window-maximized="1"
     inkscape:window-y="28"
     inkscape:window-x="0"
     inkscape:cy="11"
     inkscape:cx="12"
     inkscape:zoom="44"
     showgrid="false"
     id="namedview4850"
     inkscape:window-height="1381"
     inkscape:window-width="2560"
     inkscape:pageshadow="2"
     inkscape:pageopacity="0"
     guidetolerance="10"
     gridtolerance="10"
     objecttolerance="10"
     borderopacity="1"
     inkscape:document-rotation="0"
     bordercolor="#666666"
     pagecolor="#ffffff" />
  <defs
     id="defs3832" />
  <metadata
     id="metadata3835">
    <rdf:RDF>
      <cc:Work
         rdf:about="">
        <dc:format>image/svg+xml</dc:format>
        <dc:type
           rdf:resource="http://purl.org/dc/dcmitype/StillImage" />
        <dc:title></dc:title>
      </cc:Work>
    </rdf:RDF>
  </metadata>
  <g
     transform="translate(0,-1)"
     id="g5417">
    <g
       transform="translate(0,-10)"
       id="layer1">
      <g
         transform="translate(1.0023544)"
         id="g2988"
         style="opacity:0.4">
        <path
           inkscape:connector-curvature="0"
           d="M 7,7 C 6.6947765,7 6.4334727,7.127959 6.25,7.34375 L 4,10 H 2 c -0.552,0 -1,0.448 -1,1 -0.00627,0.996071 0.00222,2.014549 0,3 0,0.552 0.4480001,1 1,1 h 2 l 2.15625,2.46875 C 6.3276084,17.773669 6.6255544,18 7,18 7.552,18 8.0000004,17.552 8,17 V 8 C 8,7.448 7.5519997,7 7,7 Z M 16.6875,9 14.5,11.25 12.25,9.03125 11,10.3125 13.25,12.5 11.03125,14.75 12.3125,16 14.5,13.75 16.75,15.96875 18,14.6875 15.75,12.5 17.96875,10.25 Z"
           transform="translate(0,10)"
           id="path2396-0"
           style="display:inline;overflow:visible;visibility:visible;opacity:0.3;fill:#000000;fill-opacity:1;fill-rule:nonzero;stroke:none;stroke-width:1;marker:none;enable-background:accumulate" />
        <path
           inkscape:connector-curvature="0"
           d="M 7,6 C 6.6947765,6 6.4334727,6.127959 6.25,6.34375 L 4,9 H 2 c -0.552,0 -1,0.448 -1,1 -0.00627,0.996071 0.00222,2.014549 0,3 0,0.552 0.4480001,1 1,1 h 2 l 2.15625,2.46875 C 6.3276084,16.773669 6.6255544,17 7,17 7.552,17 8.0000004,16.552 8,16 V 7 C 8,6.448 7.5519997,6 7,6 Z M 16.6875,8 14.5,10.25 12.25,8.03125 11,9.3125 13.25,11.5 11.03125,13.75 12.3125,15 14.5,12.75 16.75,14.96875 18,13.6875 15.75,11.5 17.96875,9.25 Z"
           transform="translate(0,10)"
           id="rect3180"
           style="display:inline;overflow:visible;visibility:visible;fill:#dfdbd2;fill-opacity:1;fill-rule:evenodd;stroke:none;stroke-width:1.7;marker:none;enable-background:accumulate" />
      </g>
    </g>
  </g>
</svg>
