<?xml version="1.0" encoding="UTF-8" standalone="no"?>
<svg
   xmlns:dc="http://purl.org/dc/elements/1.1/"
   xmlns:cc="http://creativecommons.org/ns#"
   xmlns:rdf="http://www.w3.org/1999/02/22-rdf-syntax-ns#"
   xmlns:svg="http://www.w3.org/2000/svg"
   xmlns="http://www.w3.org/2000/svg"
   xmlns:sodipodi="http://sodipodi.sourceforge.net/DTD/sodipodi-0.dtd"
   xmlns:inkscape="http://www.inkscape.org/namespaces/inkscape"
   sodipodi:docname="audio-volume-high-panel.svg"
   inkscape:version="1.0alpha2 (ba7fb61f5a, 2019-08-31)"
   version="1.1"
   id="svg3814"
   height="22"
   width="22">
  <defs
     id="defs3816" />
  <sodipodi:namedview
     inkscape:document-rotation="0"
     inkscape:window-maximized="1"
     inkscape:window-y="30"
     inkscape:window-x="2560"
     inkscape:window-height="1379"
     inkscape:window-width="2560"
     inkscape:document-units="px"
     inkscape:grid-bbox="true"
     showgrid="true"
     inkscape:current-layer="layer1"
     inkscape:cy="8"
     inkscape:cx="-14.808044"
     inkscape:zoom="7.8481082"
     inkscape:pageshadow="2"
     inkscape:pageopacity="0.0"
     borderopacity="1.0"
     bordercolor="#666666"
     pagecolor="#ffffff"
     id="base" />
  <metadata
     id="metadata3819">
    <rdf:RDF>
      <cc:Work
         rdf:about="">
        <dc:format>image/svg+xml</dc:format>
        <dc:type
           rdf:resource="http://purl.org/dc/dcmitype/StillImage" />
        <dc:title></dc:title>
      </cc:Work>
    </rdf:RDF>
  </metadata>
  <g
     transform="translate(0,6)"
     inkscape:groupmode="layer"
     inkscape:label="Layer 1"
     id="layer1">
    <g
       transform="translate(0,-1)"
       id="g5475">
      <path
         inkscape:connector-curvature="0"
         style="display:inline;overflow:visible;visibility:visible;opacity:0.3;fill:#000000;fill-opacity:1;fill-rule:evenodd;stroke:none;stroke-width:1.7;marker:none;enable-background:accumulate"
         id="rect3180-0"
         d="m 8.0133544,1 c -0.3052235,0 -0.5665273,0.1279595 -0.75,0.34375 L 5.0133544,4 c 0,0 -2,0 -2,0 -0.552,0 -1,0.448 -1,1 -0.00627,0.996071 0.00222,2.014549 0,3 0,0.552 0.4480001,1 1,1 h 2 l 2.15625,2.46875 C 7.3409628,11.773669 7.6389088,12 8.0133544,12 c 0.552,0 1.0000004,-0.448 1,-1 V 2 c 0,-0.552 -0.4480003,-1 -1,-1 z" />
      <path
         inkscape:connector-curvature="0"
         style="display:inline;overflow:visible;visibility:visible;opacity:0.3;fill:none;stroke:#000000;stroke-width:1.7;stroke-linecap:round;stroke-linejoin:miter;stroke-miterlimit:4;stroke-dasharray:none;stroke-dashoffset:0;stroke-opacity:1;marker:none;enable-background:accumulate"
         id="path3209-4"
         d="m 17.86779,-1.15 c 0,0 2.613537,2.422712 2.613537,7.634915 0,5.18658 -2.617972,7.665085 -2.617972,7.665085 M 14.892994,1.095476 c 0,0 1.845351,1.744801 1.779696,5.404524 -0.0662,3.690079 -1.809335,5.404524 -1.809335,5.404524 m -3,-8.682665 c 0,0 0.983474,0.794985 1.008541,3.230647 0.02476,2.405297 -1.008541,3.325635 -1.008541,3.325635" />
      <path
         inkscape:connector-curvature="0"
         style="display:inline;overflow:visible;visibility:visible;fill:none;stroke:#dfdbd2;stroke-width:1.7;stroke-linecap:round;stroke-linejoin:miter;stroke-miterlimit:4;stroke-dasharray:none;stroke-dashoffset:0;stroke-opacity:1;marker:none;enable-background:accumulate"
         id="path3209"
         d="m 17.86779,-2.15 c 0,0 2.613537,2.422712 2.613537,7.634915 0,5.18658 -2.617972,7.665085 -2.617972,7.665085 M 14.892994,0.095476 c 0,0 1.845351,1.744801 1.779696,5.404524 -0.0662,3.690079 -1.809335,5.404524 -1.809335,5.404524 m -3,-8.682665 c 0,0 0.983474,0.794985 1.008541,3.230647 0.02476,2.405297 -1.008541,3.325635 -1.008541,3.325635" />
      <path
         inkscape:connector-curvature="0"
         style="display:inline;overflow:visible;visibility:visible;fill:#dfdbd2;fill-opacity:1;fill-rule:evenodd;stroke:none;stroke-width:1.7;marker:none;enable-background:accumulate"
         id="rect3180"
         d="m 8.0133544,0 c -0.3052235,0 -0.5665273,0.1279595 -0.75,0.34375 L 5.0133544,3 c 0,0 -2,0 -2,0 -0.552,0 -1,0.448 -1,1 -0.00627,0.996071 0.00222,2.014549 0,3 0,0.552 0.4480001,1 1,1 h 2 l 2.15625,2.46875 C 7.3409628,10.773669 7.6389088,11 8.0133544,11 c 0.552,0 1.0000004,-0.448 1,-1 V 1 c 0,-0.552 -0.4480003,-1 -1,-1 z" />
    </g>
  </g>
</svg>
