<?xml version="1.0" encoding="UTF-8" standalone="no"?>
<svg
   xmlns:dc="http://purl.org/dc/elements/1.1/"
   xmlns:cc="http://creativecommons.org/ns#"
   xmlns:rdf="http://www.w3.org/1999/02/22-rdf-syntax-ns#"
   xmlns:svg="http://www.w3.org/2000/svg"
   xmlns="http://www.w3.org/2000/svg"
   xmlns:sodipodi="http://sodipodi.sourceforge.net/DTD/sodipodi-0.dtd"
   xmlns:inkscape="http://www.inkscape.org/namespaces/inkscape"
   sodipodi:docname="gpm-mouse-020.svg"
   inkscape:version="1.0alpha2 (ba7fb61f5a, 2019-08-31)"
   version="1.1"
   id="svg3856"
   height="22"
   width="22">
  <defs
     id="defs3858" />
  <sodipodi:namedview
     inkscape:document-rotation="0"
     inkscape:window-maximized="1"
     inkscape:window-y="30"
     inkscape:window-x="2560"
     inkscape:window-height="1379"
     inkscape:window-width="2560"
     inkscape:document-units="px"
     inkscape:grid-bbox="true"
     showgrid="true"
     inkscape:current-layer="layer1"
     inkscape:cy="11.60396"
     inkscape:cx="-2.9920793"
     inkscape:zoom="22.197802"
     inkscape:pageshadow="2"
     inkscape:pageopacity="0.0"
     borderopacity="1.0"
     bordercolor="#666666"
     pagecolor="#ffffff"
     id="base" />
  <metadata
     id="metadata3861">
    <rdf:RDF>
      <cc:Work
         rdf:about="">
        <dc:format>image/svg+xml</dc:format>
        <dc:type
           rdf:resource="http://purl.org/dc/dcmitype/StillImage" />
        <dc:title></dc:title>
      </cc:Work>
    </rdf:RDF>
  </metadata>
  <g
     transform="translate(0,6)"
     inkscape:groupmode="layer"
     inkscape:label="Layer 1"
     id="layer1">
    <g
       transform="translate(3.5)"
       id="g3711">
      <path
         inkscape:connector-curvature="0"
         d="m 5,9 c -0.551638,0 -1,0.44884 -1,1 0,1.108 1.338,2 3,2 h 1 c 1.661999,0 3,-0.892 3,-2 0,-0.517323 -0.386498,-1 -1,-1 z"
         id="rect3728-2"
         style="display:inline;overflow:visible;visibility:visible;opacity:0.3;fill:#000000;fill-opacity:1;fill-rule:evenodd;stroke:none;stroke-width:1.7;marker:none;enable-background:accumulate" />
      <path
         inkscape:connector-curvature="0"
         d="m 6.5,-1.500001 h 2 c 2.216,0 4,1.338 4,3 V 10.5 c 0,1.662 -1.784,3 -4,3 h -2 c -2.2160001,0 -4,-1.338 -4,-3 V 1.499999 c 0,-1.662 1.7839999,-3 4,-3 z M 7.541885,-1.5 v 4"
         id="rect2406-4"
         style="display:inline;overflow:visible;visibility:visible;opacity:0.3;fill:none;stroke:#000000;stroke-width:1;stroke-linecap:round;stroke-linejoin:miter;stroke-miterlimit:4;stroke-dasharray:none;stroke-dashoffset:0;stroke-opacity:1;marker:none;enable-background:accumulate" />
      <g
         id="g3195"
         style="opacity:0.3;fill:none;stroke:#dfdbd2;stroke-opacity:1"
         transform="translate(-5,-7)">
        <path
           inkscape:connector-curvature="0"
           d="M 12.5,5.3333332 V 8.6666663"
           id="path3193"
           style="display:inline;overflow:visible;visibility:visible;fill:none;stroke:#dfdbd2;stroke-width:2;stroke-linecap:round;stroke-linejoin:miter;stroke-miterlimit:4;stroke-dasharray:none;stroke-dashoffset:0;stroke-opacity:1;marker:none;enable-background:accumulate" />
        <rect
           width="13.5"
           height="8.5"
           rx="2.3"
           ry="3.3000903"
           x="-18.75"
           y="8.25"
           transform="rotate(-90)"
           id="rect3236"
           style="display:inline;overflow:visible;visibility:visible;fill:none;stroke:#dfdbd2;stroke-width:0.5;stroke-linecap:round;stroke-linejoin:miter;stroke-miterlimit:4;stroke-dasharray:none;stroke-dashoffset:0;stroke-opacity:1;marker:none;enable-background:accumulate" />
      </g>
      <path
         inkscape:connector-curvature="0"
         d="m 6.5,-2.500001 h 2 c 2.216,0 4,1.338 4,3 V 9.5 c 0,1.662 -1.784,3 -4,3 h -2 c -2.2160001,0 -4,-1.338 -4,-3 V 0.499999 c 0,-1.662 1.7839999,-3 4,-3 z m 1.041885,1e-6 v 4"
         id="rect2406"
         style="display:inline;overflow:visible;visibility:visible;fill:none;stroke:#dfdbd2;stroke-width:1;stroke-linecap:round;stroke-linejoin:miter;stroke-miterlimit:4;stroke-dasharray:none;stroke-dashoffset:0;stroke-opacity:1;marker:none;enable-background:accumulate" />
      <path
         inkscape:connector-curvature="0"
         d="M 5,8 C 4.448362,8 4,8.44884 4,9 c 0,1.108 1.338,2 3,2 h 1 c 1.661999,0 3,-0.892 3,-2 0,-0.517323 -0.386498,-1 -1,-1 z"
         id="rect3728"
         style="display:inline;overflow:visible;visibility:visible;fill:#df382c;fill-opacity:1;fill-rule:evenodd;stroke:none;stroke-width:1.7;marker:none;enable-background:accumulate" />
    </g>
  </g>
</svg>
