<?xml version="1.0" encoding="UTF-8" standalone="no"?>
<svg
   xmlns:dc="http://purl.org/dc/elements/1.1/"
   xmlns:cc="http://creativecommons.org/ns#"
   xmlns:rdf="http://www.w3.org/1999/02/22-rdf-syntax-ns#"
   xmlns:svg="http://www.w3.org/2000/svg"
   xmlns="http://www.w3.org/2000/svg"
   xmlns:sodipodi="http://sodipodi.sourceforge.net/DTD/sodipodi-0.dtd"
   xmlns:inkscape="http://www.inkscape.org/namespaces/inkscape"
   inkscape:version="1.0alpha2 (ba7fb61f5a, 2019-08-31)"
   sodipodi:docname="gtk-dialog-authentication-panel.svg"
   id="svg7739"
   height="22"
   width="22"
   version="1.1">
  <sodipodi:namedview
     inkscape:current-layer="svg7739"
     inkscape:window-maximized="1"
     inkscape:window-y="28"
     inkscape:window-x="0"
     inkscape:cy="11"
     inkscape:cx="7"
     inkscape:zoom="44"
     showgrid="false"
     id="namedview7"
     inkscape:window-height="1381"
     inkscape:window-width="2560"
     inkscape:pageshadow="2"
     inkscape:pageopacity="0"
     guidetolerance="10"
     gridtolerance="10"
     objecttolerance="10"
     borderopacity="1"
     inkscape:document-rotation="0"
     bordercolor="#666666"
     pagecolor="#ffffff" />
  <metadata
     id="metadata9">
    <rdf:RDF>
      <cc:Work
         rdf:about="">
        <dc:format>image/svg+xml</dc:format>
        <dc:type
           rdf:resource="http://purl.org/dc/dcmitype/StillImage" />
        <dc:title></dc:title>
      </cc:Work>
    </rdf:RDF>
  </metadata>
  <defs
     id="defs7741" />
  <g
     transform="translate(3.9964876,-0.49991817)"
     id="g2568">
    <path
       inkscape:connector-curvature="0"
       d="m 7.0256262,2.9998015 c -2.3230962,-0.019671 -4.508694,1.7349857 -4.9375,3.9375001 -0.428806,2.2025143 0.7339528,4.2677304 2.90625,5.0625004 v 6 c 0,2 1.130077,3.016519 2,3 0.869923,-0.01652 2,-1 2,-3 l 1.9999998,-1 -2.9999998,-1 2.9999998,-2 -1.9999998,-1 v -1 C 11.180798,11.241941 12.320545,9.2404881 11.931876,7.0310516 11.543207,4.821615 9.3487222,3.0194726 7.0256262,2.9998015 Z m 0,2.9687501 c 0.584746,0 1.03125,0.4465016 1.03125,1.03125 0,0.5847484 -0.446504,1.03125 -1.03125,1.03125 -0.584746,0 -1.03125,-0.4465016 -1.03125,-1.03125 0,-0.5847484 0.446504,-1.03125 1.03125,-1.03125 z m 0,1 c 0.02182,0 -0.03125,0.053071 -0.03125,0.03125 0,-0.021821 0.05307,0.03125 0.03125,0.03125 -0.02182,0 0.03125,-0.053071 0.03125,-0.03125 0,0.021821 -0.05307,-0.03125 -0.03125,-0.03125 z"
       id="path7793-6"
       style="color:#000000;display:inline;overflow:visible;visibility:visible;opacity:0.3;fill:#000000;fill-opacity:1;stroke:none;stroke-width:1;marker:none;enable-background:accumulate" />
    <path
       inkscape:connector-curvature="0"
       d="M 7.0256262,2 C 4.70253,1.9803286 2.5169322,3.7349856 2.0881262,5.9375 1.6593202,8.1400143 2.822079,10.20523 4.9943762,11 v 6 c 0,2 1.130077,3.016519 2,3 0.869923,-0.01652 2,-1 2,-3 L 10.994376,16 7.9943762,15 10.994376,13 8.9943762,12 V 11 C 11.180798,10.242139 12.320545,8.2406865 11.931876,6.03125 11.543207,3.8218134 9.3487222,2.019671 7.0256262,2 Z m 0,2.96875 c 0.584746,0 1.03125,0.4465016 1.03125,1.03125 0,0.5847484 -0.446504,1.03125 -1.03125,1.03125 -0.584746,0 -1.03125,-0.4465016 -1.03125,-1.03125 0,-0.5847484 0.446504,-1.03125 1.03125,-1.03125 z m 0,1 c 0.02182,0 -0.03125,0.053071 -0.03125,0.03125 0,-0.021821 0.05307,0.03125 0.03125,0.03125 -0.02182,0 0.03125,-0.053071 0.03125,-0.03125 0,0.021821 -0.05307,-0.03125 -0.03125,-0.03125 z"
       id="path7793"
       style="color:#000000;display:inline;overflow:visible;visibility:visible;fill:#dfdbd2;fill-opacity:1;stroke:none;stroke-width:1;marker:none;enable-background:accumulate" />
  </g>
</svg>
