<?xml version="1.0" encoding="UTF-8" standalone="no"?>
<svg
   xmlns:dc="http://purl.org/dc/elements/1.1/"
   xmlns:cc="http://creativecommons.org/ns#"
   xmlns:rdf="http://www.w3.org/1999/02/22-rdf-syntax-ns#"
   xmlns:svg="http://www.w3.org/2000/svg"
   xmlns="http://www.w3.org/2000/svg"
   xml:space="preserve"
   enable-background="new 0 0 22 22"
   viewBox="0 0 22 22"
   height="22"
   width="22"
   y="0px"
   x="0px"
   id="Layer_1"
   version="1.1"><metadata
     id="metadata13"><rdf:RDF><cc:Work
         rdf:about=""><dc:format>image/svg+xml</dc:format><dc:type
           rdf:resource="http://purl.org/dc/dcmitype/StillImage" /><dc:title></dc:title></cc:Work></rdf:RDF></metadata><defs
     id="defs11" /><path
     id="path9-35"
     d="M 11.000001,2.6121684 1.1708986,19.958695 H 20.829102 Z M 9.7895001,7.6569123 h 2.4369019 v 2.7449937 c 0,0.827838 -0.03011,1.598249 -0.09143,2.313665 -0.06132,0.715415 -0.14427,1.442646 -0.246472,2.178502 H 10.141321 C 10.039119,14.158217 9.9524746,13.430986 9.8809336,12.715571 9.8196076,12.000155 9.7895042,11.229744 9.7895042,10.401906 Z m 1.2105009,8.0024197 c 0.367928,0 0.695749,0.122436 0.981916,0.367722 0.296386,0.245285 0.443254,0.593844 0.443254,1.043534 0,0.44969 -0.146868,0.796262 -0.443254,1.041548 -0.286167,0.245284 -0.613988,0.367721 -0.981916,0.367721 -0.367929,0 -0.699444,-0.122437 -0.995831,-0.367721 -0.286166,-0.245286 -0.4293403,-0.591858 -0.4293403,-1.041548 0,-0.44969 0.1431743,-0.798249 0.4293403,-1.043534 0.296387,-0.245286 0.627902,-0.367722 0.995831,-0.367722 z"
     style="opacity:1;vector-effect:none;fill:#000000;fill-opacity:0.29803922;stroke:none;stroke-width:0.99011236;stroke-linecap:square;stroke-linejoin:miter;stroke-miterlimit:4;stroke-dasharray:none;stroke-dashoffset:0;stroke-opacity:0.24705882" /><path
     id="path9"
     d="M 11.000001,2 1.1708985,19.346526 H 20.829102 Z M 9.7895,7.0447441 h 2.436902 V 9.789737 c 0,0.827839 -0.03011,1.598249 -0.09143,2.313665 -0.06132,0.715416 -0.14427,1.442646 -0.246472,2.178502 H 10.141321 C 10.039119,13.546048 9.9524746,12.818818 9.8809336,12.103402 9.8196122,11.387986 9.7895,10.617576 9.7895,9.789737 Z m 1.210501,8.0024189 c 0.367928,0 0.695749,0.122437 0.981916,0.367722 0.296386,0.245285 0.443254,0.593845 0.443254,1.043534 0,0.44969 -0.146868,0.796262 -0.443254,1.041548 -0.286167,0.245285 -0.613988,0.367721 -0.981916,0.367721 -0.367929,0 -0.699444,-0.122436 -0.995831,-0.367721 -0.2861664,-0.245286 -0.4293399,-0.591858 -0.4293399,-1.041548 0,-0.449689 0.1431735,-0.798249 0.4293399,-1.043534 0.296387,-0.245285 0.627902,-0.367722 0.995831,-0.367722 z"
     style="opacity:1;vector-effect:none;fill:#dfdbd2;fill-opacity:1;stroke:none;stroke-width:0.99011236;stroke-linecap:square;stroke-linejoin:miter;stroke-miterlimit:4;stroke-dasharray:none;stroke-dashoffset:0;stroke-opacity:0.24705882" /></svg>