<?xml version="1.0" encoding="UTF-8" standalone="no"?>
<svg
   xmlns:dc="http://purl.org/dc/elements/1.1/"
   xmlns:cc="http://creativecommons.org/ns#"
   xmlns:rdf="http://www.w3.org/1999/02/22-rdf-syntax-ns#"
   xmlns:svg="http://www.w3.org/2000/svg"
   xmlns="http://www.w3.org/2000/svg"
   xmlns:sodipodi="http://sodipodi.sourceforge.net/DTD/sodipodi-0.dtd"
   xmlns:inkscape="http://www.inkscape.org/namespaces/inkscape"
   inkscape:export-ydpi="90"
   inkscape:export-xdpi="90"
   inkscape:export-filename="/home/sladen/h2/keyboard/redraw-23x22.png"
   sodipodi:docname="ibus-keyboard.svg"
   inkscape:version="1.0alpha2 (ba7fb61f5a, 2019-08-31)"
   version="1.1"
   width="22"
   height="22"
   id="svg3014">
  <defs
     id="defs11" />
  <sodipodi:namedview
     inkscape:document-rotation="0"
     showguides="true"
     inkscape:current-layer="svg3014"
     inkscape:window-maximized="1"
     inkscape:window-y="30"
     inkscape:window-x="2560"
     inkscape:cy="9.0726186"
     inkscape:cx="16.682242"
     inkscape:zoom="15.170655"
     showgrid="false"
     id="namedview9"
     inkscape:window-height="1379"
     inkscape:window-width="2560"
     inkscape:pageshadow="2"
     inkscape:pageopacity="0"
     guidetolerance="10"
     gridtolerance="10000"
     objecttolerance="10"
     borderopacity="1"
     bordercolor="#666666"
     pagecolor="#ffffff">
    <inkscape:grid
       snapvisiblegridlinesonly="true"
       enabled="true"
       visible="true"
       empspacing="5"
       id="grid3007"
       type="xygrid" />
  </sodipodi:namedview>
  <metadata
     id="metadata3019">
    <rdf:RDF>
      <cc:Work
         rdf:about="">
        <dc:format>image/svg+xml</dc:format>
        <dc:type
           rdf:resource="http://purl.org/dc/dcmitype/StillImage" />
        <dc:title></dc:title>
      </cc:Work>
    </rdf:RDF>
  </metadata>
  <g
     transform="matrix(0.93617021,0,0,0.93617021,0.23404258,0.2419763)"
     id="g2559">
    <g
       id="g3951"
       transform="translate(23)">
      <path
         sodipodi:nodetypes="sssssssssssssssssssssssssssssssssssssssssssssssssssssssssssssssssssssssssssssssssssssssssssssssssssssssssssssssssssssssssssssssssssssss"
         style="color:#000000;display:inline;overflow:visible;visibility:visible;opacity:0.3;fill:none;stroke:#dfdbd2;stroke-width:0.5;stroke-linecap:round;stroke-linejoin:miter;stroke-miterlimit:4;stroke-dasharray:none;stroke-dashoffset:0;stroke-opacity:1;marker:none;enable-background:accumulate"
         d="m -21,5.2330507 c -1.108,0 -2,0.892 -2,2 v 8.0000013 c 0,1.108 0.892,2 2,2 h 19 c 1.108,0 2,-0.892 2,-2 V 7.2330507 c 0,-1.108 -0.892,-2 -2,-2 z m 1.5,1.7033747 h 1 c 0.276994,0 0.5,0.223 0.5,0.5 v 1.2966253 c 0,0.277 -0.223006,0.5 -0.5,0.5 h -1 c -0.276995,0 -0.5,-0.223 -0.5,-0.5 V 7.4364254 c 0,-0.277 0.223005,-0.5 0.5,-0.5 z m 3,0 h 1 c 0.276994,0 0.5,0.223 0.5,0.5 v 1.2966253 c 0,0.277 -0.223006,0.5 -0.5,0.5 h -1 c -0.276995,0 -0.5,-0.223 -0.5,-0.5 V 7.4364254 c 0,-0.277 0.223005,-0.5 0.5,-0.5 z m 3,0 h 1 c 0.276994,0 0.5,0.223 0.5,0.5 v 1.2966253 c 0,0.277 -0.223006,0.5 -0.5,0.5 h -1 c -0.276995,0 -0.5,-0.223 -0.5,-0.5 V 7.4364254 c 0,-0.277 0.223005,-0.5 0.5,-0.5 z m 3,0 h 1 c 0.2769944,0 0.5,0.223 0.5,0.5 v 1.2966253 c 0,0.277 -0.2230056,0.5 -0.5,0.5 h -1 c -0.276994,0 -0.5,-0.223 -0.5,-0.5 V 7.4364254 c 0,-0.277 0.223006,-0.5 0.5,-0.5 z m 3,0 h 1 c 0.2769944,0 0.5,0.223 0.5,0.5 v 1.2966253 c 0,0.277 -0.2230056,0.5 -0.5,0.5 h -1 c -0.2769945,0 -0.5,-0.223 -0.5,-0.5 V 7.4364254 c 0,-0.277 0.2230055,-0.5 0.5,-0.5 z m 3,0 h 1 c 0.2769945,0 0.5,0.223 0.5,0.5 v 1.2966253 c 0,0.277 -0.2230055,0.5 -0.5,0.5 h -1 c -0.2769944,0 -0.5,-0.223 -0.5,-0.5 V 7.4364254 c 0,-0.277 0.2230056,-0.5 0.5,-0.5 z m -15,3.0402707 h 2 c 0.276994,0 0.5,0.2229999 0.5,0.4999999 v 1.256356 c 0,0.277 -0.223006,0.5 -0.5,0.5 h -2 c -0.276994,0 -0.5,-0.223 -0.5,-0.5 v -1.256356 c 0,-0.277 0.223006,-0.4999999 0.5,-0.4999999 z m 4,0 h 1 c 0.276994,0 0.5,0.2229999 0.5,0.4999999 v 1.256356 c 0,0.277 -0.223006,0.5 -0.5,0.5 h -1 c -0.276995,0 -0.5,-0.223 -0.5,-0.5 v -1.256356 c 0,-0.277 0.223005,-0.4999999 0.5,-0.4999999 z m 3,0 h 1 c 0.276994,0 0.5,0.2229999 0.5,0.4999999 v 1.256356 c 0,0.277 -0.223006,0.5 -0.5,0.5 h -1 c -0.276995,0 -0.5,-0.223 -0.5,-0.5 v -1.256356 c 0,-0.277 0.223005,-0.4999999 0.5,-0.4999999 z m 3,0 h 1 c 0.2769944,0 0.5,0.2229999 0.5,0.4999999 v 1.256356 c 0,0.277 -0.2230056,0.5 -0.5,0.5 h -1 c -0.2769945,0 -0.5,-0.223 -0.5,-0.5 v -1.256356 c 0,-0.277 0.2230055,-0.4999999 0.5,-0.4999999 z m 3,0 h 3 c 0.2769945,0 0.5,0.2229999 0.5,0.4999999 v 1.256356 c 0,0.277 -0.2230055,0.5 -0.5,0.5 h -3 c -0.2769945,0 -0.5,-0.223 -0.5,-0.5 v -1.256356 c 0,-0.277 0.2230055,-0.4999999 0.5,-0.4999999 z m -13,2.9999999 h 1 c 0.276994,0 0.5,0.223 0.5,0.5 v 1.256356 c 0,0.277 -0.223006,0.5 -0.5,0.5 h -1 c -0.276995,0 -0.5,-0.223 -0.5,-0.5 v -1.256356 c 0,-0.277 0.223005,-0.5 0.5,-0.5 z m 3,0 h 10 c 0.2769945,0 0.5,0.223 0.5,0.5 v 1.256356 c 0,0.277 -0.2230055,0.5 -0.5,0.5 h -10 c -0.276995,0 -0.5,-0.223 -0.5,-0.5 v -1.256356 c 0,-0.277 0.223005,-0.5 0.5,-0.5 z m 12,0 h 1 c 0.2769945,0 0.5,0.223 0.5,0.5 v 1.256356 c 0,0.277 -0.2230055,0.5 -0.5,0.5 h -1 c -0.2769944,0 -0.5,-0.223 -0.5,-0.5 v -1.256356 c 0,-0.277 0.2230056,-0.5 0.5,-0.5 z"
         id="path3932"
         inkscape:connector-curvature="0" />
      <path
         sodipodi:nodetypes="sssssssssssssssssssssssssssssssssssssssssssssssssssssssssssssssssssssssssssssssssssssssssssssssssssssssssssssssssssssssssssssssssssssss"
         style="color:#000000;display:inline;overflow:visible;visibility:visible;opacity:0.3;fill:#000000;fill-opacity:1;fill-rule:nonzero;stroke-width:1;stroke-linecap:butt;stroke-linejoin:miter;stroke-miterlimit:4;stroke-dasharray:none;stroke-dashoffset:0;stroke-opacity:1;marker:none;enable-background:accumulate"
         d="m -21,6 c -1.108,0 -2,0.892 -2,2 v 8 c 0,1.108 0.892,2 2,2 h 19 c 1.108,0 2,-0.892 2,-2 V 8 C 0,6.892 -0.892,6 -2,6 Z m 1.5,0 h 1 c 0.276994,0 0.5,0.223 0.5,0.5 v 1 c 0,0.277 -0.223006,0.5 -0.5,0.5 h -1 C -19.776995,8 -20,7.777 -20,7.5 v -1 C -20,6.223 -19.776995,6 -19.5,6 Z m 3,0 h 1 c 0.276994,0 0.5,0.223 0.5,0.5 v 1 c 0,0.277 -0.223006,0.5 -0.5,0.5 h -1 C -16.776995,8 -17,7.777 -17,7.5 v -1 C -17,6.223 -16.776995,6 -16.5,6 Z m 3,0 h 1 c 0.276994,0 0.5,0.223 0.5,0.5 v 1 c 0,0.277 -0.223006,0.5 -0.5,0.5 h -1 C -13.776995,8 -14,7.777 -14,7.5 v -1 C -14,6.223 -13.776995,6 -13.5,6 Z m 3,0 h 1 C -9.2230056,6 -9,6.223 -9,6.5 v 1 C -9,7.777 -9.2230056,8 -9.5,8 h -1 C -10.776994,8 -11,7.777 -11,7.5 v -1 C -11,6.223 -10.776994,6 -10.5,6 Z m 3,0 h 1 C -6.2230056,6 -6,6.223 -6,6.5 v 1 C -6,7.777 -6.2230056,8 -6.5,8 h -1 C -7.7769945,8 -8,7.777 -8,7.5 v -1 C -8,6.223 -7.7769945,6 -7.5,6 Z m 3,0 h 1 C -3.2230055,6 -3,6.223 -3,6.5 v 1 C -3,7.777 -3.2230055,8 -3.5,8 h -1 C -4.7769944,8 -5,7.777 -5,7.5 v -1 C -5,6.223 -4.7769944,6 -4.5,6 Z m -15,3 h 2 c 0.276994,0 0.5,0.223 0.5,0.5 v 1 c 0,0.277 -0.223006,0.5 -0.5,0.5 h -2 c -0.276994,0 -0.5,-0.223 -0.5,-0.5 v -1 C -20,9.223 -19.776994,9 -19.5,9 Z m 4,0 h 1 c 0.276994,0 0.5,0.223 0.5,0.5 v 1 c 0,0.277 -0.223006,0.5 -0.5,0.5 h -1 c -0.276995,0 -0.5,-0.223 -0.5,-0.5 v -1 C -16,9.223 -15.776995,9 -15.5,9 Z m 3,0 h 1 c 0.276994,0 0.5,0.223 0.5,0.5 v 1 c 0,0.277 -0.223006,0.5 -0.5,0.5 h -1 c -0.276995,0 -0.5,-0.223 -0.5,-0.5 v -1 C -13,9.223 -12.776995,9 -12.5,9 Z m 3,0 h 1 C -8.2230056,9 -8,9.223 -8,9.5 v 1 c 0,0.277 -0.2230056,0.5 -0.5,0.5 h -1 C -9.7769945,11 -10,10.777 -10,10.5 v -1 C -10,9.223 -9.7769945,9 -9.5,9 Z m 3,0 h 3 C -3.2230055,9 -3,9.223 -3,9.5 v 1 c 0,0.277 -0.2230055,0.5 -0.5,0.5 h -3 C -6.7769945,11 -7,10.777 -7,10.5 v -1 C -7,9.223 -6.7769945,9 -6.5,9 Z m -13,3 h 1 c 0.276994,0 0.5,0.223 0.5,0.5 v 1 c 0,0.277 -0.223006,0.5 -0.5,0.5 h -1 c -0.276995,0 -0.5,-0.223 -0.5,-0.5 v -1 c 0,-0.277 0.223005,-0.5 0.5,-0.5 z m 3,0 h 10 c 0.2769945,0 0.5,0.223 0.5,0.5 v 1 c 0,0.277 -0.2230055,0.5 -0.5,0.5 h -10 c -0.276995,0 -0.5,-0.223 -0.5,-0.5 v -1 c 0,-0.277 0.223005,-0.5 0.5,-0.5 z m 12,0 h 1 c 0.2769945,0 0.5,0.223 0.5,0.5 v 1 c 0,0.277 -0.2230055,0.5 -0.5,0.5 h -1 C -4.7769944,14 -5,13.777 -5,13.5 v -1 C -5,12.223 -4.7769944,12 -4.5,12 Z"
         id="path3101"
         inkscape:connector-curvature="0" />
      <path
         inkscape:connector-curvature="0"
         id="path3081"
         d="m -21,5 c -1.108,0 -2,0.892 -2,2 v 8 c 0,1.108 0.892,2 2,2 h 19 c 1.108,0 2,-0.892 2,-2 V 7 C 0,5.892 -0.892,5 -2,5 Z m 1.5,2 h 1 c 0.276994,0 0.5,0.223 0.5,0.5 v 1 c 0,0.277 -0.223006,0.5 -0.5,0.5 h -1 C -19.776995,9 -20,8.777 -20,8.5 v -1 C -20,7.223 -19.776995,7 -19.5,7 Z m 3,0 h 1 c 0.276994,0 0.5,0.223 0.5,0.5 v 1 c 0,0.277 -0.223006,0.5 -0.5,0.5 h -1 C -16.776995,9 -17,8.777 -17,8.5 v -1 C -17,7.223 -16.776995,7 -16.5,7 Z m 3,0 h 1 c 0.276994,0 0.5,0.223 0.5,0.5 v 1 c 0,0.277 -0.223006,0.5 -0.5,0.5 h -1 C -13.776995,9 -14,8.777 -14,8.5 v -1 C -14,7.223 -13.776995,7 -13.5,7 Z m 3,0 h 1 C -9.2230056,7 -9,7.223 -9,7.5 v 1 C -9,8.777 -9.2230056,9 -9.5,9 h -1 C -10.776994,9 -11,8.777 -11,8.5 v -1 C -11,7.223 -10.776994,7 -10.5,7 Z m 3,0 h 1 C -6.2230056,7 -6,7.223 -6,7.5 v 1 C -6,8.777 -6.2230056,9 -6.5,9 h -1 C -7.7769945,9 -8,8.777 -8,8.5 v -1 C -8,7.223 -7.7769945,7 -7.5,7 Z m 3,0 h 1 C -3.2230055,7 -3,7.223 -3,7.5 v 1 C -3,8.777 -3.2230055,9 -3.5,9 h -1 C -4.7769944,9 -5,8.777 -5,8.5 v -1 C -5,7.223 -4.7769944,7 -4.5,7 Z m -15,3 h 2 c 0.276994,0 0.5,0.223 0.5,0.5 v 1 c 0,0.277 -0.223006,0.5 -0.5,0.5 h -2 c -0.276994,0 -0.5,-0.223 -0.5,-0.5 v -1 c 0,-0.277 0.223006,-0.5 0.5,-0.5 z m 4,0 h 1 c 0.276994,0 0.5,0.223 0.5,0.5 v 1 c 0,0.277 -0.223006,0.5 -0.5,0.5 h -1 c -0.276995,0 -0.5,-0.223 -0.5,-0.5 v -1 c 0,-0.277 0.223005,-0.5 0.5,-0.5 z m 3,0 h 1 c 0.276994,0 0.5,0.223 0.5,0.5 v 1 c 0,0.277 -0.223006,0.5 -0.5,0.5 h -1 c -0.276995,0 -0.5,-0.223 -0.5,-0.5 v -1 c 0,-0.277 0.223005,-0.5 0.5,-0.5 z m 3,0 h 1 c 0.2769944,0 0.5,0.223 0.5,0.5 v 1 c 0,0.277 -0.2230056,0.5 -0.5,0.5 h -1 C -9.7769945,12 -10,11.777 -10,11.5 v -1 c 0,-0.277 0.2230055,-0.5 0.5,-0.5 z m 3,0 h 3 c 0.2769945,0 0.5,0.223 0.5,0.5 v 1 c 0,0.277 -0.2230055,0.5 -0.5,0.5 h -3 C -6.7769945,12 -7,11.777 -7,11.5 v -1 C -7,10.223 -6.7769945,10 -6.5,10 Z m -13,3 h 1 c 0.276994,0 0.5,0.223 0.5,0.5 v 1 c 0,0.277 -0.223006,0.5 -0.5,0.5 h -1 c -0.276995,0 -0.5,-0.223 -0.5,-0.5 v -1 c 0,-0.277 0.223005,-0.5 0.5,-0.5 z m 3,0 h 10 c 0.2769945,0 0.5,0.223 0.5,0.5 v 1 c 0,0.277 -0.2230055,0.5 -0.5,0.5 h -10 c -0.276995,0 -0.5,-0.223 -0.5,-0.5 v -1 c 0,-0.277 0.223005,-0.5 0.5,-0.5 z m 12,0 h 1 c 0.2769945,0 0.5,0.223 0.5,0.5 v 1 c 0,0.277 -0.2230055,0.5 -0.5,0.5 h -1 C -4.7769944,15 -5,14.777 -5,14.5 v -1 C -5,13.223 -4.7769944,13 -4.5,13 Z"
         style="fill:#dfdbd2" />
    </g>
  </g>
</svg>
