<?xml version="1.0" encoding="UTF-8" standalone="no"?>
<svg
   xmlns:dc="http://purl.org/dc/elements/1.1/"
   xmlns:cc="http://creativecommons.org/ns#"
   xmlns:rdf="http://www.w3.org/1999/02/22-rdf-syntax-ns#"
   xmlns:svg="http://www.w3.org/2000/svg"
   xmlns="http://www.w3.org/2000/svg"
   xmlns:sodipodi="http://sodipodi.sourceforge.net/DTD/sodipodi-0.dtd"
   xmlns:inkscape="http://www.inkscape.org/namespaces/inkscape"
   inkscape:version="1.0alpha2 (088d3e67ab, 2019-08-30)"
   height="22"
   width="22"
   sodipodi:docname="indicator-notification-unread.svg"
   xml:space="preserve"
   viewBox="0 0 21.999999 22"
   y="0px"
   x="0px"
   id="Capa_1"
   version="1.1"><metadata
   id="metadata98">
  <rdf:RDF>
    <cc:Work
       rdf:about="">
      <dc:format>image/svg+xml</dc:format>
      <dc:type
         rdf:resource="http://purl.org/dc/dcmitype/StillImage" />
      <dc:title></dc:title>
    </cc:Work>
  </rdf:RDF>
</metadata>
<defs
   id="defs96" />
<sodipodi:namedview
   inkscape:current-layer="Capa_1"
   inkscape:window-maximized="0"
   inkscape:window-y="30"
   inkscape:window-x="2560"
   inkscape:cy="9.7745077"
   inkscape:cx="10.000073"
   inkscape:zoom="22.627417"
   fit-margin-bottom="0"
   fit-margin-right="0"
   fit-margin-left="0"
   fit-margin-top="0"
   showgrid="false"
   id="namedview94"
   inkscape:window-height="1378"
   inkscape:window-width="1278"
   inkscape:pageshadow="2"
   inkscape:pageopacity="0"
   guidetolerance="10"
   gridtolerance="10"
   objecttolerance="10"
   borderopacity="1"
   inkscape:document-rotation="0"
   bordercolor="#666666"
   pagecolor="#ffffff" />

<g
   transform="matrix(0.04699279,0,0,0.04699279,0.99993429,0.99993429)"
   style="fill:#dfdbd2;fill-opacity:1"
   id="g61">
	<g
   style="fill:#dfdbd2;fill-opacity:1"
   id="g59">
		<g
   style="fill:#dfdbd2;fill-opacity:1"
   id="g57">
			<path
   inkscape:connector-curvature="0"
   style="fill:#dfdbd2;fill-opacity:1"
   id="path49"
   d="M 382.933,175.467 H 425.6 C 422.4,107.093 388.693,46.933 337.6,8 l -30.4,30.4 c 43.307,31.04 72.427,80.533 75.733,137.067 z" />

			<path
   inkscape:connector-curvature="0"
   style="fill:#dfdbd2;fill-opacity:1"
   id="path51"
   d="M 118.507,38.507 88,8 C 36.907,46.933 3.2,107.093 0,175.467 H 42.667 C 45.973,118.933 75.093,69.44 118.507,38.507 Z" />

			<path
   inkscape:connector-curvature="0"
   style="fill:#dfdbd2;fill-opacity:1"
   id="path53"
   d="m 340.8,186.133 c 0,-65.6 -34.88,-120.32 -96,-134.827 V 36.8 c 0,-17.707 -14.293,-32 -32,-32 -17.707,0 -32,14.293 -32,32 v 14.507 c -61.12,14.507 -96,69.227 -96,134.827 V 292.8 L 42.133,335.467 V 356.8 H 383.466 V 335.467 L 340.8,292.8 Z" />

			<path
   inkscape:connector-curvature="0"
   style="fill:#dfdbd2;fill-opacity:1"
   id="path55"
   d="m 212.8,420.8 v 0 c 2.987,0 5.867,-0.32 8.64,-0.853 13.867,-2.88 25.28,-12.48 30.72,-25.173 2.133,-5.12 3.307,-10.667 3.307,-16.64 h -85.333 c -10e-4,23.573 19.093,42.666 42.666,42.666 z" />

		</g>

	</g>

</g>

<g
   transform="translate(-202.79993,-203.0255)"
   id="g63">
</g>

<g
   transform="translate(-202.79993,-203.0255)"
   id="g65">
</g>

<g
   transform="translate(-202.79993,-203.0255)"
   id="g67">
</g>

<g
   transform="translate(-202.79993,-203.0255)"
   id="g69">
</g>

<g
   transform="translate(-202.79993,-203.0255)"
   id="g71">
</g>

<g
   transform="translate(-202.79993,-203.0255)"
   id="g73">
</g>

<g
   transform="translate(-202.79993,-203.0255)"
   id="g75">
</g>

<g
   transform="translate(-202.79993,-203.0255)"
   id="g77">
</g>

<g
   transform="translate(-202.79993,-203.0255)"
   id="g79">
</g>

<g
   transform="translate(-202.79993,-203.0255)"
   id="g81">
</g>

<g
   transform="translate(-202.79993,-203.0255)"
   id="g83">
</g>

<g
   transform="translate(-202.79993,-203.0255)"
   id="g85">
</g>

<g
   transform="translate(-202.79993,-203.0255)"
   id="g87">
</g>

<g
   transform="translate(-202.79993,-203.0255)"
   id="g89">
</g>

<g
   transform="translate(-202.79993,-203.0255)"
   id="g91">
</g>

</svg>
