<?xml version="1.0" encoding="UTF-8" standalone="no"?>
<svg
   xmlns:dc="http://purl.org/dc/elements/1.1/"
   xmlns:cc="http://creativecommons.org/ns#"
   xmlns:rdf="http://www.w3.org/1999/02/22-rdf-syntax-ns#"
   xmlns:svg="http://www.w3.org/2000/svg"
   xmlns="http://www.w3.org/2000/svg"
   xmlns:sodipodi="http://sodipodi.sourceforge.net/DTD/sodipodi-0.dtd"
   xmlns:inkscape="http://www.inkscape.org/namespaces/inkscape"
   version="1.1"
   id="Capa_1"
   x="0px"
   y="0px"
   viewBox="0 0 22 22"
   xml:space="preserve"
   sodipodi:docname="indicator-notification-read-dnd.svg"
   width="22"
   height="22"
   inkscape:version="1.0alpha2 (ba7fb61f5a, 2019-08-31)"><metadata
   id="metadata47">
  <rdf:RDF>
    <cc:Work
   rdf:about="">
      <dc:format>image/svg+xml</dc:format>

      <dc:type
   rdf:resource="http://purl.org/dc/dcmitype/StillImage" />

      <dc:title></dc:title>

    </cc:Work>

  </rdf:RDF>

</metadata>

<defs
   id="defs45" />

<sodipodi:namedview
   pagecolor="#ffffff"
   bordercolor="#666666"
   inkscape:document-rotation="0"
   borderopacity="1"
   objecttolerance="10"
   gridtolerance="10"
   guidetolerance="10"
   inkscape:pageopacity="0"
   inkscape:pageshadow="2"
   inkscape:window-width="1278"
   inkscape:window-height="1378"
   id="namedview43"
   showgrid="false"
   fit-margin-top="0"
   fit-margin-left="0"
   fit-margin-right="0"
   fit-margin-bottom="0"
   inkscape:zoom="16"
   inkscape:cx="9.4351348"
   inkscape:cy="11"
   inkscape:window-x="2560"
   inkscape:window-y="30"
   inkscape:window-maximized="0"
   inkscape:current-layer="Capa_1" />


<g
   id="g10"
   transform="matrix(0.04807692,0,0,0.04807692,1.0000247,1.0000006)"
   style="fill:#dfdbd2;fill-opacity:1">
	<g
   id="g8"
   style="fill:#dfdbd2;fill-opacity:1">
		<g
   id="g6"
   style="fill:#dfdbd2;fill-opacity:1">
			<path
   d="m 208,416 c 23.573,0 42.667,-19.093 42.667,-42.667 H 165.334 C 165.333,396.907 184.427,416 208,416 Z"
   id="path2"
   inkscape:connector-curvature="0"
   style="fill:#dfdbd2;fill-opacity:1" />


			<path
   d="M 336,288 V 181.333 c 0,-65.6 -34.88,-120.32 -96,-134.827 V 32 C 240,14.293 225.707,0 208,0 190.293,0 176,14.293 176,32 V 46.507 C 114.88,61.014 80,115.734 80,181.334 V 288 L 37.333,330.667 V 352 H 378.666 V 330.667 Z M 261.333,155.733 201.6,228.267 h 59.733 v 38.4 H 154.667 v -38.4 L 214.4,155.734 h -59.733 v -38.4 h 106.667 v 38.399 z"
   id="path4"
   inkscape:connector-curvature="0"
   style="fill:#dfdbd2;fill-opacity:1" />


		</g>


	</g>


</g>


<g
   id="g12"
   transform="translate(-198.97387,-197)">
</g>


<g
   id="g14"
   transform="translate(-198.97387,-197)">
</g>


<g
   id="g16"
   transform="translate(-198.97387,-197)">
</g>


<g
   id="g18"
   transform="translate(-198.97387,-197)">
</g>


<g
   id="g20"
   transform="translate(-198.97387,-197)">
</g>


<g
   id="g22"
   transform="translate(-198.97387,-197)">
</g>


<g
   id="g24"
   transform="translate(-198.97387,-197)">
</g>


<g
   id="g26"
   transform="translate(-198.97387,-197)">
</g>


<g
   id="g28"
   transform="translate(-198.97387,-197)">
</g>


<g
   id="g30"
   transform="translate(-198.97387,-197)">
</g>


<g
   id="g32"
   transform="translate(-198.97387,-197)">
</g>


<g
   id="g34"
   transform="translate(-198.97387,-197)">
</g>


<g
   id="g36"
   transform="translate(-198.97387,-197)">
</g>


<g
   id="g38"
   transform="translate(-198.97387,-197)">
</g>


<g
   id="g40"
   transform="translate(-198.97387,-197)">
</g>


</svg>
