<?xml version="1.0" encoding="UTF-8" standalone="no"?>
<svg
   xmlns:dc="http://purl.org/dc/elements/1.1/"
   xmlns:cc="http://creativecommons.org/ns#"
   xmlns:rdf="http://www.w3.org/1999/02/22-rdf-syntax-ns#"
   xmlns:svg="http://www.w3.org/2000/svg"
   xmlns="http://www.w3.org/2000/svg"
   xmlns:sodipodi="http://sodipodi.sourceforge.net/DTD/sodipodi-0.dtd"
   xmlns:inkscape="http://www.inkscape.org/namespaces/inkscape"
   version="1.1"
   id="Capa_1"
   x="0px"
   y="0px"
   viewBox="0 0 22 21.999999"
   xml:space="preserve"
   sodipodi:docname="indicator-notification-unread.svg"
   width="22"
   height="22"
   inkscape:version="1.0alpha2 (0e866e7627, 2019-09-03)"><metadata
   id="metadata98">
  <rdf:RDF>
    <cc:Work
   rdf:about="">
      <dc:format>image/svg+xml</dc:format>



      <dc:type
   rdf:resource="http://purl.org/dc/dcmitype/StillImage" />



      <dc:title />



    </cc:Work>



  </rdf:RDF>



</metadata>



<defs
   id="defs96" />



<sodipodi:namedview
   pagecolor="#ffffff"
   bordercolor="#666666"
   inkscape:document-rotation="0"
   borderopacity="1"
   objecttolerance="10"
   gridtolerance="10"
   guidetolerance="10"
   inkscape:pageopacity="0"
   inkscape:pageshadow="2"
   inkscape:window-width="1278"
   inkscape:window-height="1016"
   id="namedview94"
   showgrid="false"
   fit-margin-top="0"
   fit-margin-left="0"
   fit-margin-right="0"
   fit-margin-bottom="0"
   inkscape:zoom="16"
   inkscape:cx="-10.6875"
   inkscape:cy="11.729502"
   inkscape:window-x="642"
   inkscape:window-y="27"
   inkscape:window-maximized="0"
   inkscape:current-layer="Capa_1" />


































































<g
   transform="matrix(0.9,0,0,0.9,1.1,1.0999999)"
   id="g375">
  <g
     transform="translate(-200.79982,-201.0705)"
     id="g63">
</g>
  <g
     transform="translate(-200.79982,-201.0705)"
     id="g65">
</g>
  <g
     transform="translate(-200.79982,-201.0705)"
     id="g67">
</g>
  <g
     transform="translate(-200.79982,-201.0705)"
     id="g69">
</g>
  <g
     transform="translate(-200.79982,-201.0705)"
     id="g71">
</g>
  <g
     transform="translate(-200.79982,-201.0705)"
     id="g73">
</g>
  <g
     transform="translate(-200.79982,-201.0705)"
     id="g75">
</g>
  <g
     transform="translate(-200.79982,-201.0705)"
     id="g77">
</g>
  <g
     transform="translate(-200.79982,-201.0705)"
     id="g79">
</g>
  <g
     transform="translate(-200.79982,-201.0705)"
     id="g81">
</g>
  <g
     transform="translate(-200.79982,-201.0705)"
     id="g83">
</g>
  <g
     transform="translate(-200.79982,-201.0705)"
     id="g85">
</g>
  <g
     transform="translate(-200.79982,-201.0705)"
     id="g87">
</g>
  <g
     transform="translate(-200.79982,-201.0705)"
     id="g89">
</g>
  <g
     transform="translate(-200.79982,-201.0705)"
     id="g91">
</g>
  <g
     id="g1528"
     transform="matrix(0.83333334,0,0,0.83333334,1.0000001,0.99999992)">
  <g
   id="g61"
   style="fill:#dfdbd2;fill-opacity:1"
   transform="matrix(0.05639183,0,0,0.05639183,-1.81424e-4,-1.81424e-4)">
	<g
   id="g59"
   style="fill:#dfdbd2;fill-opacity:1">
		<g
   id="g57"
   style="fill:#dfdbd2;fill-opacity:1">
			<path
   d="m 19.037109,0.45117188 -1.71289,1.71484372 c 2.442161,1.7504024 4.0831,4.54046 4.269531,7.7285156 H 24 C 23.819546,6.0387964 21.918337,2.646675 19.037109,0.45117188 Z"
   transform="matrix(17.733065,0,0,17.733065,0.0032172,0.0032172)"
   style="fill:#dfdbd2;fill-opacity:1;stroke-width:0.0563918"
   id="path49"
   inkscape:connector-curvature="0" />




			<path
   d="M 4.9628906,0.45117188 C 2.0816629,2.646675 0.18045386,6.0387963 0,9.8945312 H 2.40625 C 2.5926814,6.7064755 4.2353988,3.9162435 6.6835938,2.171875 Z"
   transform="matrix(17.733065,0,0,17.733065,0.0032172,0.0032172)"
   style="fill:#dfdbd2;fill-opacity:1;stroke-width:0.0563918"
   id="path51"
   inkscape:connector-curvature="0" />




			<path
   d="m 9.6582031,6.9785156 c -0.00226,0.00632 -0.00559,0.017723 -0.00781,0.023437 0.00328,-5.8e-4 0.00647,-0.00135 0.00976,-0.00195 -2.031e-4,-0.00787 -0.00166,-0.012303 -0.00195,-0.021484 z M 5.78125,7.5878906 c -0.00744,0.00638 -0.018077,0.015624 -0.013672,0.011719 0.00545,-0.00482 0.00849,-0.00507 0.013672,-0.00977 z m 10.865234,0.023437 c -0.0225,-0.00279 -0.04566,8.061e-4 -0.06836,0.00195 0.01701,0.00535 0.03446,0.0098 0.05078,0.015625 0.0048,-2.2e-5 0.0069,-3.782e-4 0.0098,-0.00195 0.0055,-0.00298 0.01404,-0.01486 0.0078,-0.015625 z M 19.460938,17.70703 c -0.01229,0.0067 -0.02482,0.01285 -0.03711,0.01953 -0.0027,0.0026 -0.0049,0.0058 -0.0078,0.0078 -0.0039,0.0049 -0.0027,0.0087 -0.0059,0.01172 -0.0015,0.0014 4.99e-4,-0.0044 0,-0.0059 -0.0023,0.0012 -0.0034,0.0051 -0.0059,0.0059 -1.85e-4,0.0047 -0.0016,0.0091 -0.002,0.01367 0.01999,-0.01635 0.03914,-0.03592 0.05859,-0.05273 z m -4.525391,0.21875 c 0.0049,0.04378 0.0091,0.08678 -0.0039,0.113281 0.01758,-0.0028 0.03515,-0.0051 0.05273,-0.0078 -0.006,-0.02547 -0.02304,-0.04848 -0.02539,-0.07422 -9.5e-4,-0.01039 0.0035,-0.02087 0.0039,-0.03125 -0.0094,-7e-6 -0.01859,1.2e-5 -0.02734,0 z m 0.03906,0.0039 c -0.01483,-0.01761 0.02735,0.03617 0.04102,0.05469 -0.01222,-0.01461 -0.0097,-0.02093 -0.01953,-0.0332 -0.0067,-0.008 -0.01474,-0.01355 -0.02149,-0.02148 z"
   transform="matrix(17.733065,0,0,17.733065,0.0032172,0.0032172)"
   style="fill:#dfdbd2;fill-opacity:1;stroke-width:0.0563918"
   id="path53"
   inkscape:connector-curvature="0" />




			<path
   d="m 13.554688,23.150391 c 0.0018,-8.91e-4 -0.03902,0.0064 -0.03906,0.0059 -0.0032,0.01252 -0.0069,0.02429 -0.0078,0.03906 0.01695,-0.01366 0.03162,-0.02961 0.04688,-0.04492 z"
   transform="matrix(17.733065,0,0,17.733065,0.0032172,0.0032172)"
   style="fill:#dfdbd2;fill-opacity:1;stroke-width:0.0563918"
   id="path55"
   inkscape:connector-curvature="0" />




		</g>




	</g>




</g>


  <g
   transform="matrix(0.05769146,0,0,0.05769146,2.0516573e-4,1.7632e-4)"
   style="fill:#dfdbd2;fill-opacity:1"
   id="g10">
    <g
   style="fill:#dfdbd2;fill-opacity:1"
   id="g8">
      <g
   style="fill:#dfdbd2;fill-opacity:1"
   id="g6">
        <path
   inkscape:connector-curvature="0"
   style="fill:#dfdbd2;fill-opacity:1"
   id="path2"
   d="m 208,416 c 23.573,0 42.667,-19.093 42.667,-42.667 H 165.334 C 165.333,396.907 184.427,416 208,416 Z" />


        <path
   inkscape:connector-curvature="0"
   style="fill:#dfdbd2;fill-opacity:1"
   id="path4"
   d="M 336,288 V 181.333 c 0,-65.6 -34.88,-120.32 -96,-134.827 V 32 C 240,14.293 225.707,0 208,0 190.293,0 176,14.293 176,32 V 46.507 C 114.88,61.014 80,115.734 80,181.334 V 288 L 37.333,330.667 V 352 h 341.333 v -21.333 z" />


      </g>


    </g>


  </g>


</g>
</g>


</svg>
