<?xml version="1.0" encoding="UTF-8" standalone="no"?>
<svg
   xmlns:dc="http://purl.org/dc/elements/1.1/"
   xmlns:cc="http://creativecommons.org/ns#"
   xmlns:rdf="http://www.w3.org/1999/02/22-rdf-syntax-ns#"
   xmlns:svg="http://www.w3.org/2000/svg"
   xmlns="http://www.w3.org/2000/svg"
   xmlns:sodipodi="http://sodipodi.sourceforge.net/DTD/sodipodi-0.dtd"
   xmlns:inkscape="http://www.inkscape.org/namespaces/inkscape"
   inkscape:version="1.0alpha2 (ba7fb61f5a, 2019-08-31)"
   sodipodi:docname="nm-adhoc.svg"
   id="svg3294"
   height="22"
   width="22"
   version="1.0">
  <sodipodi:namedview
     inkscape:current-layer="svg3294"
     inkscape:window-maximized="1"
     inkscape:window-y="30"
     inkscape:window-x="0"
     inkscape:cy="11"
     inkscape:cx="10"
     inkscape:zoom="44"
     showgrid="false"
     id="namedview9"
     inkscape:window-height="1379"
     inkscape:window-width="2560"
     inkscape:pageshadow="2"
     inkscape:pageopacity="0"
     guidetolerance="10"
     gridtolerance="10"
     objecttolerance="10"
     borderopacity="1"
     inkscape:document-rotation="0"
     bordercolor="#666666"
     pagecolor="#ffffff" />
  <metadata
     id="metadata15">
    <rdf:RDF>
      <cc:Work
         rdf:about="">
        <dc:format>image/svg+xml</dc:format>
        <dc:type
           rdf:resource="http://purl.org/dc/dcmitype/StillImage" />
        <dc:title></dc:title>
      </cc:Work>
    </rdf:RDF>
  </metadata>
  <defs
     id="defs3296" />
  <g
     transform="translate(1,-0.5)"
     id="g838">
    <path
       inkscape:connector-curvature="0"
       d="m 7.5026178,10.934554 c 0,0 0.4973822,-0.9999991 2.4973822,-0.9999991 2,0 2.497382,1.0418841 2.497382,1.0418841 M 6,9.4424083 c 0,0 0.9817579,-1.5499929 4,-1.5078534 3.018242,0.04214 4,1.5078534 4,1.5078534 M 9.434555,12.5 c 0,0 -0.02094,-0.565445 0.565445,-0.565445 0.576517,0 0.481675,0.565445 0.481675,0.565445"
       id="path3445-6"
       style="opacity:0.3;fill:none;stroke:#000000;stroke-width:1px;stroke-linecap:round;stroke-linejoin:miter;stroke-opacity:1" />
    <path
       inkscape:connector-curvature="0"
       d="M 3,4 C 2.446,4 2,4.4893865 2,5.09375 v 9.8125 C 2,15.510614 2.446,16 3,16 h 14 c 0.554,0 1,-0.489386 1,-1.09375 V 5.09375 C 18,4.4893863 17.554,4 17,4 Z m 1,2 h 12 v 8 H 4 Z m 3,11 v 1 H 5 v 2 h 10 v -2 h -2 v -1 z"
       id="rect2722-3"
       style="display:inline;overflow:visible;visibility:visible;opacity:0.3;fill:#000000;fill-opacity:1;fill-rule:nonzero;stroke:none;stroke-width:1;marker:none;enable-background:accumulate" />
    <path
       inkscape:connector-curvature="0"
       d="M 3,3 C 2.446,3 2,3.4893865 2,4.09375 v 9.8125 C 2,14.510614 2.446,15 3,15 h 14 c 0.554,0 1,-0.489386 1,-1.09375 V 4.09375 C 18,3.4893863 17.554,3 17,3 Z m 1,2 h 12 v 8 H 4 Z m 3,11 v 1 H 5 v 2 h 10 v -2 h -2 v -1 z"
       id="rect2722"
       style="display:inline;overflow:visible;visibility:visible;fill:#dfdbd2;fill-opacity:1;fill-rule:nonzero;stroke:none;stroke-width:1;marker:none;enable-background:accumulate" />
    <path
       inkscape:connector-curvature="0"
       d="m 7.5026178,9.9999989 c 0,0 0.4973822,-0.999999 2.4973822,-0.999999 2,0 2.497382,1.0418841 2.497382,1.0418841 M 6,8.5078533 c 0,0 0.9817579,-1.5499929 4,-1.5078534 3.018242,0.04214 4,1.5078534 4,1.5078534 M 9.434555,11.565445 C 9.434555,11.565445 9.413613,11 10,11 c 0.576517,0 0.481675,0.565445 0.481675,0.565445"
       id="path3445"
       style="fill:none;stroke:#dfdbd2;stroke-width:1px;stroke-linecap:round;stroke-linejoin:miter;stroke-opacity:1" />
  </g>
</svg>
