<?xml version="1.0" encoding="UTF-8" standalone="no"?>
<svg
   xmlns:dc="http://purl.org/dc/elements/1.1/"
   xmlns:cc="http://creativecommons.org/ns#"
   xmlns:rdf="http://www.w3.org/1999/02/22-rdf-syntax-ns#"
   xmlns:svg="http://www.w3.org/2000/svg"
   xmlns="http://www.w3.org/2000/svg"
   xmlns:sodipodi="http://sodipodi.sourceforge.net/DTD/sodipodi-0.dtd"
   xmlns:inkscape="http://www.inkscape.org/namespaces/inkscape"
   inkscape:version="1.0alpha2 (ba7fb61f5a, 2019-08-31)"
   sodipodi:docname="nm-vpn-standalone-lock.svg"
   id="svg3340"
   height="22"
   width="22"
   version="1.0">
  <sodipodi:namedview
     inkscape:current-layer="svg3340"
     inkscape:window-maximized="1"
     inkscape:window-y="28"
     inkscape:window-x="0"
     inkscape:cy="11"
     inkscape:cx="9"
     inkscape:zoom="44"
     showgrid="false"
     id="namedview8"
     inkscape:window-height="1381"
     inkscape:window-width="2560"
     inkscape:pageshadow="2"
     inkscape:pageopacity="0"
     guidetolerance="10"
     gridtolerance="10"
     objecttolerance="10"
     borderopacity="1"
     inkscape:document-rotation="0"
     bordercolor="#666666"
     pagecolor="#ffffff" />
  <metadata
     id="metadata10">
    <rdf:RDF>
      <cc:Work
         rdf:about="">
        <dc:format>image/svg+xml</dc:format>
        <dc:type
           rdf:resource="http://purl.org/dc/dcmitype/StillImage" />
        <dc:title></dc:title>
      </cc:Work>
    </rdf:RDF>
  </metadata>
  <defs
     id="defs3342" />
  <g
     transform="translate(2)"
     id="g836">
    <path
       inkscape:connector-curvature="0"
       d="M 7.9999997,3 C 5.784,3 4,4.784 4,7 v 3 H 3 c -0.554,0 -1,0.446 -1,1 v 9 c 0,0.554 0.446,1 1,1 h 12 c 0.554,0 1,-0.446 1,-1 v -9 c 0,-0.554 -0.446,-1 -1,-1 H 14 V 7 C 14,4.784 12.216,3 9.9999997,3 Z m 0,2 h 2 C 11.108,5 12,5.892 12,7 v 3 H 6 V 7 C 6,5.892 6.892,5 7.9999997,5 Z"
       id="rect2822-7"
       style="display:inline;overflow:visible;visibility:visible;opacity:0.3;fill:#000000;fill-opacity:1;fill-rule:evenodd;stroke:none;stroke-width:1.7;marker:none;enable-background:accumulate" />
    <path
       inkscape:connector-curvature="0"
       d="M 7.9999997,1.9830526 C 5.784,1.9830526 4,3.7670526 4,5.9830526 v 3 H 3 c -0.554,0 -1,0.446 -1,1 v 9.0000004 c 0,0.554 0.446,1 1,1 h 12 c 0.554,0 1,-0.446 1,-1 V 9.9830526 c 0,-0.554 -0.446,-1 -1,-1 h -1 v -3 c 0,-2.216 -1.784,-4 -4.0000003,-4 z m 0,2 h 2 c 1.1080003,0 2.0000003,0.892 2.0000003,2 v 3 H 6 v -3 c 0,-1.108 0.892,-2 1.9999997,-2 z"
       id="rect2822"
       style="display:inline;overflow:visible;visibility:visible;fill:#dfdbd2;fill-opacity:1;fill-rule:evenodd;stroke:none;stroke-width:1.7;marker:none;enable-background:accumulate" />
    <path
       inkscape:connector-curvature="0"
       d="m 7.9999997,4.2018026 c 0.844149,0.030316 1.701715,-0.073098 2.5340883,0.079067 0.905603,0.2439946 1.347367,1.2115035 1.247162,2.088098 0,0.7984452 0,1.5968903 0,2.3953355 -1.8541673,0 -3.7083333,0 -5.5625,0 C 6.2375632,7.7168658 6.1780822,6.6645495 6.2544528,5.620668 6.4025451,4.8054811 7.173141,4.1842328 7.9999997,4.2018026 Z"
       id="path3337"
       style="opacity:0.3;fill:none;stroke:#ffffff;stroke-width:0.5;stroke-miterlimit:4;stroke-dasharray:none;stroke-opacity:1" />
  </g>
</svg>
