<?xml version="1.0" encoding="UTF-8" standalone="no"?>
<svg
   xmlns:dc="http://purl.org/dc/elements/1.1/"
   xmlns:cc="http://creativecommons.org/ns#"
   xmlns:rdf="http://www.w3.org/1999/02/22-rdf-syntax-ns#"
   xmlns:svg="http://www.w3.org/2000/svg"
   xmlns="http://www.w3.org/2000/svg"
   xmlns:sodipodi="http://sodipodi.sourceforge.net/DTD/sodipodi-0.dtd"
   xmlns:inkscape="http://www.inkscape.org/namespaces/inkscape"
   inkscape:version="1.0alpha2 (ba7fb61f5a, 2019-08-31)"
   sodipodi:docname="im-message-new.svg"
   id="svg3795"
   height="22"
   width="22"
   version="1.1">
  <sodipodi:namedview
     inkscape:current-layer="svg3795"
     inkscape:window-maximized="1"
     inkscape:window-y="28"
     inkscape:window-x="0"
     inkscape:cy="11"
     inkscape:cx="10"
     inkscape:zoom="44"
     showgrid="false"
     id="namedview1408"
     inkscape:window-height="1381"
     inkscape:window-width="2560"
     inkscape:pageshadow="2"
     inkscape:pageopacity="0"
     guidetolerance="10"
     gridtolerance="10"
     objecttolerance="10"
     borderopacity="1"
     inkscape:document-rotation="0"
     bordercolor="#666666"
     pagecolor="#ffffff" />
  <defs
     id="defs3797" />
  <metadata
     id="metadata3800">
    <rdf:RDF>
      <cc:Work
         rdf:about="">
        <dc:format>image/svg+xml</dc:format>
        <dc:type
           rdf:resource="http://purl.org/dc/dcmitype/StillImage" />
        <dc:title></dc:title>
      </cc:Work>
    </rdf:RDF>
  </metadata>
  <g
     transform="translate(0,-1)"
     id="g2564">
    <g
       transform="translate(0,6)"
       id="layer1">
      <path
         inkscape:connector-curvature="0"
         d="M 9.5,-1 C 5.36,-1 2.0000001,2.3599999 2,6.5 2,10.64 5.3600001,14 9.5,14 c 1.964788,0 3.756106,-0.76222 5.09375,-2 H 20 L 16.65625,8.65625 C 16.864192,7.968633 17,7.255184 17,6.5 17,2.36 13.64,-0.9999999 9.5,-1 Z"
         id="path2396-2"
         style="display:inline;overflow:visible;visibility:visible;opacity:0.3;fill:#000000;fill-opacity:1;fill-rule:evenodd;stroke:none;stroke-width:1;marker:none;enable-background:accumulate" />
      <path
         inkscape:connector-curvature="0"
         d="M 9.5,-2 C 5.36,-2 2.0000001,1.3599999 2,5.5 2,9.64 5.3600001,13 9.5,13 c 1.964788,0 3.756106,-0.76222 5.09375,-2 H 20 L 16.65625,7.65625 C 16.864192,6.968633 17,6.255184 17,5.5 17,1.36 13.64,-1.9999999 9.5,-2 Z"
         id="path2396"
         style="display:inline;overflow:visible;visibility:visible;fill:#19b6ee;fill-opacity:1;fill-rule:evenodd;stroke:none;stroke-width:1;marker:none;enable-background:accumulate" />
    </g>
  </g>
</svg>
