<?xml version="1.0" encoding="UTF-8" standalone="no"?>
<svg
   xmlns:dc="http://purl.org/dc/elements/1.1/"
   xmlns:cc="http://creativecommons.org/ns#"
   xmlns:rdf="http://www.w3.org/1999/02/22-rdf-syntax-ns#"
   xmlns:svg="http://www.w3.org/2000/svg"
   xmlns="http://www.w3.org/2000/svg"
   version="1.1"
   width="22"
   height="22"
   id="svg3014">
  <defs
     id="defs3016" />
  <metadata
     id="metadata3019">
    <rdf:RDF>
      <cc:Work
         rdf:about="">
        <dc:format>image/svg+xml</dc:format>
        <dc:type
           rdf:resource="http://purl.org/dc/dcmitype/StillImage" />
        <dc:title></dc:title>
      </cc:Work>
    </rdf:RDF>
  </metadata>
  <path
     d="M 2,6 C 0.892,6 0,6.892 0,8 l 0,8 c 0,1.108 0.892,2 2,2 l 16,0 c 1.108,0 2,-0.892 2,-2 l 0,-1 0.384328,0 C 21.492328,15 22,14.108 22,13 l 0,-2 C 22,9.892 21.574418,9 20.466418,9 L 20,9 20,8 C 20,6.892 19.108,6 18,6 Z m 0,1 16,0 c 0.554,0 1,0.446 1,1 l 0,8 c 0,0.554 -0.446,1 -1,1 L 2,17 C 1.446,17 1,16.554 1,16 L 1,8 C 1,7.446 1.446,7 2,7 Z m 18,3 c 0.597415,0 1,0.051 1,1 l 0,2 c 0,0.9914 -0.406448,1 -1,1 z"
     id="rect2401-5"
     style="display:inline;overflow:visible;visibility:visible;opacity:0.3;fill:#000000;fill-opacity:1;fill-rule:nonzero;stroke:none;stroke-width:1;marker:none;enable-background:accumulate" />
  <rect
     width="8"
     height="16"
     rx="0.5"
     ry="0.5"
     x="8"
     y="-18"
     transform="matrix(0,1,-1,0,0,0)"
     id="rect3190-4"
     style="display:inline;overflow:visible;visibility:visible;opacity:0.3;fill:#000000;fill-opacity:1;fill-rule:evenodd;stroke:none;stroke-width:1.69999993;marker:none;enable-background:accumulate" />
  <path
     d="M 2,5 C 0.892,5 0,5.892 0,7 l 0,8 c 0,1.108 0.892,2 2,2 l 16,0 c 1.108,0 2,-0.892 2,-2 l 0,-1 0.384328,0 C 21.492328,14 22,13.108 22,12 l 0,-2 C 22,8.892 21.574418,8 20.466418,8 L 20,8 20,7 C 20,5.892 19.108,5 18,5 Z m 0,1 16,0 c 0.554,0 1,0.446 1,1 l 0,8 c 0,0.554 -0.446,1 -1,1 L 2,16 C 1.446,16 1,15.554 1,15 L 1,7 C 1,6.446 1.446,6 2,6 Z m 18,3 c 0.597415,0 1,0.051 1,1 l 0,2 c 0,0.9914 -0.406448,1 -1,1 z"
     id="rect2401"
     style="display:inline;overflow:visible;visibility:visible;fill:#dfdbd2;fill-opacity:1;fill-rule:nonzero;stroke:none;stroke-width:1;marker:none;enable-background:accumulate" />
  <rect
     width="17.50956"
     height="9.5095596"
     rx="0.73984051"
     ry="0.73150456"
     x="1.2452202"
     y="6.2452202"
     id="rect3192"
     style="display:inline;overflow:visible;visibility:visible;opacity:0.3;fill:none;stroke:#dfdbd2;stroke-width:0.5;stroke-linecap:round;stroke-linejoin:miter;stroke-miterlimit:4;stroke-dasharray:none;stroke-dashoffset:0;stroke-opacity:1;marker:none;enable-background:accumulate" />
  <rect
     width="8"
     height="15.999992"
     rx="0.5"
     ry="0.49999177"
     x="7"
     y="-18"
     transform="matrix(0,1,-1,0,0,0)"
     id="rect3190"
     style="display:inline;overflow:visible;visibility:visible;fill:#dfdbd2;fill-opacity:1;fill-rule:evenodd;stroke:none;stroke-width:1.69999993;marker:none;enable-background:accumulate" />
</svg>
