<?xml version="1.0" encoding="UTF-8" standalone="no"?>
<svg
   xmlns:dc="http://purl.org/dc/elements/1.1/"
   xmlns:cc="http://creativecommons.org/ns#"
   xmlns:rdf="http://www.w3.org/1999/02/22-rdf-syntax-ns#"
   xmlns:svg="http://www.w3.org/2000/svg"
   xmlns="http://www.w3.org/2000/svg"
   xmlns:sodipodi="http://sodipodi.sourceforge.net/DTD/sodipodi-0.dtd"
   xmlns:inkscape="http://www.inkscape.org/namespaces/inkscape"
   inkscape:version="1.0alpha2 (ba7fb61f5a, 2019-08-31)"
   sodipodi:docname="user-indeterminate-panel.svg"
   style="display:inline"
   id="svg2816"
   height="22"
   width="22"
   version="1.0">
  <sodipodi:namedview
     inkscape:current-layer="svg2816"
     inkscape:window-maximized="1"
     inkscape:window-y="28"
     inkscape:window-x="0"
     inkscape:cy="13.728853"
     inkscape:cx="10"
     inkscape:zoom="44"
     showgrid="false"
     id="namedview7"
     inkscape:window-height="1381"
     inkscape:window-width="2560"
     inkscape:pageshadow="2"
     inkscape:pageopacity="0"
     guidetolerance="10"
     gridtolerance="10"
     objecttolerance="10"
     borderopacity="1"
     inkscape:document-rotation="0"
     bordercolor="#666666"
     pagecolor="#ffffff" />
  <metadata
     id="metadata8">
    <rdf:RDF>
      <cc:Work
         rdf:about="">
        <dc:format>image/svg+xml</dc:format>
        <dc:type
           rdf:resource="http://purl.org/dc/dcmitype/StillImage" />
        <dc:title></dc:title>
      </cc:Work>
    </rdf:RDF>
  </metadata>
  <defs
     id="defs2818" />
  <g
     transform="translate(0,-1)"
     id="g1410">
    <path
       inkscape:connector-curvature="0"
       d="M 9.5,5 C 5.36,5 2.0000001,8.3599999 2,12.5 2,16.64 5.3600001,20 9.5,20 c 1.964788,0 3.756106,-0.76222 5.09375,-2 H 20 L 16.65625,14.65625 C 16.864192,13.968633 17,13.255184 17,12.5 17,8.36 13.64,5.0000001 9.5,5 Z m -5,7 h 2 v 2 h -2 z m 4,0 h 2 v 2 h -2 z m 4,0 h 2 v 2 h -2 z"
       id="path2396-2"
       style="display:inline;overflow:visible;visibility:visible;opacity:0.3;fill:#000000;fill-opacity:1;fill-rule:evenodd;stroke:none;stroke-width:1;marker:none;enable-background:accumulate" />
    <path
       inkscape:connector-curvature="0"
       d="M 9.5,4 C 5.36,4 2.0000001,7.3599999 2,11.5 2,15.64 5.3600001,19 9.5,19 c 1.964788,0 3.756106,-0.76222 5.09375,-2 H 20 L 16.65625,13.65625 C 16.864192,12.968633 17,12.255184 17,11.5 17,7.36 13.64,4.0000001 9.5,4 Z m -5,7 h 2 v 2 h -2 z m 4,0 h 2 v 2 h -2 z m 4,0 h 2 v 2 h -2 z"
       id="path2396"
       style="display:inline;overflow:visible;visibility:visible;fill:#dfdbd2;fill-opacity:1;fill-rule:evenodd;stroke:none;stroke-width:1;marker:none;enable-background:accumulate" />
  </g>
</svg>
