<?xml version="1.0" encoding="UTF-8" standalone="no"?>
<svg
   xmlns:dc="http://purl.org/dc/elements/1.1/"
   xmlns:cc="http://creativecommons.org/ns#"
   xmlns:rdf="http://www.w3.org/1999/02/22-rdf-syntax-ns#"
   xmlns:svg="http://www.w3.org/2000/svg"
   xmlns="http://www.w3.org/2000/svg"
   version="1.1"
   width="16"
   height="16"
   id="svg7324">
  <metadata
     id="metadata49">
    <rdf:RDF>
      <cc:Work
         rdf:about="">
        <dc:format>image/svg+xml</dc:format>
        <dc:type
           rdf:resource="http://purl.org/dc/dcmitype/StillImage" />
        <dc:title></dc:title>
      </cc:Work>
    </rdf:RDF>
  </metadata>
  <defs
     id="defs7326">
    <linearGradient
       x1="12.938"
       y1="8.4375"
       gradientTransform="matrix(.40476 0 0 .46667 .78571 -.56638)"
       x2="15.25"
       gradientUnits="userSpaceOnUse"
       y2="19.812"
       id="linearGradient2915">
      <stop
         offset="0"
         style="stop-color:#fff;stop-opacity:.27451"
         id="stop6594" />
      <stop
         offset="1"
         style="stop-color:#fff;stop-opacity:0"
         id="stop6596" />
    </linearGradient>
    <linearGradient
       x1="20.147"
       y1="-.00049710"
       gradientTransform="matrix(.42622 0 0 .45209 .27049 -2.733)"
       x2="20.104"
       gradientUnits="userSpaceOnUse"
       y2="31.983"
       id="linearGradient2931">
      <stop
         offset="0"
         style="stop-color:#f0f0f0"
         id="stop6546" />
      <stop
         offset="1"
         style="stop-color:#d2d2d2"
         id="stop6548" />
    </linearGradient>
    <linearGradient
       x1="321.58"
       y1="86.05"
       gradientTransform="matrix(.41035 0 0 .51289 -122.96 -34.968)"
       x2="321.58"
       gradientUnits="userSpaceOnUse"
       y2="96.245"
       id="linearGradient3028">
      <stop
         offset="0"
         style="stop-color:#787878"
         id="stop3271" />
      <stop
         offset=".34447"
         style="stop-color:#bebebe"
         id="stop3273" />
      <stop
         offset=".37315"
         style="stop-color:#c8c8c8"
         id="stop3275" />
      <stop
         offset=".48991"
         style="stop-color:#e6e6e6"
         id="stop3277" />
      <stop
         offset="1"
         style="stop-color:#8c8c8c"
         id="stop3279" />
    </linearGradient>
    <linearGradient
       x1="22.452"
       y1="30.05"
       gradientTransform="matrix(.41182 0 0 .51282 -1.5198 -6.2431)"
       x2="22.452"
       gradientUnits="userSpaceOnUse"
       y2="40.186"
       id="linearGradient3030">
      <stop
         offset="0"
         style="stop-color:#282828"
         id="stop3259" />
      <stop
         offset=".34847"
         style="stop-color:#787878"
         id="stop3261" />
      <stop
         offset=".36564"
         style="stop-color:#828282"
         id="stop3263" />
      <stop
         offset=".49353"
         style="stop-color:#aaa"
         id="stop3265" />
      <stop
         offset="1"
         style="stop-color:#464646"
         id="stop3267" />
    </linearGradient>
    <linearGradient
       x1="316.86"
       y1="85.62"
       gradientTransform="matrix(.40476 0 0 0.5 -121.02 -31.698)"
       x2="319.39"
       gradientUnits="userSpaceOnUse"
       y2="93.916"
       id="linearGradient5719">
      <stop
         offset="0"
         style="stop-color:#282828"
         id="stop4576" />
      <stop
         offset="1"
         style="stop-color:#5a5c58"
         id="stop4578" />
    </linearGradient>
    <linearGradient
       x1="145.44"
       y1="372.67"
       gradientTransform="matrix(.091559 0 0 .079246 -6.3161 -17.282)"
       x2="145.44"
       gradientUnits="userSpaceOnUse"
       y2="416.83"
       id="linearGradient2893">
      <stop
         offset="0"
         style="stop-color:#fff"
         id="stop7257" />
      <stop
         offset="1"
         style="stop-color:#e6e6e6"
         id="stop7259" />
    </linearGradient>
    <radialGradient
       r="23"
       gradientTransform="matrix(0 -.17267 .35273 0 11.221 10.904)"
       cx="26.617"
       cy="-2.0645"
       gradientUnits="userSpaceOnUse"
       id="radialGradient2736">
      <stop
         offset="0"
         style="stop-color:#abc187;stop-opacity:1"
         id="stop2749" />
      <stop
         offset=".26238"
         style="stop-color:#87a556;stop-opacity:1"
         id="stop2751" />
      <stop
         offset=".66094"
         style="stop-color:#657b40;stop-opacity:1"
         id="stop2753" />
      <stop
         offset="1"
         style="stop-color:#4a5a2f;stop-opacity:1"
         id="stop2755" />
    </radialGradient>
    <linearGradient
       x1="2.3596"
       y1="20.335"
       gradientTransform="matrix(.35270 0 0 .18979 1.5456 1.7515)"
       x2="35.407"
       gradientUnits="userSpaceOnUse"
       y2="20.335"
       id="linearGradient2738">
      <stop
         offset="0"
         style="stop-color:#87a556;stop-opacity:1"
         id="stop2759" />
      <stop
         offset="1"
         style="stop-color:#4d5e31;stop-opacity:1"
         id="stop2761" />
    </linearGradient>
  </defs>
  <path
     d="m6.4364 7.3461v3.5903c-0.00907 0.92422-0.6521 1.5387-0.6521 1.5387-0.30832 0.04535-0.26136 0.22875-0.26136 0.5129 0 0.28414 0.00729 0.51289 0.26136 0.51289h4.6187c0.25408 0 0.162-0.22886 0.162-0.513s0.14632-0.46765-0.162-0.513c0 0-0.89393-0.61439-0.903-1.5386v-3.5903h-3.0636z"
     style="stroke-linejoin:round;stroke-width:.99827;stroke-dashoffset:0.5;stroke:url(#linearGradient3030);stroke-linecap:round;enable-background:new;fill:url(#linearGradient3028)"
     id="path4675" />
  <rect
     x=".53172"
     y=".52202"
     width="14.967"
     height="10.011"
     ry=".5"
     rx=".5"
     style="stroke-linejoin:round;stroke-dashoffset:0.5;stroke:#969696;stroke-linecap:round;fill:url(#linearGradient2931)"
     id="rect2722" />
  <rect
     x="2.4854"
     y="2.5303"
     width="11.078"
     height="5.9689"
     style="stroke-linejoin:round;stroke-width:1.0021;fill-rule:evenodd;color:#000000;stroke:url(#linearGradient2738);stroke-linecap:round;fill:url(#radialGradient2736)"
     id="rect2716" />
  <path
     d="m2 2h12v2l-12 3-1e-7 -5z"
     style="fill:url(#linearGradient2915)"
     id="rect6588" />
  <path
     d="m2.156 12.499c-0.12896 0.01142-0.24151 0.07719-0.30329 0.17583l-1.3076 2.09c-0.030695 0.05012-0.046834 0.10727-0.04578 0.16344-0.0001148-0.0061-0.0003361-0.0044 0 0.005v0.23279 0.02476c-0.0003716 0.03449 0.011624 0.06824 0.034335 0.09658 0.00698 0.01742 0.00671 0.03026 0.020029 0.04953 0.069558 0.10066 0.19664 0.16279 0.33476 0.16344h14.22c0.13843 0.000273 0.26665-0.06219 0.33762-0.16592 0.03023-0.04417 0.03976-0.08522 0.04578-0.11639 0.01039-0.05378 0.0086-0.09163 0.0086-0.09163 0.000028-0.0016 0.000028-0.0033 0-0.005v-0.16592c0-0.04728-0.000541-0.12011-0.04864-0.19564l-1.3591-2.0901c-0.000953-0.000007-0.0019-0.000007-0.0029 0-0.07045-0.10671-0.20135-0.17208-0.34334-0.17088h-11.542c-0.00305-0.000131-0.00555 0.000073-0.00858 0-0.010124-0.000238-0.018448-0.000443-0.028612 0-0.00381-0.000097-0.00763-0.000097-0.011445 0l0.000019 0.000005z"
     style="stroke-width:.99829;stroke-dashoffset:.3612;stroke:#a0a0a0;stroke-linecap:square;enable-background:new;fill:url(#linearGradient2893)"
     id="path3698" />
  <path
     d="m3.0247 11.802-1.0247 2.198h12l-1.1-2.198h-9.8753z"
     style="enable-background:new;fill:url(#linearGradient5719);fill-rule:evenodd"
     id="path3704" />
</svg>
