<?xml version="1.0" encoding="UTF-8" standalone="no"?>
<svg
   xmlns:dc="http://purl.org/dc/elements/1.1/"
   xmlns:cc="http://creativecommons.org/ns#"
   xmlns:rdf="http://www.w3.org/1999/02/22-rdf-syntax-ns#"
   xmlns:svg="http://www.w3.org/2000/svg"
   xmlns="http://www.w3.org/2000/svg"
   xmlns:xlink="http://www.w3.org/1999/xlink"
   id="svg3489"
   height="64"
   width="64"
   version="1.1">
  <defs
     id="defs3491">
    <linearGradient
       id="linearGradient4806">
      <stop
         offset="0"
         style="stop-color:#ffffff;stop-opacity:1"
         id="stop4808" />
      <stop
         offset="0.42447853"
         style="stop-color:#ffffff;stop-opacity:0.23529412"
         id="stop4810" />
      <stop
         offset="0.82089913"
         style="stop-color:#ffffff;stop-opacity:0.15686275"
         id="stop4812" />
      <stop
         offset="1"
         style="stop-color:#ffffff;stop-opacity:0.39215687"
         id="stop4814" />
    </linearGradient>
    <linearGradient
       gradientTransform="matrix(2.3268746,0,0,2.3268746,-135.94475,-32.842783)"
       gradientUnits="userSpaceOnUse"
       xlink:href="#linearGradient4806"
       id="linearGradient3293"
       y2="40.495617"
       x2="71.204407"
       y1="15.369057"
       x1="71.204407" />
    <linearGradient
       id="linearGradient23419">
      <stop
         offset="0"
         style="stop-color:#000000;stop-opacity:1"
         id="stop23421" />
      <stop
         offset="1"
         style="stop-color:#000000;stop-opacity:0"
         id="stop23423" />
    </linearGradient>
    <linearGradient
       id="linearGradient8838">
      <stop
         offset="0"
         style="stop-color:#000000;stop-opacity:1"
         id="stop8840" />
      <stop
         offset="1"
         style="stop-color:#000000;stop-opacity:0"
         id="stop8842" />
    </linearGradient>
    <linearGradient
       id="linearGradient3104-8-8-97-4-6-2-0-1-4-0-5-8-3-9-1">
      <stop
         offset="0"
         style="stop-color:#000000;stop-opacity:0.32173914"
         id="stop3106-5-4-3-5-0-1-61-9-2-7-3-3-2-6-9" />
      <stop
         offset="1"
         style="stop-color:#000000;stop-opacity:0.27826086"
         id="stop3108-4-3-7-8-2-4-01-9-9-0-6-4-3-7-7" />
    </linearGradient>
    <linearGradient
       id="linearGradient4632-92-3-0-8-1-6-6">
      <stop
         offset="0"
         style="stop-color:#fafafa;stop-opacity:1"
         id="stop4634-68-8-0-2-9-1-1" />
      <stop
         offset="1"
         style="stop-color:#e1e1e1;stop-opacity:1"
         id="stop4636-8-21-7-1-4-9-4" />
    </linearGradient>
    <linearGradient
       id="linearGradient4011-7-0">
      <stop
         offset="0"
         style="stop-color:#ffffff;stop-opacity:1"
         id="stop4013-4" />
      <stop
         offset="0.507761"
         style="stop-color:#ffffff;stop-opacity:0.23529412"
         id="stop4015-61" />
      <stop
         offset="0.83456558"
         style="stop-color:#ffffff;stop-opacity:0.15686275"
         id="stop4017-2" />
      <stop
         offset="1"
         style="stop-color:#ffffff;stop-opacity:0.39215687"
         id="stop4019-2" />
    </linearGradient>
    <linearGradient
       gradientTransform="matrix(0.72972969,0,0,0.72972969,-4.3460816,29.49607)"
       gradientUnits="userSpaceOnUse"
       xlink:href="#linearGradient4011-7-0"
       id="linearGradient3306"
       y2="42.883553"
       x2="71.204407"
       y1="7.8309216"
       x1="71.204407" />
    <linearGradient
       gradientTransform="matrix(1.1151168,0,0,1.1513607,154.34934,-4.9719397)"
       gradientUnits="userSpaceOnUse"
       xlink:href="#linearGradient3104-8-8-97-4-6-2-0-1-4-0-5-8-3-9-1"
       id="linearGradient3315"
       y2="5.1757793"
       x2="-95.837799"
       y1="54.199703"
       x1="-95.837799" />
    <radialGradient
       gradientTransform="matrix(1.3176471,0,0,0.37647,-34.517651,58.258824)"
       gradientUnits="userSpaceOnUse"
       xlink:href="#linearGradient8838"
       id="radialGradient3384"
       fy="4.625"
       fx="62.625"
       r="10.625"
       cy="4.625"
       cx="62.625" />
    <radialGradient
       gradientTransform="matrix(0,1.7065212,-1.8052958,-4.6448879e-8,63.254408,23.291389)"
       gradientUnits="userSpaceOnUse"
       xlink:href="#linearGradient4632-92-3-0-8-1-6-6"
       id="radialGradient3399"
       fy="8.4497671"
       fx="6.2751122"
       r="19.99999"
       cy="8.4497671"
       cx="6.2751122" />
    <radialGradient
       r="62.769119"
       fy="185.29727"
       fx="99.189415"
       cy="185.29727"
       cx="99.189415"
       gradientTransform="matrix(0.3823536,7.5555777e-8,-1.8372241e-8,0.1115198,-5.9254271,36.335849)"
       gradientUnits="userSpaceOnUse"
       id="radialGradient3300-9"
       xlink:href="#linearGradient23419" />
    <radialGradient
       r="62.769119"
       fy="185.29727"
       fx="99.189415"
       cy="185.29727"
       cx="99.189415"
       gradientTransform="matrix(0.2549024,5.3967361e-8,-1.2248161e-8,0.07965545,6.7163816,44.240666)"
       gradientUnits="userSpaceOnUse"
       id="radialGradient4192"
       xlink:href="#linearGradient23419" />
    <radialGradient
       xlink:href="#radialGradient2444"
       id="radialGradient3543"
       gradientUnits="userSpaceOnUse"
       gradientTransform="matrix(0,4.7904283,-5.0677012,-1.3038809e-7,74.821069,-25.543331)"
       cx="1.4009665"
       cy="8.5012016"
       fx="1.4009665"
       fy="8.5012016"
       r="19.99999" />
    <radialGradient
       id="radialGradient2444"
       gradientUnits="userSpaceOnUse"
       cy="14.113"
       cx="63.969002"
       gradientTransform="matrix(1.5647,-9.5143e-8,6.1772e-8,1.0159,-59.14917,8.1461003)"
       r="23.097">
      <stop
         id="stop3618"
         style="stop-color:#ADC980"
         offset="0" />
      <stop
         id="stop3270"
         style="stop-color:#87A556"
         offset="0.6875183" />
      <stop
         id="stop3620"
         style="stop-color:#688933"
         offset="1" />
    </radialGradient>
  </defs>
  <metadata
     id="metadata3494">
    <rdf:RDF>
      <cc:Work
         rdf:about="">
        <dc:format>image/svg+xml</dc:format>
        <dc:type
           rdf:resource="http://purl.org/dc/dcmitype/StillImage" />
        <dc:title />
      </cc:Work>
    </rdf:RDF>
  </metadata>
  <g
     id="g4198"
     transform="translate(1.55e-6,-0.00183192)">
    <path
       style="opacity:0.2;fill:url(#radialGradient3300-9);fill-opacity:1;stroke:none"
       id="path3818-0"
       d="m 55.999998,57.0017 a 24,6.9985714 0 1 1 -47.9999991,0 24,6.9985714 0 1 1 47.9999991,0 z" />
    <path
       d="m 47.999998,59.0017 a 16,4.9988822 0 1 1 -31.999999,0 16,4.9988822 0 1 1 31.999999,0 z"
       id="path4190"
       style="opacity:0.4;fill:url(#radialGradient4192);fill-opacity:1;stroke:none" />
  </g>
  <path
     style="color:#000000;display:inline;overflow:visible;visibility:visible;fill:url(#radialGradient3543);fill-opacity:1;fill-rule:nonzero;stroke:none;stroke-width:1;marker:none;enable-background:accumulate"
     id="path2555"
     d="m 32.000008,2.4999963 c -16.277082,0 -29.500004,13.2229157 -29.500004,29.4999997 0,16.277084 13.222922,29.500007 29.500004,29.500003 16.277076,0 29.500012,-13.222919 29.499996,-29.500003 0,-16.277084 -13.22292,-29.4999998 -29.499996,-29.4999998 z" />
  <path
     style="color:#000000;font-style:normal;font-variant:normal;font-weight:normal;font-stretch:normal;font-size:medium;line-height:normal;font-family:Sans;-inkscape-font-specification:Sans;text-indent:0;text-align:start;text-decoration:none;text-decoration-line:none;letter-spacing:normal;word-spacing:normal;text-transform:none;direction:ltr;block-progression:tb;writing-mode:lr-tb;baseline-shift:baseline;text-anchor:start;clip-rule:nonzero;display:inline;overflow:visible;visibility:visible;opacity:0.05;isolation:auto;mix-blend-mode:normal;color-interpolation:sRGB;color-interpolation-filters:linearRGB;solid-color:#000000;solid-opacity:1;fill:#000000;fill-opacity:1;fill-rule:nonzero;stroke:none;stroke-width:1;stroke-linecap:butt;stroke-linejoin:miter;stroke-miterlimit:4;stroke-dasharray:none;stroke-dashoffset:0;stroke-opacity:1;marker:none;color-rendering:auto;image-rendering:auto;shape-rendering:auto;text-rendering:auto;enable-background:accumulate"
     id="path4335"
     d="m 36.871094,10.585938 a 0.89183993,0.89183993 0 0 0 -0.833985,0.890624 l -0.01367,13.546876 a 0.89183993,0.89183993 0 0 0 1.345703,0.767578 l 11.472656,-6.773438 a 0.89183993,0.89183993 0 0 0 0,-1.535156 L 37.382812,10.708984 A 0.89183993,0.89183993 0 0 0 36.871094,10.585938 Z M 32,14.066406 c -7.790943,0 -14.503554,4.748928 -17.400391,11.501953 a 0.89183993,0.89183993 0 0 0 0.367188,1.119141 l 2.125,1.253906 a 0.89183993,0.89183993 0 0 0 1.28125,-0.435547 C 20.538622,22.122129 25.811553,18.335937 32,18.335938 c 0.79003,0 1.565118,0.06994 2.328125,0.193359 a 0.89183993,0.89183993 0 0 0 1.035156,-0.880859 l 0,-2.509766 A 0.89183993,0.89183993 0 0 0 34.59375,14.255859 C 33.751605,14.138968 32.888135,14.066406 32,14.066406 Z m 0,6.132813 c -5.558346,0 -10.318214,3.588915 -12.070312,8.574219 a 0.89183993,0.89183993 0 0 0 0.386718,1.0625 l 2.201172,1.30664 a 0.89183993,0.89183993 0 0 0 1.3125,-0.521484 c 1.023349,-3.554223 4.2615,-6.138673 8.169922,-6.138672 0.773489,0 1.519684,0.09956 2.228516,0.289062 a 0.89183993,0.89183993 0 0 0 1.123046,-0.861328 l 0,-2.548828 A 0.89183993,0.89183993 0 0 0 34.644531,20.488281 C 33.798446,20.308559 32.912771,20.199219 32,20.199219 Z m 14.496094,1.142578 a 0.89183993,0.89183993 0 0 0 -0.482422,0.123047 L 43.875,22.732422 a 0.89183993,0.89183993 0 0 0 -0.251953,1.3125 c 1.90624,2.47444 3.041016,5.574424 3.041015,8.955078 10e-7,3.445633 -1.175358,6.590152 -3.148437,9.087891 a 0.89183993,0.89183993 0 0 0 0.244141,1.320312 l 2.138672,1.267578 A 0.89183993,0.89183993 0 0 0 47.0625,44.449219 C 49.483745,41.268972 50.933594,37.292495 50.933594,33 c 0,-4.225327 -1.395752,-8.144518 -3.75,-11.300781 a 0.89183993,0.89183993 0 0 0 -0.6875,-0.357422 z m -5.390625,3.162109 A 0.89183993,0.89183993 0 0 0 40.677734,24.625 l -2.164062,1.267578 a 0.89183993,0.89183993 0 0 0 -0.208984,1.369141 c 1.376268,1.513411 2.212891,3.514136 2.21289,5.738281 0,2.288093 -0.889275,4.328172 -2.339844,5.851562 a 0.89183993,0.89183993 0 0 0 0.19336,1.382813 l 2.189453,1.292969 a 0.89183993,0.89183993 0 0 0 1.128906,-0.185547 C 43.621394,39.099468 44.800781,36.174188 44.800781,33 c 0,-3.104657 -1.133137,-5.95882 -2.988281,-8.177734 a 0.89183993,0.89183993 0 0 0 -0.707031,-0.31836 z m -30.046875,0.832032 a 0.89183993,0.89183993 0 0 0 -0.833985,0.890624 l -0.01367,13.546876 a 0.89183993,0.89183993 0 0 0 1.345703,0.767578 l 11.472656,-6.773438 a 0.89183993,0.89183993 0 0 0 0,-1.535156 L 11.570312,25.458984 a 0.89183993,0.89183993 0 0 0 -0.511718,-0.123046 z m 11.904297,9.396484 a 0.89183993,0.89183993 0 0 0 -0.441407,0.123047 l -2.201172,1.292969 a 0.89183993,0.89183993 0 0 0 -0.390624,1.064453 c 1.748251,4.99097 6.507348,8.58789 12.070312,8.58789 0.912766,0 1.798434,-0.109329 2.644531,-0.289062 a 0.89183993,0.89183993 0 0 0 0.707031,-0.873047 l 0,-2.560547 a 0.89183993,0.89183993 0 0 0 -1.11914,-0.863281 C 33.518373,41.402363 32.771111,41.505859 32,41.505859 c -3.909613,0 -7.146793,-2.5763 -8.169922,-6.126953 a 0.89183993,0.89183993 0 0 0 -0.867187,-0.646484 z m -5.427735,3.201172 a 0.89183993,0.89183993 0 0 0 -0.443359,0.125 l -2.125,1.253906 a 0.89183993,0.89183993 0 0 0 -0.367188,1.119141 C 17.496446,47.184667 24.209057,51.933594 32,51.933594 c 0.879441,0 1.736686,-0.07377 2.568359,-0.189453 a 0.89183993,0.89183993 0 0 0 0.769532,-0.882813 l 0,-2.496094 a 0.89183993,0.89183993 0 0 0 -1.03125,-0.880859 C 33.55435,47.603088 32.788022,47.664063 32,47.664062 25.811553,47.664063 20.538622,43.87787 18.373047,38.494141 a 0.89183993,0.89183993 0 0 0 -0.837891,-0.560547 z m 19.320313,2.371094 a 0.89183993,0.89183993 0 0 0 -0.832031,0.890624 l -0.01172,13.533204 a 0.89183993,0.89183993 0 0 0 1.345703,0.767578 l 11.472656,-6.773438 a 0.89183993,0.89183993 0 0 0 0,-1.535156 L 37.369141,40.427734 a 0.89183993,0.89183993 0 0 0 -0.513672,-0.123046 z" />
  <path
     style="color:#000000;font-style:normal;font-variant:normal;font-weight:normal;font-stretch:normal;font-size:medium;line-height:normal;font-family:Sans;-inkscape-font-specification:Sans;text-indent:0;text-align:start;text-decoration:none;text-decoration-line:none;letter-spacing:normal;word-spacing:normal;text-transform:none;direction:ltr;block-progression:tb;writing-mode:lr-tb;baseline-shift:baseline;text-anchor:start;clip-rule:nonzero;display:inline;overflow:visible;visibility:visible;opacity:0.15;isolation:auto;mix-blend-mode:normal;color-interpolation:sRGB;color-interpolation-filters:linearRGB;solid-color:#000000;solid-opacity:1;fill:#000000;fill-opacity:1;fill-rule:nonzero;stroke:none;stroke-width:1;stroke-linecap:butt;stroke-linejoin:miter;stroke-miterlimit:4;stroke-dasharray:none;stroke-dashoffset:0;stroke-opacity:1;marker:none;color-rendering:auto;image-rendering:auto;shape-rendering:auto;text-rendering:auto;enable-background:accumulate"
     d="m 36.929786,11.476762 -0.0141,13.547064 11.472897,-6.773532 -11.458795,-6.773532 z m -4.929782,3.482326 c -7.428653,0 -13.819753,4.527414 -16.579696,10.961318 l 2.124808,1.253526 c 2.29884,-5.715032 7.902139,-9.730279 14.454888,-9.730279 0.842904,0 1.666113,0.07506 2.470513,0.205173 l 0,-2.50986 c -0.808866,-0.112272 -1.630065,-0.179878 -2.470513,-0.179878 z m 0,6.132717 c -5.174453,0 -9.599268,3.341259 -11.228325,7.976467 l 2.200695,1.306926 c 1.130522,-3.926451 4.724282,-6.784775 9.02763,-6.784774 0.850881,0 1.675478,0.110863 2.45927,0.320408 l 0,-2.54921 c -0.794214,-0.168704 -1.617727,-0.269817 -2.45927,-0.269817 z m 14.468941,1.141101 -2.138863,1.267579 c 2.021925,2.624607 3.226563,5.919148 3.226563,9.499809 0,3.649198 -1.249538,6.991729 -3.341798,9.64034 l 2.138863,1.267577 c 2.308317,-3.031919 3.6875,-6.815788 3.6875,-10.907917 0,-4.029333 -1.328384,-7.759091 -3.572265,-10.767388 z m -5.34013,3.16192 -2.164157,1.267577 c 1.519265,1.670657 2.445217,3.888941 2.445216,6.337891 0,2.520532 -0.985293,4.786379 -2.585746,6.467179 l 2.189453,1.292872 c 1.799008,-2.088038 2.894912,-4.806363 2.894912,-7.760051 0,-2.888433 -1.050925,-5.537728 -2.779678,-7.605468 z m -30.011529,0.831936 -0.0141,13.547064 11.472846,-6.773532 -11.458794,-6.773532 z m 11.855088,9.398628 -2.200695,1.292872 c 1.625613,4.640858 6.049879,7.990522 11.228325,7.990522 0.841543,0 1.665056,-0.101106 2.45927,-0.269818 l 0,-2.560451 c -0.784001,0.20589 -1.608228,0.320407 -2.45927,0.320407 -4.303348,0 -7.897107,-2.850179 -9.02763,-6.773532 z m -5.427258,3.201266 -2.124808,1.253526 c 2.759943,6.433905 9.151043,10.961318 16.579696,10.961318 0.830385,0 1.646035,-0.06871 2.445218,-0.179878 l 0,-2.495808 c -0.797378,0.125828 -1.61049,0.191121 -2.445218,0.191121 -6.552749,0 -12.156048,-4.015248 -14.454888,-9.730279 z M 36.915734,41.195987 36.904514,54.729 48.37736,47.955467 36.915757,41.195987 Z"
     id="path9-6" />
  <path
     style="color:#000000;font-style:normal;font-variant:normal;font-weight:normal;font-stretch:normal;font-size:medium;line-height:normal;font-family:Sans;-inkscape-font-specification:Sans;text-indent:0;text-align:start;text-decoration:none;text-decoration-line:none;letter-spacing:normal;word-spacing:normal;text-transform:none;direction:ltr;block-progression:tb;writing-mode:lr-tb;baseline-shift:baseline;text-anchor:start;display:inline;overflow:visible;visibility:visible;fill:#ffffff;fill-opacity:1;stroke:none;stroke-width:1.17073166;marker:none;enable-background:accumulate"
     d="m 36.929786,10.476467 -0.0141,13.547064 11.472846,-6.773532 -11.458794,-6.773532 z m -4.929782,3.482326 c -7.428653,0 -13.819753,4.527414 -16.579696,10.961318 l 2.124808,1.253526 c 2.29884,-5.715032 7.902139,-9.730279 14.454888,-9.730279 0.842904,0 1.666113,0.07506 2.470513,0.205173 l 0,-2.50986 c -0.808866,-0.112272 -1.630065,-0.179878 -2.470513,-0.179878 z m 0,6.132717 c -5.174453,0 -9.599268,3.341259 -11.228325,7.976467 l 2.200695,1.306926 c 1.130522,-3.926451 4.724282,-6.784775 9.02763,-6.784774 0.850881,0 1.675478,0.110863 2.45927,0.320408 l 0,-2.54921 C 33.66506,20.192623 32.841547,20.09151 32.000004,20.09151 Z m 14.468941,1.141101 -2.138863,1.267579 c 2.021925,2.624607 3.226563,5.919148 3.226563,9.499809 0,3.649197 -1.249538,6.991729 -3.341798,9.64034 l 2.138863,1.267577 c 2.308317,-3.031919 3.6875,-6.815788 3.6875,-10.907917 0,-4.029333 -1.328384,-7.759091 -3.572265,-10.767388 z m -5.34013,3.16192 -2.164157,1.267577 c 1.519265,1.670657 2.445217,3.888941 2.445216,6.337891 0,2.520532 -0.985293,4.786379 -2.585746,6.467179 l 2.189453,1.292872 c 1.799008,-2.088039 2.894912,-4.806363 2.894912,-7.760051 0,-2.888433 -1.050925,-5.537728 -2.779678,-7.605468 z m -30.011529,0.831936 -0.0141,13.547064 11.472846,-6.773532 -11.458794,-6.773532 z m 11.855088,9.398628 -2.200695,1.292872 c 1.625613,4.640858 6.049879,7.990521 11.228325,7.990521 0.841543,0 1.665056,-0.101105 2.45927,-0.269817 l 0,-2.560451 c -0.784001,0.205889 -1.608228,0.320407 -2.45927,0.320407 -4.303348,0 -7.897107,-2.850179 -9.02763,-6.773532 z m -5.427258,3.201266 -2.124808,1.253526 c 2.759943,6.433905 9.151043,10.961318 16.579696,10.961318 0.830385,0 1.646035,-0.06871 2.445218,-0.179878 l 0,-2.495808 c -0.797378,0.125828 -1.61049,0.191121 -2.445218,0.191121 -6.552749,0 -12.156048,-4.015248 -14.454888,-9.730279 z m 19.370618,2.369331 -0.01122,13.533013 11.472846,-6.773533 -11.461603,-6.75948 z"
     id="path9" />
  <path
     style="display:inline;overflow:visible;visibility:visible;opacity:0.3;fill:url(#radialGradient3384);fill-opacity:1;fill-rule:evenodd;stroke:none;stroke-width:0.99999988;marker:none"
     id="path8836"
     d="m 62,60 c 0,2.209139 -6.268019,4 -14,4 -7.73199,0 -14,-1.790861 -14,-4 0,-2.209139 6.26801,-4 14,-4 7.731981,0 14,1.790861 14,4 l 0,0 z" />
  <path
     style="opacity:0.5;color:#000000;fill:none;stroke:url(#linearGradient3293);stroke-width:1;stroke-linecap:round;stroke-linejoin:round;stroke-miterlimit:4;stroke-opacity:1;stroke-dasharray:none;stroke-dashoffset:0;marker:none;visibility:visible;display:inline;overflow:visible;enable-background:accumulate"
     id="path3019"
     d="m 60.50001,31.999999 c 0,15.740115 -12.7599,28.499999 -28.50002,28.499999 -15.740099,0 -28.499991,-12.759884 -28.499991,-28.499999 0,-15.740116 12.759892,-28.5000013 28.499991,-28.5000013 15.74012,0 28.50002,12.7598853 28.50002,28.5000013 z" />
  <path
     style="opacity:0.3;color:#000000;fill:none;fill-opacity:1;fill-rule:nonzero;stroke:#000000;stroke-width:1;stroke-linecap:round;stroke-linejoin:round;stroke-miterlimit:4;stroke-opacity:1;stroke-dasharray:none;stroke-dashoffset:0;marker:none;visibility:visible;display:inline;overflow:visible;enable-background:accumulate;clip-rule:nonzero;isolation:auto;mix-blend-mode:normal;color-interpolation:sRGB;color-interpolation-filters:linearRGB;solid-color:#000000;solid-opacity:1;filter-blend-mode:normal;filter-gaussianBlur-deviation:0;color-rendering:auto;image-rendering:auto;shape-rendering:auto;text-rendering:auto"
     id="path2555-7-1"
     d="m 32,2.499999 c -16.277082,0 -29.5,13.222915 -29.5,29.499998 0,16.277083 13.222918,29.500005 29.5,29.5 16.27708,0 29.50001,-13.222917 29.5,-29.5 C 61.5,15.722914 48.27708,2.499999 32,2.499999 z" />
  <path
     style="opacity:0.8;color:#000000;fill:none;stroke:url(#linearGradient3315);stroke-width:1;stroke-linecap:butt;stroke-linejoin:miter;stroke-miterlimit:4;stroke-opacity:1;stroke-dasharray:none;stroke-dashoffset:0;marker:none;visibility:visible;display:inline;overflow:visible;enable-background:accumulate"
     id="path2555-6-4"
     d="m 48.000002,33.499999 c -8.0006,0 -14.500002,6.499399 -14.500002,14.5 0,8.0006 6.499402,14.500003 14.500002,14.5 8.000597,0 14.500005,-6.4994 14.499998,-14.5 0,-8.000601 -6.499401,-14.5 -14.499998,-14.5 z" />
  <path
     style="color:#000000;fill:url(#radialGradient3399);fill-opacity:1;fill-rule:nonzero;stroke:none;stroke-width:1;marker:none;visibility:visible;display:inline;overflow:visible;enable-background:accumulate"
     id="path2555-03"
     d="M 48.000001,34 C 40.275284,34 34,40.275282 34,48 34,55.724717 40.275284,62.000003 48.000001,62 55.724716,62 62.000007,55.724717 62,48 62,40.275282 55.724716,34 48.000001,34 z" />
  <path
     style="color:#000000;fill:#ffffff;fill-opacity:1;fill-rule:nonzero;stroke:none;stroke-width:1;marker:none;visibility:visible;display:inline;overflow:visible;enable-background:accumulate"
     id="rect3005-5-6"
     d="m 42,49 -0.0082,1 6.008208,7 L 54,50 54,49 z" />
  <path
     style="color:#000000;fill:#87a556;fill-opacity:1;fill-rule:nonzero;stroke:none;stroke-width:1;marker:none;visibility:visible;display:inline;overflow:visible;enable-background:accumulate"
     id="rect3005-5-3"
     d="m 47,41 0,8 -5,0 6,7 6,-7 -5,0 0,-8 z" />
  <path
     style="opacity:0.15;color:#000000;fill:#000000;fill-opacity:1;fill-rule:nonzero;stroke:none;stroke-width:1;marker:none;visibility:visible;display:inline;overflow:visible;enable-background:accumulate"
     id="rect4305"
     d="m 47,41 0,1 2,0 0,-1 z m -5,8 0.855469,1 L 47,50 47,49 z m 7,0 0,1 4.139848,0 L 54,49 z" />
  <path
     style="color:#000000;fill:none;stroke:url(#linearGradient3306);stroke-width:0.99999988;stroke-linecap:round;stroke-linejoin:round;stroke-miterlimit:4;stroke-opacity:1;stroke-dasharray:none;stroke-dashoffset:0;marker:none;visibility:visible;display:inline;overflow:visible;enable-background:accumulate"
     id="path8655-6-4"
     d="m 61.5,47.999521 c 0,7.456084 -6.044603,13.500478 -13.499829,13.500478 C 40.544259,61.499999 34.5,55.455536 34.5,47.999521 c 0,-7.455738 6.044259,-13.49952 13.500171,-13.49952 7.455226,0 13.499829,6.043782 13.499829,13.49952 l 0,0 z" />
</svg>
