<?xml version="1.0" encoding="UTF-8" standalone="no"?>
<svg
   xmlns:dc="http://purl.org/dc/elements/1.1/"
   xmlns:cc="http://creativecommons.org/ns#"
   xmlns:rdf="http://www.w3.org/1999/02/22-rdf-syntax-ns#"
   xmlns:svg="http://www.w3.org/2000/svg"
   xmlns="http://www.w3.org/2000/svg"
   xmlns:xlink="http://www.w3.org/1999/xlink"
   id="svg4505"
   height="32"
   width="32"
   version="1.1">
  <defs
     id="defs4507">
    <linearGradient
       id="linearGradient3820-7-2-2">
      <stop
         offset="0"
         style="stop-color:#3d3d3d;stop-opacity:1"
         id="stop3822-2-6-36" />
      <stop
         offset="0.5"
         style="stop-color:#686868;stop-opacity:0.49803922"
         id="stop3864-8-7-6" />
      <stop
         offset="1"
         style="stop-color:#686868;stop-opacity:0"
         id="stop3824-1-2-4" />
    </linearGradient>
    <radialGradient
       gradientTransform="matrix(0.17524541,0,0,0.05575992,-1.37681,18.119145)"
       gradientUnits="userSpaceOnUse"
       xlink:href="#linearGradient3820-7-2-2"
       id="radialGradient3043"
       fy="186.17059"
       fx="99.157013"
       r="62.769119"
       cy="186.17059"
       cx="99.157013" />
    <linearGradient
       gradientTransform="matrix(0.72972969,0,0,0.72972969,-36.346077,-2.5039312)"
       gradientUnits="userSpaceOnUse"
       xlink:href="#linearGradient4011"
       id="linearGradient3012"
       y2="44.340794"
       x2="71.204407"
       y1="6.2375584"
       x1="71.204407" />
    <linearGradient
       id="linearGradient4011">
      <stop
         offset="0"
         style="stop-color:#ffffff;stop-opacity:1"
         id="stop4013" />
      <stop
         offset="0.507761"
         style="stop-color:#ffffff;stop-opacity:0.23529412"
         id="stop4015" />
      <stop
         offset="0.83456558"
         style="stop-color:#ffffff;stop-opacity:0.15686275"
         id="stop4017" />
      <stop
         offset="1"
         style="stop-color:#ffffff;stop-opacity:0.39215687"
         id="stop4019" />
    </linearGradient>
    <linearGradient
       id="linearGradient4632-92-3-0-8-1-6-6">
      <stop
         offset="0"
         style="stop-color:#fafafa;stop-opacity:1"
         id="stop4634-68-8-0-2-9-1-1" />
      <stop
         offset="1"
         style="stop-color:#e1e1e1;stop-opacity:1"
         id="stop4636-8-21-7-1-4-9-4" />
    </linearGradient>
    <linearGradient
       id="linearGradient4011-7-8">
      <stop
         offset="0"
         style="stop-color:#ffffff;stop-opacity:1"
         id="stop4013-4" />
      <stop
         offset="0.507761"
         style="stop-color:#ffffff;stop-opacity:0.23529412"
         id="stop4015-61" />
      <stop
         offset="0.83456558"
         style="stop-color:#ffffff;stop-opacity:0.15686275"
         id="stop4017-2" />
      <stop
         offset="1"
         style="stop-color:#ffffff;stop-opacity:0.39215687"
         id="stop4019-2" />
    </linearGradient>
    <linearGradient
       gradientTransform="matrix(0.35135134,0,0,0.35135134,-1.203669,15.0907)"
       gradientUnits="userSpaceOnUse"
       xlink:href="#linearGradient4011-7-8"
       id="linearGradient3364"
       y2="42.883553"
       x2="71.204407"
       y1="7.8309216"
       x1="71.204407" />
    <radialGradient
       gradientTransform="matrix(0,0.85326058,-0.90264791,-2.322444e-8,31.627204,11.645694)"
       gradientUnits="userSpaceOnUse"
       xlink:href="#linearGradient4632-92-3-0-8-1-6-6"
       id="radialGradient3370"
       fy="8.4497671"
       fx="6.2751122"
       r="19.99999"
       cy="8.4497671"
       cx="6.2751122" />
    <linearGradient
       gradientTransform="matrix(0.80749834,0,0,0.83374395,46.322988,-10.009944)"
       gradientUnits="userSpaceOnUse"
       xlink:href="#linearGradient3104-8-8-97-4-6-2-0-1-4-0-5-8-3-9-1-4"
       id="linearGradient3373-2"
       y2="5.1757793"
       x2="-95.837799"
       y1="54.199703"
       x1="-95.837799" />
    <linearGradient
       id="linearGradient3104-8-8-97-4-6-2-0-1-4-0-5-8-3-9-1-4">
      <stop
         offset="0"
         style="stop-color:#000000;stop-opacity:0.32173914"
         id="stop3106-5-4-3-5-0-1-61-9-2-7-3-3-2-6-9-2" />
      <stop
         offset="1"
         style="stop-color:#000000;stop-opacity:0.27826086"
         id="stop3108-4-3-7-8-2-4-01-9-9-0-6-4-3-7-7-3" />
    </linearGradient>
    <radialGradient
       xlink:href="#radialGradient2444"
       id="radialGradient3543"
       gradientUnits="userSpaceOnUse"
       gradientTransform="matrix(0,2.3546173,-2.490904,-6.4089059e-8,37.047642,-12.284009)"
       cx="1.4009665"
       cy="8.5012016"
       fx="1.4009665"
       fy="8.5012016"
       r="19.99999" />
    <radialGradient
       id="radialGradient2444"
       gradientUnits="userSpaceOnUse"
       cy="14.113"
       cx="63.969002"
       gradientTransform="matrix(1.5647,-9.5143e-8,6.1772e-8,1.0159,-59.14917,8.1461003)"
       r="23.097">
      <stop
         id="stop3618"
         style="stop-color:#ADC980"
         offset="0" />
      <stop
         id="stop3270"
         style="stop-color:#87A556"
         offset="0.6875183" />
      <stop
         id="stop3620"
         style="stop-color:#688933"
         offset="1" />
    </radialGradient>
  </defs>
  <metadata
     id="metadata4510">
    <rdf:RDF>
      <cc:Work
         rdf:about="">
        <dc:format>image/svg+xml</dc:format>
        <dc:type
           rdf:resource="http://purl.org/dc/dcmitype/StillImage" />
        <dc:title />
      </cc:Work>
    </rdf:RDF>
  </metadata>
  <path
     style="fill:url(#radialGradient3043);fill-opacity:1;stroke:none"
     id="path3818-0-2"
     d="m 27.000001,28.499999 a 11,3.4999999 0 1 1 -21.9999996,0 11,3.4999999 0 1 1 21.9999996,0 z" />
  <path
     style="color:#000000;display:inline;overflow:visible;visibility:visible;fill:url(#radialGradient3543);fill-opacity:1;fill-rule:nonzero;stroke:none;stroke-width:1;marker:none;enable-background:accumulate"
     id="path2555"
     d="M 16.000002,1.4999988 C 7.999402,1.4999988 1.5,7.9993984 1.5,15.999999 1.5,24.000599 7.999402,30.500002 16.000002,30.5 24.000599,30.5 30.500008,24.000599 30.5,15.999999 30.5,7.9993984 24.000599,1.4999988 16.000002,1.4999988 Z" />
  <path
     style="color:#000000;font-style:normal;font-variant:normal;font-weight:normal;font-stretch:normal;font-size:medium;line-height:normal;font-family:Sans;-inkscape-font-specification:Sans;text-indent:0;text-align:start;text-decoration:none;text-decoration-line:none;letter-spacing:normal;word-spacing:normal;text-transform:none;direction:ltr;block-progression:tb;writing-mode:lr-tb;baseline-shift:baseline;text-anchor:start;clip-rule:nonzero;display:inline;overflow:visible;visibility:visible;opacity:0.05;isolation:auto;mix-blend-mode:normal;color-interpolation:sRGB;color-interpolation-filters:linearRGB;solid-color:#000000;solid-opacity:1;fill:#000000;fill-opacity:1;fill-rule:nonzero;stroke:none;stroke-width:1;stroke-linecap:butt;stroke-linejoin:miter;stroke-miterlimit:4;stroke-dasharray:none;stroke-dashoffset:0;stroke-opacity:1;marker:none;color-rendering:auto;image-rendering:auto;shape-rendering:auto;text-rendering:auto;enable-background:accumulate;filter-blend-mode:normal;filter-gaussianBlur-deviation:0"
     id="path4339"
     d="m 18.457031,5.4316406 a 0.98959309,0.98959309 0 0 0 -1.023437,0.9863282 l -0.002,0.8398437 a 0.98959309,0.98959309 0 0 0 -0.08008,-0.017578 C 16.916281,7.1798215 16.465335,7.1425781 16,7.1425781 c -4.053216,0 -7.5501642,2.4699182 -9.0585938,5.9863279 a 0.98959309,0.98959309 0 0 0 -0.03125,0.08594 L 6.2402344,12.818359 a 0.98959309,0.98959309 0 0 0 -1.4941406,0.84961 l -0.00781,6.660156 a 0.98959309,0.98959309 0 0 0 1.4941407,0.853516 L 6.9101562,20.78125 a 0.98959309,0.98959309 0 0 0 0.03125,0.08984 C 8.4498358,24.387505 11.946784,26.857422 16,26.857422 c 0.461895,0 0.908496,-0.03793 1.337891,-0.09766 a 0.98959309,0.98959309 0 0 0 0.08203,-0.01563 l 0,0.935547 a 0.98959309,0.98959309 0 0 0 1.492187,0.851562 l 5.640625,-3.328125 a 0.98959309,0.98959309 0 0 0 0,-1.703125 l -0.779296,-0.458984 a 0.98959309,0.98959309 0 0 0 0.06836,-0.08008 C 25.101655,21.306142 25.857422,19.233714 25.857422,17 c 0,-2.197997 -0.72768,-4.241853 -1.953125,-5.884766 a 0.98959309,0.98959309 0 0 0 -0.07227,-0.08594 l 0.726563,-0.427735 a 0.98959309,0.98959309 0 0 0 0,-1.7031245 L 18.927734,5.5683594 A 0.98959309,0.98959309 0 0 0 18.457031,5.4316406 Z M 16,13.365234 c 0.334237,0 0.653027,0.04086 0.953125,0.121094 a 0.98959309,0.98959309 0 0 0 0.554687,-0.01367 0.98959309,0.98959309 0 0 0 0.945313,0.595703 0.98959309,0.98959309 0 0 0 0.238281,0.482422 c 0.587863,0.646442 0.94336,1.494527 0.94336,2.449219 0,0.980759 -0.377337,1.844221 -0.998047,2.496094 a 0.98959309,0.98959309 0 0 0 -0.261719,0.544922 0.98959309,0.98959309 0 0 0 -0.818359,0.496093 0.98959309,0.98959309 0 0 0 -0.59961,-0.03125 c -0.305758,0.0803 -0.625534,0.123047 -0.957031,0.123047 -1.678686,0 -3.049872,-1.096656 -3.486328,-2.611328 a 0.98959309,0.98959309 0 0 0 -0.314453,-0.484375 0.98959309,0.98959309 0 0 0 0,-1.066406 0.98959309,0.98959309 0 0 0 0.314453,-0.484375 C 12.950376,14.465693 14.322667,13.365234 16,13.365234 Z" />
  <path
     style="color:#000000;font-style:normal;font-variant:normal;font-weight:normal;font-stretch:normal;font-size:medium;line-height:normal;font-family:Sans;-inkscape-font-specification:Sans;text-indent:0;text-align:start;text-decoration:none;text-decoration-line:none;letter-spacing:normal;word-spacing:normal;text-transform:none;direction:ltr;block-progression:tb;writing-mode:lr-tb;baseline-shift:baseline;text-anchor:start;clip-rule:nonzero;display:inline;overflow:visible;visibility:visible;opacity:0.15;isolation:auto;mix-blend-mode:normal;color-interpolation:sRGB;color-interpolation-filters:linearRGB;solid-color:#000000;solid-opacity:1;fill:#000000;fill-opacity:1;fill-rule:nonzero;stroke:none;stroke-width:1;stroke-linecap:butt;stroke-linejoin:miter;stroke-miterlimit:4;stroke-dasharray:none;stroke-dashoffset:0;stroke-opacity:1;marker:none;color-rendering:auto;image-rendering:auto;shape-rendering:auto;text-rendering:auto;enable-background:accumulate"
     d="m 18.423113,6.420425 -0.0069,6.658727 L 24.055408,9.749789 18.42312,6.420425 Z M 16,8.132078 c -3.651372,0 -6.79276,2.225339 -8.149342,5.387766 l 1.044397,0.61614 C 10.024993,11.3269 12.779157,9.353304 16,9.353304 c 0.414309,0 0.818937,0.03689 1.21432,0.100848 l 0,-1.23366 C 16.816742,8.165312 16.413101,8.132082 16,8.132082 Z m 0,3.014386 c -2.543375,0 -4.718284,1.642314 -5.519007,3.920636 l 1.081697,0.642388 c 0.555681,-1.929951 2.322105,-3.33489 4.43731,-3.334889 0.41823,0 0.82354,0.05449 1.208794,0.157488 l 0,-1.253001 C 16.818417,11.196166 16.41364,11.146464 16,11.146464 Z m 7.111852,0.56088 -1.051305,0.623047 c 0.993827,1.290061 1.585937,2.909412 1.585937,4.669398 0,1.793673 -0.614179,3.436612 -1.642578,4.738472 l 1.051305,0.623047 c 1.134597,-1.490266 1.8125,-3.350133 1.8125,-5.361519 0,-1.98052 -0.652934,-3.813791 -1.755859,-5.292445 z m -2.624809,1.554164 -1.063739,0.623047 c 0.746758,0.82117 1.201887,1.911513 1.201886,3.115234 0,1.238905 -0.484296,2.352627 -1.270959,3.178783 l 1.076171,0.635479 c 0.884258,-1.026324 1.422923,-2.362449 1.422923,-3.814262 0,-1.419738 -0.516556,-2.721934 -1.366282,-3.738281 z m -14.75143,0.408918 -0.0069,6.658726 5.639195,-3.329363 -5.632288,-3.329363 z m 5.827077,4.619664 -1.081697,0.63548 c 0.79903,2.2811 2.973669,3.927544 5.519007,3.927544 0.41364,0 0.818417,-0.0497 1.208794,-0.132622 l 0,-1.258527 c -0.385357,0.1012 -0.790485,0.157489 -1.208794,0.157489 -2.115205,0 -3.881629,-1.400936 -4.43731,-3.329364 z m -2.667635,1.573504 -1.044397,0.61614 C 9.20724,23.642162 12.348628,25.8675 16,25.8675 c 0.408155,0 0.809068,-0.03377 1.201887,-0.08841 l 0,-1.226753 c -0.391932,0.06185 -0.791597,0.09394 -1.201887,0.09394 -3.220843,0 -5.975007,-1.973596 -7.104945,-4.782679 z m 9.521151,1.164586 -0.0055,6.65182 5.639196,-3.329363 -5.633669,-3.322457 z"
     id="path9-7" />
  <path
     style="color:#000000;font-style:normal;font-variant:normal;font-weight:normal;font-stretch:normal;font-size:medium;line-height:normal;font-family:Sans;-inkscape-font-specification:Sans;text-indent:0;text-align:start;text-decoration:none;text-decoration-line:none;letter-spacing:normal;word-spacing:normal;text-transform:none;direction:ltr;block-progression:tb;writing-mode:lr-tb;baseline-shift:baseline;text-anchor:start;display:inline;overflow:visible;visibility:visible;fill:#ffffff;fill-opacity:1;stroke:none;stroke-width:1.17073166;marker:none;enable-background:accumulate"
     d="m 18.423113,5.4206364 -0.0069,6.6587266 5.639195,-3.3293626 -5.632288,-3.329364 z M 16,7.1322894 c -3.651372,0 -6.79276,2.225339 -8.149342,5.3877656 l 1.044397,0.61614 C 10.024993,10.327111 12.779157,8.3535154 16,8.3535154 c 0.414309,0 0.818937,0.03689 1.21432,0.100848 l 0,-1.23366 C 16.816742,7.1655234 16.413101,7.1322934 16,7.1322934 Z m 0,3.0143856 c -2.543375,0 -4.718284,1.642314 -5.519007,3.920636 l 1.081697,0.642388 C 12.118371,12.779748 13.884795,11.374809 16,11.37481 c 0.41823,0 0.82354,0.05449 1.208794,0.157488 l 0,-1.253001 C 16.818417,10.196377 16.41364,10.146675 16,10.146675 Z m 7.111852,0.56088 -1.051305,0.623047 c 0.993827,1.290061 1.585937,2.909412 1.585937,4.669398 0,1.793673 -0.614179,3.436612 -1.642578,4.738472 l 1.051305,0.623047 c 1.134597,-1.490266 1.8125,-3.350133 1.8125,-5.361519 0,-1.98052 -0.652934,-3.813791 -1.755859,-5.292445 z m -2.624809,1.554164 -1.063739,0.623047 c 0.746758,0.82117 1.201887,1.911513 1.201886,3.115234 0,1.238905 -0.484296,2.352627 -1.270959,3.178783 l 1.076171,0.635479 C 21.31466,18.787938 21.853325,17.451813 21.853325,16 c 0,-1.419738 -0.516556,-2.721934 -1.366282,-3.738281 z M 5.735613,12.670637 5.728713,19.329363 11.367908,16 5.73562,12.670637 Z m 5.827077,4.619664 -1.081697,0.63548 c 0.79903,2.2811 2.973669,3.927544 5.519007,3.927544 0.41364,0 0.818417,-0.0497 1.208794,-0.132622 l 0,-1.258527 c -0.385357,0.1012 -0.790485,0.157489 -1.208794,0.157489 -2.115205,0 -3.881629,-1.400936 -4.43731,-3.329364 z m -2.667635,1.573504 -1.044397,0.61614 c 1.356582,3.162428 4.49797,5.387766 8.149342,5.387766 0.408155,0 0.809068,-0.03377 1.201887,-0.08841 l 0,-1.226753 c -0.391932,0.06185 -0.791597,0.09394 -1.201887,0.09394 -3.220843,0 -5.975007,-1.973596 -7.104945,-4.782679 z m 9.521151,1.164586 -0.0055,6.65182 5.639196,-3.329363 -5.633669,-3.322457 z"
     id="path9" />
  <path
     style="opacity:0.5;color:#000000;fill:none;stroke:url(#linearGradient3012);stroke-width:1;stroke-linecap:round;stroke-linejoin:round;stroke-miterlimit:4;stroke-opacity:1;stroke-dasharray:none;stroke-dashoffset:0;marker:none;visibility:visible;display:inline;overflow:visible;enable-background:accumulate"
     id="path8655"
     d="m 29.5,15.999521 c 0,7.456085 -6.044601,13.500478 -13.499829,13.500478 C 8.54426,29.499999 2.5,23.455537 2.5,15.999521 2.5,8.5437813 8.54426,2.5000003 16.000171,2.5000003 23.455399,2.5000003 29.5,8.5437813 29.5,15.999521 l 0,0 z" />
  <path
     style="opacity:0.3;color:#000000;fill:none;fill-opacity:1;fill-rule:nonzero;stroke:#000000;stroke-width:1;stroke-linecap:round;stroke-linejoin:round;stroke-miterlimit:4;stroke-opacity:1;stroke-dasharray:none;stroke-dashoffset:0;marker:none;visibility:visible;display:inline;overflow:visible;enable-background:accumulate;clip-rule:nonzero;isolation:auto;mix-blend-mode:normal;color-interpolation:sRGB;color-interpolation-filters:linearRGB;solid-color:#000000;solid-opacity:1;filter-blend-mode:normal;filter-gaussianBlur-deviation:0;color-rendering:auto;image-rendering:auto;shape-rendering:auto;text-rendering:auto"
     id="path2555-6"
     d="M 16.000002,1.4999991 C 7.999402,1.4999991 1.5,7.9993984 1.5,15.999999 1.5,24.000599 7.999402,30.500002 16.000002,30.5 24.000599,30.5 30.500008,24.000599 30.5,15.999999 30.5,7.9993984 24.000599,1.4999991 16.000002,1.4999991 z" />
  <path
     style="opacity:0.8;color:#000000;fill:none;stroke:url(#linearGradient3373-2);stroke-width:1;stroke-linecap:butt;stroke-linejoin:miter;stroke-miterlimit:4;stroke-opacity:1;stroke-dasharray:none;stroke-dashoffset:0;marker:none;visibility:visible;display:inline;overflow:visible;enable-background:accumulate"
     id="path2555-7"
     d="M 24.000001,16.5 C 19.86176,16.5 16.5,19.861758 16.5,24 c 0,4.138242 3.36176,7.500001 7.500001,7.5 4.138239,0 7.500003,-3.361758 7.499999,-7.5 0,-4.138242 -3.36176,-7.5 -7.499999,-7.5 z" />
  <path
     style="color:#000000;fill:url(#radialGradient3370);fill-opacity:1;fill-rule:nonzero;stroke:none;stroke-width:1;marker:none;visibility:visible;display:inline;overflow:visible;enable-background:accumulate"
     id="path2555-03"
     d="M 24.000001,17 C 20.137642,17 17,20.137641 17,24 c 0,3.862358 3.137642,7.000001 7.000001,7 3.862357,0 7.000002,-3.137642 6.999999,-7 0,-3.862359 -3.137642,-7 -6.999999,-7 z" />
  <path
     style="color:#000000;fill:#ffffff;fill-opacity:1;fill-rule:nonzero;stroke:none;stroke-width:1;marker:none;visibility:visible;display:inline;overflow:visible;enable-background:accumulate"
     id="rect3005-5-6"
     d="m 20,24 0,1 4,4 4,-4 0,-1 z" />
  <path
     style="color:#000000;fill:#87a556;fill-opacity:1;fill-rule:nonzero;stroke:none;stroke-width:1;marker:none;visibility:visible;display:inline;overflow:visible;enable-background:accumulate"
     id="rect3005-5"
     d="m 23,20 0,4 -3,0 4,4 4,-4 -3,0 0,-4 z" />
  <path
     style="opacity:0.15;color:#000000;fill:#000000;fill-opacity:1;fill-rule:nonzero;stroke:none;stroke-width:1;marker:none;visibility:visible;display:inline;overflow:visible;enable-background:accumulate"
     id="rect4305"
     d="m 23,20 0,1 2,0 0,-1 z m -3,4 1,1 2,0 0,-1 z m 5,0 0,1 2,0 1,-1 z" />
  <path
     style="color:#000000;fill:none;stroke:url(#linearGradient3364);stroke-width:0.99999988;stroke-linecap:round;stroke-linejoin:round;stroke-miterlimit:4;stroke-opacity:1;stroke-dasharray:none;stroke-dashoffset:0;marker:none;visibility:visible;display:inline;overflow:visible;enable-background:accumulate"
     id="path8655-6-4"
     d="M 30.5,23.999769 C 30.5,27.589736 27.589636,30.5 24.000083,30.5 20.410199,30.5 17.5,27.589703 17.5,23.999769 17.5,20.40997 20.410199,17.5 24.000083,17.5 27.589636,17.5 30.5,20.40997 30.5,23.999769 l 0,0 z" />
</svg>
