<?xml version="1.0" encoding="UTF-8" standalone="no"?>
<svg
   xmlns:dc="http://purl.org/dc/elements/1.1/"
   xmlns:cc="http://creativecommons.org/ns#"
   xmlns:rdf="http://www.w3.org/1999/02/22-rdf-syntax-ns#"
   xmlns:svg="http://www.w3.org/2000/svg"
   xmlns="http://www.w3.org/2000/svg"
   xmlns:sodipodi="http://sodipodi.sourceforge.net/DTD/sodipodi-0.dtd"
   xmlns:inkscape="http://www.inkscape.org/namespaces/inkscape"
   version="1.1"
   width="24"
   height="24"
   id="svg3014"
   inkscape:version="1.0alpha2 (48e7c74405, 2019-09-05)"
   sodipodi:docname="gpm-primary-060-charging.svg">
  <sodipodi:namedview
     pagecolor="#ffffff"
     bordercolor="#666666"
     borderopacity="1"
     objecttolerance="10"
     gridtolerance="10"
     guidetolerance="10"
     inkscape:pageopacity="0"
     inkscape:pageshadow="2"
     inkscape:window-width="2560"
     inkscape:window-height="1379"
     id="namedview3007"
     showgrid="false"
     inkscape:zoom="13.181818"
     inkscape:cx="16"
     inkscape:cy="13.54138"
     inkscape:window-x="0"
     inkscape:window-y="30"
     inkscape:window-maximized="1"
     inkscape:current-layer="svg3014"
     inkscape:document-rotation="0" />
  <defs
     id="defs3016" />
  <metadata
     id="metadata3019">
    <rdf:RDF>
      <cc:Work
         rdf:about="">
        <dc:format>image/svg+xml</dc:format>
        <dc:type
           rdf:resource="http://purl.org/dc/dcmitype/StillImage" />
        <dc:title></dc:title>
      </cc:Work>
    </rdf:RDF>
  </metadata>
  <g
     transform="matrix(1.1,0,0,1.1,-0.10000001,-0.10000001)"
     id="g7756">
    <g
       transform="matrix(0.83333333,0,0,0.83333333,-3.1666666,3.9166667)"
       id="g7739">
      <g
         transform="matrix(0.61111111,0,0,1,2.7222222,-3)"
         id="g3076"
         style="opacity:0.4">
        <rect
           width="8"
           height="18"
           rx="0.5"
           ry="0.81818181"
           x="8"
           y="-25"
           transform="rotate(90)"
           id="rect3190-4"
           style="display:inline;overflow:visible;visibility:visible;opacity:0.3;fill:#000000;fill-opacity:1;fill-rule:evenodd;stroke:none;stroke-width:1.7;marker:none;enable-background:accumulate" />
        <rect
           width="8"
           height="18"
           rx="0.5"
           ry="0.81818181"
           x="7"
           y="-25"
           transform="rotate(90)"
           id="rect3190"
           style="display:inline;overflow:visible;visibility:visible;fill:#dfdbd2;fill-opacity:1;fill-rule:evenodd;stroke:none;stroke-width:1.7;marker:none;enable-background:accumulate" />
      </g>
      <path
         d="M 7,3 C 5.892,3 5,3.892 5,5 v 8 c 0,1.108 0.892,2 2,2 h 18 c 1.108,0 2,-0.892 2,-2 v -1 h 0.384328 C 28.492328,12 29,11.108 29,10 V 8 C 29,6.892 28.574418,6 27.466418,6 H 27 V 5 C 27,3.892 26.108,3 25,3 Z m 0,1 h 18 c 0.554,0 1,0.446 1,1 v 8 c 0,0.554 -0.446,1 -1,1 H 7 C 6.446,14 6,13.554 6,13 V 5 C 6,4.446 6.446,4 7,4 Z m 20,3 c 0.597415,0 1,0.051 1,1 v 2 c 0,0.9914 -0.406448,1 -1,1 z"
         id="rect2401-5"
         style="display:inline;overflow:visible;visibility:visible;opacity:0.3;fill:#000000;fill-opacity:1;fill-rule:nonzero;stroke:none;stroke-width:1;marker:none;enable-background:accumulate"
         inkscape:connector-curvature="0" />
      <path
         d="M 7,2 C 5.892,2 5,2.892 5,4 v 8 c 0,1.108 0.892,2 2,2 h 18 c 1.108,0 2,-0.892 2,-2 v -1 h 0.384328 C 28.492328,11 29,10.108 29,9 V 7 C 29,5.892 28.574418,5 27.466418,5 H 27 V 4 C 27,2.892 26.108,2 25,2 Z m 0,1 h 18 c 0.554,0 1,0.446 1,1 v 8 c 0,0.554 -0.446,1 -1,1 H 7 C 6.446,13 6,12.554 6,12 V 4 C 6,3.446 6.446,3 7,3 Z m 20,3 c 0.597415,0 1,0.051 1,1 v 2 c 0,0.9914 -0.406448,1 -1,1 z"
         id="rect2401"
         style="display:inline;overflow:visible;visibility:visible;fill:#dfdbd2;fill-opacity:1;fill-rule:nonzero;stroke:none;stroke-width:1;marker:none;enable-background:accumulate"
         inkscape:connector-curvature="0" />
      <rect
         width="19.5"
         height="9.500001"
         rx="0.75"
         ry="0.75"
         x="6.25"
         y="3.25"
         id="rect3192"
         style="display:inline;overflow:visible;visibility:visible;opacity:0.3;fill:none;stroke:#dfdbd2;stroke-width:0.5;stroke-linecap:round;stroke-linejoin:miter;stroke-miterlimit:4;stroke-dasharray:none;stroke-dashoffset:0;stroke-opacity:1;marker:none;enable-background:accumulate" />
      <path
         inkscape:connector-curvature="0"
         d="M 22.997788,12 15.997789,5 V 9 L 9.9977883,6 17.997789,13 v -3 z"
         id="path3172-8"
         style="opacity:0.3;fill:#000000;fill-opacity:1;fill-rule:evenodd;stroke:none" />
      <path
         inkscape:connector-curvature="0"
         d="m 22.997788,11.005385 -6.999999,-7 v 4 l -6.0000007,-3 8.0000007,7 v -3 z"
         id="path3172"
         style="fill:#dfdbd2;fill-opacity:1;fill-rule:evenodd;stroke:none" />
    </g>
  </g>
</svg>
