<?xml version="1.0" encoding="UTF-8" standalone="no"?>
<svg
   xmlns:dc="http://purl.org/dc/elements/1.1/"
   xmlns:cc="http://creativecommons.org/ns#"
   xmlns:rdf="http://www.w3.org/1999/02/22-rdf-syntax-ns#"
   xmlns:svg="http://www.w3.org/2000/svg"
   xmlns="http://www.w3.org/2000/svg"
   xmlns:sodipodi="http://sodipodi.sourceforge.net/DTD/sodipodi-0.dtd"
   xmlns:inkscape="http://www.inkscape.org/namespaces/inkscape"
   version="1.1"
   id="Capa_1"
   x="0px"
   y="0px"
   viewBox="0 0 22 22"
   xml:space="preserve"
   sodipodi:docname="indicator-notification-read.svg"
   width="22"
   height="22"
   inkscape:version="1.0alpha2 (0e866e7627, 2019-09-03)"><metadata
   id="metadata47">
  <rdf:RDF>
    <cc:Work
   rdf:about="">
      <dc:format>image/svg+xml</dc:format>



      <dc:type
   rdf:resource="http://purl.org/dc/dcmitype/StillImage" />



      <dc:title />



    </cc:Work>



  </rdf:RDF>



</metadata>



<defs
   id="defs45" />



<sodipodi:namedview
   pagecolor="#ffffff"
   bordercolor="#666666"
   inkscape:document-rotation="0"
   borderopacity="1"
   objecttolerance="10"
   gridtolerance="10"
   guidetolerance="10"
   inkscape:pageopacity="0"
   inkscape:pageshadow="2"
   inkscape:window-width="1278"
   inkscape:window-height="1016"
   id="namedview43"
   showgrid="false"
   fit-margin-top="0"
   fit-margin-left="0"
   fit-margin-right="0"
   fit-margin-bottom="0"
   inkscape:zoom="16"
   inkscape:cx="-10.6875"
   inkscape:cy="11.99982"
   inkscape:window-x="70"
   inkscape:window-y="27"
   inkscape:window-maximized="0"
   inkscape:current-layer="Capa_1" />
































































<g
   transform="matrix(0.90001318,0,0,0.90001318,1.099855,1.099855)"
   id="g322">
  <g
     style="fill:#3c3c3c;fill-opacity:1"
     id="g2629">
  <g
   style="fill:#3c3c3c;fill-opacity:1"
   transform="matrix(0.83333337,0,0,0.83333337,0.99999956,0.99999956)"
   id="g1535">
  <g
   transform="matrix(0.05769146,0,0,0.05769146,2.0516573e-4,1.7632e-4)"
   style="fill:#3c3c3c;fill-opacity:1"
   id="g10">
	<g
   style="fill:#3c3c3c;fill-opacity:1"
   id="g8">
		<g
   style="fill:#3c3c3c;fill-opacity:1"
   id="g6">
			<path
   inkscape:connector-curvature="0"
   style="fill:#3c3c3c;fill-opacity:1"
   id="path2"
   d="m 208,416 c 23.573,0 42.667,-19.093 42.667,-42.667 H 165.334 C 165.333,396.907 184.427,416 208,416 Z" />




			<path
   inkscape:connector-curvature="0"
   style="fill:#3c3c3c;fill-opacity:1"
   id="path4"
   d="M 336,288 V 181.333 c 0,-65.6 -34.88,-120.32 -96,-134.827 V 32 C 240,14.293 225.707,0 208,0 190.293,0 176,14.293 176,32 V 46.507 C 114.88,61.014 80,115.734 80,181.334 V 288 L 37.333,330.667 V 352 h 341.333 v -21.333 z" />




		</g>




	</g>




</g>


</g>

</g>
  <g
     transform="translate(-198.1535,-196.00018)"
     id="g12">
</g>
  <g
     transform="translate(-198.1535,-196.00018)"
     id="g14">
</g>
  <g
     transform="translate(-198.1535,-196.00018)"
     id="g16">
</g>
  <g
     transform="translate(-198.1535,-196.00018)"
     id="g18">
</g>
  <g
     transform="translate(-198.1535,-196.00018)"
     id="g20">
</g>
  <g
     transform="translate(-198.1535,-196.00018)"
     id="g22">
</g>
  <g
     transform="translate(-198.1535,-196.00018)"
     id="g24">
</g>
  <g
     transform="translate(-198.1535,-196.00018)"
     id="g26">
</g>
  <g
     transform="translate(-198.1535,-196.00018)"
     id="g28">
</g>
  <g
     transform="translate(-198.1535,-196.00018)"
     id="g30">
</g>
  <g
     transform="translate(-198.1535,-196.00018)"
     id="g32">
</g>
  <g
     transform="translate(-198.1535,-196.00018)"
     id="g34">
</g>
  <g
     transform="translate(-198.1535,-196.00018)"
     id="g36">
</g>
  <g
     transform="translate(-198.1535,-196.00018)"
     id="g38">
</g>
  <g
     transform="translate(-198.1535,-196.00018)"
     id="g40">
</g>
</g>




</svg>
