<?xml version="1.0" encoding="UTF-8" standalone="no"?>
<svg
   xmlns:dc="http://purl.org/dc/elements/1.1/"
   xmlns:cc="http://creativecommons.org/ns#"
   xmlns:rdf="http://www.w3.org/1999/02/22-rdf-syntax-ns#"
   xmlns:svg="http://www.w3.org/2000/svg"
   xmlns="http://www.w3.org/2000/svg"
   xmlns:sodipodi="http://sodipodi.sourceforge.net/DTD/sodipodi-0.dtd"
   xmlns:inkscape="http://www.inkscape.org/namespaces/inkscape"
   inkscape:version="1.0alpha2 (ba7fb61f5a, 2019-08-31)"
   height="22"
   width="22"
   sodipodi:docname="indicator-notification-read-dnd.svg"
   xml:space="preserve"
   viewBox="0 0 22 22"
   y="0px"
   x="0px"
   id="Capa_1"
   version="1.1"><metadata
   id="metadata47">
  <rdf:RDF>
    <cc:Work
   rdf:about="">
      <dc:format>image/svg+xml</dc:format>


      <dc:type
   rdf:resource="http://purl.org/dc/dcmitype/StillImage" />


      <dc:title />


    </cc:Work>


  </rdf:RDF>


</metadata>


<defs
   id="defs45" />


<sodipodi:namedview
   inkscape:current-layer="Capa_1"
   inkscape:window-maximized="0"
   inkscape:window-y="30"
   inkscape:window-x="2560"
   inkscape:cy="11"
   inkscape:cx="1.09375"
   inkscape:zoom="16"
   fit-margin-bottom="0"
   fit-margin-right="0"
   fit-margin-left="0"
   fit-margin-top="0"
   showgrid="false"
   id="namedview43"
   inkscape:window-height="1378"
   inkscape:window-width="1278"
   inkscape:pageshadow="2"
   inkscape:pageopacity="0"
   guidetolerance="10"
   gridtolerance="10"
   objecttolerance="10"
   borderopacity="1"
   inkscape:document-rotation="0"
   bordercolor="#666666"
   pagecolor="#ffffff" />



<g
   style="fill:#3c3c3c;fill-opacity:1"
   id="g2651">
  <g
     id="g10"
     transform="matrix(0.04807692,0,0,0.04807692,1.0000247,1.0000006)"
     style="fill:#3c3c3c;fill-opacity:1">
	<g
   id="g8"
   style="fill:#3c3c3c;fill-opacity:1">
		<g
   id="g6"
   style="fill:#3c3c3c;fill-opacity:1">
			<path
   d="m 208,416 c 23.573,0 42.667,-19.093 42.667,-42.667 H 165.334 C 165.333,396.907 184.427,416 208,416 Z"
   id="path2"
   inkscape:connector-curvature="0"
   style="fill:#3c3c3c;fill-opacity:1" />



			<path
   d="M 336,288 V 181.333 c 0,-65.6 -34.88,-120.32 -96,-134.827 V 32 C 240,14.293 225.707,0 208,0 190.293,0 176,14.293 176,32 V 46.507 C 114.88,61.014 80,115.734 80,181.334 V 288 L 37.333,330.667 V 352 H 378.666 V 330.667 Z M 261.333,155.733 201.6,228.267 h 59.733 v 38.4 H 154.667 v -38.4 L 214.4,155.734 h -59.733 v -38.4 h 106.667 v 38.399 z"
   id="path4"
   inkscape:connector-curvature="0"
   style="fill:#3c3c3c;fill-opacity:1" />



		</g>



	</g>



</g>
</g>



<g
   transform="translate(-198.97387,-197)"
   id="g12">
</g>



<g
   transform="translate(-198.97387,-197)"
   id="g14">
</g>



<g
   transform="translate(-198.97387,-197)"
   id="g16">
</g>



<g
   transform="translate(-198.97387,-197)"
   id="g18">
</g>



<g
   transform="translate(-198.97387,-197)"
   id="g20">
</g>



<g
   transform="translate(-198.97387,-197)"
   id="g22">
</g>



<g
   transform="translate(-198.97387,-197)"
   id="g24">
</g>



<g
   transform="translate(-198.97387,-197)"
   id="g26">
</g>



<g
   transform="translate(-198.97387,-197)"
   id="g28">
</g>



<g
   transform="translate(-198.97387,-197)"
   id="g30">
</g>



<g
   transform="translate(-198.97387,-197)"
   id="g32">
</g>



<g
   transform="translate(-198.97387,-197)"
   id="g34">
</g>



<g
   transform="translate(-198.97387,-197)"
   id="g36">
</g>



<g
   transform="translate(-198.97387,-197)"
   id="g38">
</g>



<g
   transform="translate(-198.97387,-197)"
   id="g40">
</g>



</svg>
