<?xml version="1.0" encoding="UTF-8" standalone="no"?>
<svg
   xmlns:dc="http://purl.org/dc/elements/1.1/"
   xmlns:cc="http://creativecommons.org/ns#"
   xmlns:rdf="http://www.w3.org/1999/02/22-rdf-syntax-ns#"
   xmlns:svg="http://www.w3.org/2000/svg"
   xmlns="http://www.w3.org/2000/svg"
   xmlns:xlink="http://www.w3.org/1999/xlink"
   version="1.0"
   width="128"
   height="128"
   id="svg9481">
  <metadata
     id="metadata83">
    <rdf:RDF>
      <cc:Work
         rdf:about="">
        <dc:format>image/svg+xml</dc:format>
        <dc:type
           rdf:resource="http://purl.org/dc/dcmitype/StillImage" />
        <dc:title></dc:title>
      </cc:Work>
    </rdf:RDF>
  </metadata>
  <defs
     id="defs9483">
    <linearGradient
       id="linearGradient5060-6">
      <stop
         offset="0"
         id="stop5062-3" />
      <stop
         offset="1"
         style="stop-opacity:0"
         id="stop5064-1" />
    </linearGradient>
    <linearGradient
       x1="12.579"
       y1="2.9137"
       gradientTransform="matrix(2.6421 0 0 2.4848 .58735 11.864)"
       x2="12.579"
       gradientUnits="userSpaceOnUse"
       y2="43.811"
       id="linearGradient3308">
      <stop
         offset="0"
         style="stop-color:#fff"
         id="stop2240" />
      <stop
         offset="1"
         style="stop-color:#fff;stop-opacity:0"
         id="stop2242" />
    </linearGradient>
    <linearGradient
       x1="33.579"
       y1="5.7086"
       gradientTransform="matrix(2.191 0 0 1.7592 -6.6088 8.121)"
       x2="33.579"
       gradientUnits="userSpaceOnUse"
       y2="16.323"
       id="linearGradient3311">
      <stop
         offset="0"
         style="stop-color:#fdfdf8"
         id="stop2538" />
      <stop
         offset="1"
         style="stop-color:#d6d3b4"
         id="stop2540" />
    </linearGradient>
    <linearGradient
       x1="16.916"
       y1="7.0006"
       gradientTransform="matrix(2.6889 0 0 2.667 -.53334 -.50385)"
       x2="16.916"
       gradientUnits="userSpaceOnUse"
       y2="14"
       id="linearGradient3313">
      <stop
         offset="0"
         style="stop-color:#aeae94"
         id="stop2531" />
      <stop
         offset="1"
         style="stop-color:#626337"
         id="stop2533" />
    </linearGradient>
    <linearGradient
       x1="24.683"
       y1="9.2417"
       gradientTransform="matrix(2.6081 0 0 .93602 1.4228 27.35)"
       x2="24.683"
       gradientUnits="userSpaceOnUse"
       y2="13.523"
       id="linearGradient3316">
      <stop
         offset="0"
         id="stop3284" />
      <stop
         offset="1"
         style="stop-opacity:0"
         id="stop3286" />
    </linearGradient>
    <linearGradient
       x1="16.626"
       y1="15.298"
       gradientTransform="matrix(2.6122 0 0 2.7869 1.3061 3.3658)"
       x2="20.055"
       gradientUnits="userSpaceOnUse"
       y2="24.628"
       id="linearGradient3319">
      <stop
         offset="0"
         style="stop-color:#fff"
         id="stop2687" />
      <stop
         offset="1"
         style="stop-color:#fff;stop-opacity:0"
         id="stop2689" />
    </linearGradient>
    <radialGradient
       r="23"
       gradientTransform="matrix(-4.8906e-8 -2.8515 3.7557 0 96.174 156.12)"
       cx="26.617"
       cy="-2.0645"
       gradientUnits="userSpaceOnUse"
       id="radialGradient3322">
      <stop
         offset="0"
         style="stop-color:#abc187;stop-opacity:1"
         id="stop2749" />
      <stop
         offset=".26238"
         style="stop-color:#87a556;stop-opacity:1"
         id="stop2751" />
      <stop
         offset=".66094"
         style="stop-color:#657b40;stop-opacity:1"
         id="stop2753" />
      <stop
         offset="1"
         style="stop-color:#4a5a2f;stop-opacity:1"
         id="stop2755" />
    </radialGradient>
    <linearGradient
       x1="10.014"
       y1="44.96"
       gradientTransform="matrix(2.5746 0 0 2.4175 2.2107 10.951)"
       x2="10.014"
       gradientUnits="userSpaceOnUse"
       y2="2.8765"
       id="linearGradient3324">
      <stop
         offset="0"
         style="stop-color:#4d5e31;stop-opacity:1"
         id="stop2759" />
      <stop
         offset="1"
         style="stop-color:#87a556;stop-opacity:1"
         id="stop2761" />
    </linearGradient>
    <radialGradient
       r="117.14"
       gradientTransform="matrix(-.14458 0 0 .053529 105.13 91.374)"
       cx="605.71"
       cy="486.65"
       gradientUnits="userSpaceOnUse"
       xlink:href="#linearGradient5060-6"
       id="radialGradient3327" />
    <radialGradient
       r="117.14"
       gradientTransform="matrix(.14458 0 0 .053529 22.866 91.374)"
       cx="605.71"
       cy="486.65"
       gradientUnits="userSpaceOnUse"
       xlink:href="#linearGradient5060-6"
       id="radialGradient3330" />
    <linearGradient
       x1="302.86"
       y1="366.65"
       gradientTransform="matrix(.19053 0 0 .053529 -4.8639 91.374)"
       x2="302.86"
       gradientUnits="userSpaceOnUse"
       y2="609.51"
       id="linearGradient3333">
      <stop
         offset="0"
         style="stop-opacity:0"
         id="stop5050-5" />
      <stop
         offset=".5"
         id="stop5056-9" />
      <stop
         offset="1"
         style="stop-opacity:0"
         id="stop5052-6" />
    </linearGradient>
    <linearGradient
       id="linearGradient8589">
      <stop
         offset="0"
         style="stop-color:#fefefe"
         id="stop8591" />
      <stop
         offset="1"
         style="stop-color:#cbcbcb"
         id="stop8593" />
    </linearGradient>
    <linearGradient
       id="linearGradient3211">
      <stop
         offset="0"
         style="stop-color:#fff"
         id="stop3213" />
      <stop
         offset="1"
         style="stop-color:#fff;stop-opacity:0"
         id="stop3215" />
    </linearGradient>
    <linearGradient
       id="linearGradient3600">
      <stop
         offset="0"
         style="stop-color:#f4f4f4"
         id="stop3602" />
      <stop
         offset="1"
         style="stop-color:#dbdbdb"
         id="stop3604" />
    </linearGradient>
    <linearGradient
       id="linearGradient3104">
      <stop
         offset="0"
         style="stop-color:#aaa"
         id="stop3106" />
      <stop
         offset="1"
         style="stop-color:#c8c8c8"
         id="stop3108" />
    </linearGradient>
    <linearGradient
       x1="-51.786"
       y1="50.786"
       gradientTransform="matrix(.39221 0 0 .44736 28.199 -1.2387)"
       x2="-51.786"
       gradientUnits="userSpaceOnUse"
       xlink:href="#linearGradient3104"
       y2="2.9062"
       id="linearGradient2438" />
    <linearGradient
       x1="25.132"
       y1=".98521"
       gradientTransform="matrix(.48572 0 0 .47803 -.65717 -.70595)"
       x2="25.132"
       gradientUnits="userSpaceOnUse"
       xlink:href="#linearGradient3600"
       y2="47.013"
       id="linearGradient2435" />
    <linearGradient
       x1="24"
       y1="2"
       gradientTransform="matrix(.45454 0 0 .46512 .090934 .33723)"
       x2="24"
       gradientUnits="userSpaceOnUse"
       xlink:href="#linearGradient3211"
       y2="46.017"
       id="linearGradient2429" />
    <linearGradient
       x1="32.892"
       y1="8.059"
       gradientTransform="matrix(.47785 0 0 .55248 -.62775 -.076128)"
       x2="36.358"
       gradientUnits="userSpaceOnUse"
       xlink:href="#linearGradient8589"
       y2="5.4565"
       id="linearGradient2425" />
    <radialGradient
       r="139.56"
       cx="102"
       cy="112.3"
       gradientUnits="userSpaceOnUse"
       id="XMLID_8_">
      <stop
         offset="0"
         style="stop-color:#b7b8b9"
         id="stop41" />
      <stop
         offset=".17403"
         style="stop-color:#ececec"
         id="stop47" />
      <stop
         offset=".23908"
         style="stop-color:#fafafa;stop-opacity:0"
         id="stop49" />
      <stop
         offset=".30111"
         style="stop-color:#fff;stop-opacity:0"
         id="stop51" />
      <stop
         offset=".53130"
         style="stop-color:#fafafa;stop-opacity:0"
         id="stop53" />
      <stop
         offset=".84490"
         style="stop-color:#ebecec;stop-opacity:0"
         id="stop55" />
      <stop
         offset="1"
         style="stop-color:#e1e2e3;stop-opacity:0"
         id="stop57" />
    </radialGradient>
    <radialGradient
       r="139.56"
       gradientTransform="matrix(.17021 0 0 -.19072 .10638 23.717)"
       cx="92.09"
       cy="102.7"
       gradientUnits="userSpaceOnUse"
       xlink:href="#XMLID_8_"
       id="radialGradient3538" />
  </defs>
  <rect
     x="18"
     y="111"
     width="92"
     height="13"
     style="opacity:.3;fill:url(#linearGradient3333)"
     id="rect2512" />
  <path
     d="m110 111v12.999c7.4457 0.0245 18-2.9125 18-6.5005s-8.3088-6.4988-18-6.4988z"
     style="opacity:.3;fill:url(#radialGradient3330)"
     id="path2514" />
  <path
     d="m18 111v12.999c-7.4457 0.0245-18-2.9125-18-6.5005s8.3088-6.4988 18-6.4988z"
     style="opacity:.3;fill:url(#radialGradient3327)"
     id="path2516" />
  <rect
     x="3.5011"
     y="19.501"
     width="121"
     height="98.998"
     ry="4.4989"
     rx="4.4989"
     style="stroke-linejoin:round;fill-rule:evenodd;stroke:url(#linearGradient3324);stroke-linecap:round;stroke-width:1.0021;fill:url(#radialGradient3322)"
     id="rect2573" />
  <path
     d="m9.7143 20c-3.1563 0-5.7143 2.729-5.7143 6.096v44.59c0.00724 0.37512 0.16143 0.72986 0.42514 0.9781s0.61283 0.36729 0.96261 0.32824l117.55-19.856c0.60468-0.10174 1.0528-0.65334 1.0612-1.3064v-24.734c0-3.367-2.56-6.096-5.71-6.096h-108.58z"
     style="opacity:.2;fill:url(#linearGradient3319);fill-rule:evenodd"
     id="path2603" />
  <rect
     x="4"
     y="36"
     width="120"
     height="4"
     ry="0"
     rx="0"
     style="opacity:.2;fill-rule:evenodd;fill:url(#linearGradient3316)"
     id="rect1436" />
  <path
     d="m10.367 19.5l108.07 0.0229c4.2079 0 6.063 1.3631 6.063 5.0851v10.892h-121l-3e-7 -10.892c0-3.9671 2.0506-5.1084 6.867-5.1084z"
     style="fill-rule:evenodd;stroke:url(#linearGradient3313);fill:url(#linearGradient3311)"
     id="rect2311" />
  <rect
     x="4.5019"
     y="20.502"
     width="119"
     height="96.996"
     ry="4.4981"
     rx="4.4981"
     style="opacity:.4;stroke-linejoin:round;stroke:url(#linearGradient3308);stroke-linecap:round;stroke-width:1.0037;fill:none"
     id="rect2601" />
  <g
     transform="matrix(.82355 0 0 .90488 12.441 46.045)"
     id="g3510">
    <path
       d="m2.5 0.49996h11.5c0.68337 0.2373 4.5413 3.1282 5.5 5 0 5.7292 0.000039 10.271 0.000039 16h-17v-21z"
       style="stroke-linejoin:round;stroke:url(#linearGradient2438);stroke-width:1.1583;fill:url(#linearGradient2435)"
       id="path3512" />
    <path
       d="m3.1702 22c-0.0938 0-0.1702-0.086-0.1702-0.191v-20.598c0-0.10528 0.076426-0.19072 0.17021-0.19072 3.5215 0.052717 7.4239-0.078858 10.941 0.013125l4.8389 4.3271 0.04987 16.448c0 0.106-0.076 0.192-0.17 0.192h-15.66z"
       style="opacity:.5;fill:url(#radialGradient3538)"
       id="path4191" />
    <path
       d="m18.5 5.677v15.823h-15v-20h10.394"
       style="opacity:.6;stroke:url(#linearGradient2429);stroke-width:1.1584;fill:none"
       id="path3515" />
    <path
       d="m13.075 1c1.1563 0.32877 0.33906 4.6144 0.33906 4.6144s4.5154-0.42774 5.6077 1.195c1.489 2.2122-0.068-0.6352-0.173-0.8217-0.756-1.3401-3.867-4.5471-5.046-4.9412-0.088-0.0295-0.283-0.0465-0.728-0.0465z"
       style="opacity:.2;fill-rule:evenodd"
       id="path3370" />
    <path
       d="m13 1c1.5262 0 1 4 1 4s4.9921-0.45326 4.9921 2c0-0.59774 0.05575-1.4784-0.06407-1.6559-0.839-1.243-3.744-3.8619-4.798-4.2976-0.086-0.0356-0.686-0.0465-1.13-0.0465z"
       style="fill:url(#linearGradient2425);fill-rule:evenodd"
       id="path3518" />
  </g>
  <g
     transform="matrix(.82355 0 0 .90488 12.441 75.045)"
     id="g3522">
    <path
       d="m2.5 0.49996h11.5c0.68337 0.2373 4.5413 3.1282 5.5 5 0 5.7292 0.000039 10.271 0.000039 16h-17v-21z"
       style="stroke-linejoin:round;stroke:url(#linearGradient2438);stroke-width:1.1583;fill:url(#linearGradient2435)"
       id="path3524" />
    <path
       d="m3.1702 22c-0.0938 0-0.1702-0.086-0.1702-0.191v-20.598c0-0.10528 0.076426-0.19072 0.17021-0.19072 3.5215 0.052717 7.4239-0.078858 10.941 0.013125l4.8389 4.3271 0.04987 16.448c0 0.106-0.076 0.192-0.17 0.192h-15.66z"
       style="opacity:.5;fill:url(#radialGradient3538)"
       id="path3526" />
    <path
       d="m18.5 5.677v15.823h-15v-20h10.394"
       style="opacity:.6;stroke:url(#linearGradient2429);stroke-width:1.1584;fill:none"
       id="path3528" />
    <path
       d="m13.075 1c1.1563 0.32877 0.33906 4.6144 0.33906 4.6144s4.5154-0.42774 5.6077 1.195c1.489 2.2122-0.068-0.6352-0.173-0.8217-0.756-1.3401-3.867-4.5471-5.046-4.9412-0.088-0.0295-0.283-0.0465-0.728-0.0465z"
       style="opacity:.2;fill-rule:evenodd"
       id="path3530" />
    <path
       d="m13 1c1.5262 0 1 4 1 4s4.9921-0.45326 4.9921 2c0-0.59774 0.05575-1.4784-0.06407-1.6559-0.839-1.243-3.744-3.8619-4.798-4.2976-0.086-0.0356-0.686-0.0465-1.13-0.0465z"
       style="fill-rule:evenodd;fill:url(#linearGradient2425)"
       id="path3532" />
  </g>
</svg>
