<?xml version="1.0" encoding="UTF-8" standalone="no"?>
<svg
   xmlns:dc="http://purl.org/dc/elements/1.1/"
   xmlns:cc="http://creativecommons.org/ns#"
   xmlns:rdf="http://www.w3.org/1999/02/22-rdf-syntax-ns#"
   xmlns:svg="http://www.w3.org/2000/svg"
   xmlns="http://www.w3.org/2000/svg"
   xmlns:sodipodi="http://sodipodi.sourceforge.net/DTD/sodipodi-0.dtd"
   xmlns:inkscape="http://www.inkscape.org/namespaces/inkscape"
   sodipodi:docname="applications-chat-panel.svg"
   inkscape:version="1.0alpha2 (ba7fb61f5a, 2019-08-31)"
   version="1.1"
   id="svg3795"
   height="16"
   width="16">
  <defs
     id="defs3797" />
  <sodipodi:namedview
     inkscape:document-rotation="0"
     inkscape:window-maximized="1"
     inkscape:window-y="28"
     inkscape:window-x="0"
     inkscape:window-height="1381"
     inkscape:window-width="2560"
     inkscape:document-units="px"
     inkscape:grid-bbox="true"
     showgrid="true"
     inkscape:current-layer="layer1"
     inkscape:cy="8.4730198"
     inkscape:cx="8"
     inkscape:zoom="8.172433"
     inkscape:pageshadow="2"
     inkscape:pageopacity="0.0"
     borderopacity="1.0"
     bordercolor="#666666"
     pagecolor="#ffffff"
     id="base" />
  <metadata
     id="metadata3800">
    <rdf:RDF>
      <cc:Work
         rdf:about="">
        <dc:format>image/svg+xml</dc:format>
        <dc:type
           rdf:resource="http://purl.org/dc/dcmitype/StillImage" />
        <dc:title></dc:title>
      </cc:Work>
    </rdf:RDF>
  </metadata>
  <g
     inkscape:groupmode="layer"
     inkscape:label="Layer 1"
     id="layer1">
    <g
       transform="translate(-1)"
       id="g1405">
      <path
         inkscape:connector-curvature="0"
         d="m 7.6666875,1.777875 c -3.6799425,0 -6.6665624,2.9866199 -6.6665625,6.6665625 0,3.6799425 2.9866201,6.6665625 6.6665625,6.6665625 1.7464509,0 3.3387085,-0.677518 4.5277075,-1.77775 h 4.80548 L 14.027699,10.361074 C 14.212534,9.7498687 14.33325,9.1157017 14.33325,8.4444375 14.33325,4.764495 11.34663,1.7778751 7.6666875,1.777875 Z"
         id="path2396-2"
         style="display:inline;overflow:visible;visibility:visible;opacity:0.3;fill:#000000;fill-opacity:1;fill-rule:evenodd;stroke:none;stroke-width:0.888875;marker:none;enable-background:accumulate" />
      <path
         inkscape:connector-curvature="0"
         d="m 7.6666875,0.889 c -3.6799425,0 -6.6665624,2.9866199 -6.6665625,6.6665625 0,3.6799425 2.9866201,6.6665625 6.6665625,6.6665625 1.7464509,0 3.3387085,-0.677518 4.5277075,-1.77775 h 4.80548 L 14.027699,9.4721992 C 14.212534,8.8609937 14.33325,8.2268267 14.33325,7.5555625 14.33325,3.87562 11.34663,0.88900009 7.6666875,0.889 Z"
         id="path2396"
         style="display:inline;overflow:visible;visibility:visible;fill:#dfdbd2;fill-opacity:1;fill-rule:evenodd;stroke:none;stroke-width:0.888875;marker:none;enable-background:accumulate" />
    </g>
  </g>
</svg>
