<?xml version="1.0" encoding="UTF-8" standalone="no"?>
<svg
   xmlns:dc="http://purl.org/dc/elements/1.1/"
   xmlns:cc="http://creativecommons.org/ns#"
   xmlns:rdf="http://www.w3.org/1999/02/22-rdf-syntax-ns#"
   xmlns:svg="http://www.w3.org/2000/svg"
   xmlns="http://www.w3.org/2000/svg"
   xmlns:sodipodi="http://sodipodi.sourceforge.net/DTD/sodipodi-0.dtd"
   xmlns:inkscape="http://www.inkscape.org/namespaces/inkscape"
   sodipodi:docname="applications-email-panel.svg"
   inkscape:version="1.0alpha2 (ba7fb61f5a, 2019-08-31)"
   id="svg3229"
   height="16"
   width="16"
   version="1.0">
  <metadata
     id="metadata9">
    <rdf:RDF>
      <cc:Work
         rdf:about="">
        <dc:format>image/svg+xml</dc:format>
        <dc:type
           rdf:resource="http://purl.org/dc/dcmitype/StillImage" />
        <dc:title></dc:title>
      </cc:Work>
    </rdf:RDF>
  </metadata>
  <sodipodi:namedview
     inkscape:document-rotation="0"
     inkscape:current-layer="svg3229"
     inkscape:window-maximized="1"
     inkscape:window-y="28"
     inkscape:window-x="0"
     inkscape:cy="11"
     inkscape:cx="4.761194"
     inkscape:zoom="8.6138461"
     showgrid="false"
     id="namedview7"
     inkscape:window-height="1381"
     inkscape:window-width="2560"
     inkscape:pageshadow="2"
     inkscape:pageopacity="0"
     guidetolerance="10"
     gridtolerance="10"
     objecttolerance="10"
     borderopacity="1"
     bordercolor="#666666"
     pagecolor="#ffffff" />
  <defs
     id="defs3231" />
  <g
     transform="translate(0,-0.5)"
     id="g1401">
    <path
       inkscape:connector-curvature="0"
       style="display:inline;overflow:visible;visibility:visible;opacity:0.3;fill:#000000;fill-opacity:1;fill-rule:nonzero;stroke:none;stroke-width:0.888923;marker:none;enable-background:accumulate"
       id="rect3170-2"
       d="m 1.1597684,3.6305881 c -0.54171535,0 -1.16007625,0.6757583 -1.16007625,1.1682217 v 8.2657942 c 0,0.649783 0.7012679,1.213396 1.29205655,1.213396 H 14.668921 c 0.708779,0 1.331387,-0.602545 1.331387,-1.223229 V 4.9128121 c 0,-0.6893944 -0.6127,-1.301889 -1.252727,-1.301889 z M 1.638644,4.6387404 7.7222119,10.722308 h 0.527798 L 14.361356,4.6387404 14.97249,5.249875 11.333462,8.9444615 14.083567,11.750125 13.472433,12.36126 10.666769,9.5555962 8.6389129,11.611231 H 7.3610868 L 5.3332307,9.5555962 2.5275672,12.389038 1.9164325,11.750125 4.6943171,8.9444615 1.0275095,5.249875 Z" />
    <path
       inkscape:connector-curvature="0"
       style="display:inline;overflow:visible;visibility:visible;fill:#dfdbd2;fill-opacity:1;fill-rule:nonzero;stroke:none;stroke-width:0.888923;marker:none;enable-background:accumulate"
       id="rect3170"
       d="m 1.1597684,2.741665 c -0.54171535,0 -1.16007625,0.6757584 -1.16007625,1.1682218 v 8.2657942 c 0,0.649783 0.7012679,1.213396 1.29205655,1.213396 H 14.668921 c 0.708779,0 1.331387,-0.602545 1.331387,-1.223229 V 4.023889 c 0,-0.6893943 -0.6127,-1.301889 -1.252727,-1.301889 z M 1.638644,3.7498173 7.7222118,9.8333846 H 8.2500099 L 14.361356,3.7498173 14.97249,4.3609519 11.333462,8.0555385 14.083567,10.861202 13.472433,11.472337 10.666769,8.6666731 8.6389129,10.722308 H 7.3610868 L 5.3332307,8.6666731 2.5275672,11.500115 1.9164325,10.861202 4.6943171,8.0555385 1.0275095,4.3609519 Z" />
  </g>
</svg>
