<?xml version="1.0" encoding="UTF-8" standalone="no"?>
<svg
   xmlns:dc="http://purl.org/dc/elements/1.1/"
   xmlns:cc="http://creativecommons.org/ns#"
   xmlns:rdf="http://www.w3.org/1999/02/22-rdf-syntax-ns#"
   xmlns:svg="http://www.w3.org/2000/svg"
   xmlns="http://www.w3.org/2000/svg"
   xmlns:sodipodi="http://sodipodi.sourceforge.net/DTD/sodipodi-0.dtd"
   xmlns:inkscape="http://www.inkscape.org/namespaces/inkscape"
   sodipodi:docname="empathy-offline.svg"
   inkscape:version="1.0alpha2 (ba7fb61f5a, 2019-08-31)"
   style="display:inline"
   id="svg2816"
   height="16"
   width="16"
   version="1.0">
  <metadata
     id="metadata8">
    <rdf:RDF>
      <cc:Work
         rdf:about="">
        <dc:format>image/svg+xml</dc:format>
        <dc:type
           rdf:resource="http://purl.org/dc/dcmitype/StillImage" />
        <dc:title></dc:title>
      </cc:Work>
    </rdf:RDF>
  </metadata>
  <sodipodi:namedview
     inkscape:document-rotation="0"
     inkscape:current-layer="svg2816"
     inkscape:window-maximized="1"
     inkscape:window-y="28"
     inkscape:window-x="0"
     inkscape:cy="11.793814"
     inkscape:cx="-0.49140893"
     inkscape:zoom="14.544833"
     showgrid="false"
     id="namedview6"
     inkscape:window-height="1381"
     inkscape:window-width="2560"
     inkscape:pageshadow="2"
     inkscape:pageopacity="0"
     guidetolerance="10"
     gridtolerance="10"
     objecttolerance="10"
     borderopacity="1"
     bordercolor="#666666"
     pagecolor="#ffffff" />
  <defs
     id="defs2818" />
  <g
     transform="matrix(0.88888889,0,0,0.88888889,-1.0000001e-8,0.88888888)"
     id="g2538">
    <path
       inkscape:connector-curvature="0"
       d="M 7.5,1 C 3.36,1 1e-7,4.3599999 0,8.5 0,12.64 3.3600001,16 7.5,16 c 1.964788,0 3.756106,-0.76222 5.09375,-2 H 18 L 14.65625,10.65625 C 14.864192,9.968633 15,9.255184 15,8.5 15,4.36 11.64,1.0000001 7.5,1 Z M 5.3125,5 7.5,7.25 9.75,5.03125 11,6.3125 8.75,8.5 10.96875,10.75 9.6875,12 7.5,9.75 5.25,11.96875 4,10.6875 6.25,8.5 4.03125,6.25 Z"
       id="path2396-7"
       style="display:inline;overflow:visible;visibility:visible;opacity:0.3;fill:#000000;fill-opacity:1;fill-rule:evenodd;stroke:none;stroke-width:1;marker:none;enable-background:accumulate" />
    <path
       d="M 7.5,0 C 3.36,0 1e-7,3.3599999 0,7.5 0,11.64 3.3600001,15 7.5,15 c 1.964788,0 3.756106,-0.76222 5.09375,-2 H 18 L 14.65625,9.65625 C 14.864192,8.968633 15,8.255184 15,7.5 15,3.36 11.64,1e-7 7.5,0 Z M 5.3125,4 7.5,6.25 9.75,4.03125 11,5.3125 8.75,7.5 10.96875,9.75 9.6875,11 7.5,8.75 5.25,10.96875 4,9.6875 6.25,7.5 4.03125,5.25 Z"
       id="path2396"
       style="display:inline;overflow:visible;visibility:visible;fill:#dfdbd2;fill-opacity:1;fill-rule:evenodd;stroke:none;stroke-width:1;marker:none;enable-background:accumulate"
       inkscape:connector-curvature="0" />
  </g>
  <g
     id="layer1"
     inkscape:label="Layer 1"
     transform="translate(-21.072165,-2.3230241)" />
</svg>
