<?xml version="1.0" encoding="UTF-8" standalone="no"?>
<svg
   xmlns:dc="http://purl.org/dc/elements/1.1/"
   xmlns:cc="http://creativecommons.org/ns#"
   xmlns:rdf="http://www.w3.org/1999/02/22-rdf-syntax-ns#"
   xmlns:svg="http://www.w3.org/2000/svg"
   xmlns="http://www.w3.org/2000/svg"
   xmlns:sodipodi="http://sodipodi.sourceforge.net/DTD/sodipodi-0.dtd"
   xmlns:inkscape="http://www.inkscape.org/namespaces/inkscape"
   sodipodi:docname="empathy-extended-away.svg"
   inkscape:version="1.0alpha2 (ba7fb61f5a, 2019-08-31)"
   style="display:inline"
   id="svg2816"
   height="16"
   width="16"
   version="1.0">
  <metadata
     id="metadata10">
    <rdf:RDF>
      <cc:Work
         rdf:about="">
        <dc:format>image/svg+xml</dc:format>
        <dc:type
           rdf:resource="http://purl.org/dc/dcmitype/StillImage" />
        <dc:title></dc:title>
      </cc:Work>
    </rdf:RDF>
  </metadata>
  <sodipodi:namedview
     inkscape:document-rotation="0"
     inkscape:current-layer="svg2816"
     inkscape:window-maximized="1"
     inkscape:window-y="28"
     inkscape:window-x="0"
     inkscape:cy="40.857185"
     inkscape:cx="-26.961225"
     inkscape:zoom="6.7850896"
     showgrid="false"
     id="namedview8"
     inkscape:window-height="1381"
     inkscape:window-width="2560"
     inkscape:pageshadow="2"
     inkscape:pageopacity="0"
     guidetolerance="10"
     gridtolerance="10"
     objecttolerance="10"
     borderopacity="1"
     bordercolor="#666666"
     pagecolor="#ffffff" />
  <defs
     id="defs2818" />
  <g
     transform="matrix(0.88888889,0,0,0.88888889,-1.0000001e-8,0.88888888)"
     id="g2545">
    <path
       inkscape:connector-curvature="0"
       d="M 9.262048,8.49928 H 7.5 V 5.999281"
       id="path2817-1"
       style="display:inline;opacity:0.3;fill:none;stroke:#000000;stroke-width:1px;stroke-linecap:round;stroke-linejoin:round;stroke-opacity:1" />
    <path
       inkscape:connector-curvature="0"
       d="M 7.5,1 C 3.36,1 1e-7,4.36 0,8.5 0,12.64 3.3600001,16 7.5,16 c 1.964788,0 3.756106,-0.76222 5.09375,-2 H 18 L 14.65625,10.65625 C 14.864192,9.968633 15,9.255184 15,8.5 15,4.36 11.64,1.0000001 7.5,1 Z m 0,3 C 9.984,4 12,6.016 12,8.5 12,10.984 9.984,13 7.5,13 5.016,13 3,10.984 3,8.5 3,6.016 5.016,4 7.5,4 Z"
       id="path2396-1"
       style="display:inline;overflow:visible;visibility:visible;opacity:0.3;fill:#000000;fill-opacity:1;fill-rule:evenodd;stroke:none;stroke-width:1;marker:none;enable-background:accumulate" />
    <path
       d="M 7.5,0 C 3.36,0 1e-7,3.3599999 0,7.5 0,11.64 3.3600001,15 7.5,15 c 1.964788,0 3.756106,-0.76222 5.09375,-2 H 18 L 14.65625,9.65625 C 14.864192,8.968633 15,8.255184 15,7.5 15,3.36 11.64,1e-7 7.5,0 Z m 0,3 C 9.984,3 12,5.016 12,7.5 12,9.984 9.984,12 7.5,12 5.016,12 3,9.984 3,7.5 3,5.016 5.016,3 7.5,3 Z"
       id="path2396"
       style="display:inline;overflow:visible;visibility:visible;fill:#dfdbd2;fill-opacity:1;fill-rule:evenodd;stroke:none;stroke-width:1;marker:none;enable-background:accumulate"
       inkscape:connector-curvature="0" />
    <path
       d="M 9.262048,7.49928 H 7.5 V 4.999281"
       id="path2817"
       style="display:inline;fill:none;stroke:#dfdbd2;stroke-width:1px;stroke-linecap:round;stroke-linejoin:round;stroke-opacity:1"
       inkscape:connector-curvature="0" />
    <path
       d="M 11.75,7.49928 C 11.750399,9.846772 9.847491,11.75 7.499999,11.75 5.152508,11.75 3.249602,9.846772 3.25,7.49928 3.249602,5.151788 5.152508,3.248559 7.499999,3.248559 c 2.347492,0 4.2504,1.903229 4.250001,4.250721 z"
       id="path3208"
       style="display:inline;overflow:visible;visibility:visible;opacity:0.3;fill:none;stroke:#ffffff;stroke-width:0.5;stroke-linecap:round;stroke-linejoin:miter;stroke-miterlimit:4;stroke-dasharray:none;stroke-dashoffset:0;stroke-opacity:1;marker:none;enable-background:accumulate"
       inkscape:connector-curvature="0" />
  </g>
</svg>
