<?xml version="1.0" encoding="UTF-8" standalone="no"?>
<svg
   xmlns:dc="http://purl.org/dc/elements/1.1/"
   xmlns:cc="http://creativecommons.org/ns#"
   xmlns:rdf="http://www.w3.org/1999/02/22-rdf-syntax-ns#"
   xmlns:svg="http://www.w3.org/2000/svg"
   xmlns="http://www.w3.org/2000/svg"
   xmlns:sodipodi="http://sodipodi.sourceforge.net/DTD/sodipodi-0.dtd"
   xmlns:inkscape="http://www.inkscape.org/namespaces/inkscape"
   sodipodi:docname="gpm-primary-100.svg"
   inkscape:version="1.0alpha2 (48e7c74405, 2019-09-05)"
   id="svg3014"
   height="16"
   width="16"
   version="1.1">
  <sodipodi:namedview
     inkscape:document-rotation="0"
     inkscape:current-layer="svg3014"
     inkscape:window-maximized="1"
     inkscape:window-y="30"
     inkscape:window-x="0"
     inkscape:cy="3.8931536"
     inkscape:cx="26.766266"
     inkscape:zoom="8.7263405"
     showborder="false"
     showgrid="false"
     id="namedview12"
     inkscape:window-height="1379"
     inkscape:window-width="2560"
     inkscape:pageshadow="2"
     inkscape:pageopacity="0"
     guidetolerance="10"
     gridtolerance="10"
     objecttolerance="10"
     borderopacity="1"
     bordercolor="#666666"
     pagecolor="#434343">
    <inkscape:grid
       snapvisiblegridlinesonly="true"
       enabled="true"
       visible="true"
       empspacing="5"
       id="grid2989"
       type="xygrid" />
  </sodipodi:namedview>
  <defs
     id="defs3016" />
  <metadata
     id="metadata3019">
    <rdf:RDF>
      <cc:Work
         rdf:about="">
        <dc:format>image/svg+xml</dc:format>
        <dc:type
           rdf:resource="http://purl.org/dc/dcmitype/StillImage" />
        <dc:title></dc:title>
      </cc:Work>
    </rdf:RDF>
  </metadata>
  <g
     transform="matrix(0.72727273,0,0,0.72727273,-0.72727276,-0.72727276)"
     id="g844">
    <g
       transform="matrix(1.1,0,0,1.1,-0.10000001,-0.10000001)"
       id="g7726">
      <g
         transform="matrix(0.83333333,0,0,0.83333333,-3.1666666,3.9166667)"
         id="g7712">
        <path
           sodipodi:nodetypes="sssssscsssscssssssssssssccccc"
           inkscape:connector-curvature="0"
           style="display:inline;overflow:visible;visibility:visible;opacity:0.3;fill:#000000;fill-opacity:1;fill-rule:nonzero;stroke:none;stroke-width:1;marker:none;enable-background:accumulate"
           id="rect2401-5"
           d="M 7,3 C 5.892,3 5,3.892 5,5 v 8 c 0,1.108 0.892,2 2,2 h 18 c 1.108,0 2,-0.892 2,-2 v -1 h 0.384328 C 28.492328,12 29,11.108 29,10 V 8 C 29,6.892 28.574418,6 27.466418,6 H 27 V 5 C 27,3.892 26.108,3 25,3 Z m 0,1 h 18 c 0.554,0 1,0.446 1,1 v 8 c 0,0.554 -0.446,1 -1,1 H 7 C 6.446,14 6,13.554 6,13 V 5 C 6,4.446 6.446,4 7,4 Z m 20,3 c 0.597415,0 1,0.051 1,1 v 2 c 0,0.9914 -0.406448,1 -1,1 z" />
        <rect
           style="display:inline;overflow:visible;visibility:visible;opacity:0.3;fill:#000000;fill-opacity:1;fill-rule:evenodd;stroke:none;stroke-width:1.7;marker:none;enable-background:accumulate"
           id="rect3190-4"
           transform="rotate(90)"
           y="-25"
           x="5"
           ry="0.5"
           rx="0.5"
           height="18"
           width="8" />
        <path
           sodipodi:nodetypes="sssssscsssscssssssssssssccccc"
           inkscape:connector-curvature="0"
           style="display:inline;overflow:visible;visibility:visible;fill:#dfdbd2;fill-opacity:1;fill-rule:nonzero;stroke:none;stroke-width:1;marker:none;enable-background:accumulate"
           id="rect2401"
           d="M 7,2 C 5.892,2 5,2.892 5,4 v 8 c 0,1.108 0.892,2 2,2 h 18 c 1.108,0 2,-0.892 2,-2 v -1 h 0.384328 C 28.492328,11 29,10.108 29,9 V 7 C 29,5.892 28.574418,5 27.466418,5 H 27 V 4 C 27,2.892 26.108,2 25,2 Z m 0,1 h 18 c 0.554,0 1,0.446 1,1 v 8 c 0,0.554 -0.446,1 -1,1 H 7 C 6.446,13 6,12.554 6,12 V 4 C 6,3.446 6.446,3 7,3 Z m 20,3 c 0.597415,0 1,0.051 1,1 v 2 c 0,0.9914 -0.406448,1 -1,1 z" />
        <rect
           style="display:inline;overflow:visible;visibility:visible;opacity:0.3;fill:none;stroke:#dfdbd2;stroke-width:0.5;stroke-linecap:round;stroke-linejoin:miter;stroke-miterlimit:4;stroke-dasharray:none;stroke-dashoffset:0;stroke-opacity:1;marker:none;enable-background:accumulate"
           id="rect3192"
           y="3.25"
           x="6.25"
           ry="0.75"
           rx="0.75"
           height="9.500001"
           width="19.5" />
        <rect
           style="display:inline;overflow:visible;visibility:visible;fill:#dfdbd2;fill-opacity:1;fill-rule:evenodd;stroke:none;stroke-width:1.7;marker:none;enable-background:accumulate"
           id="rect3190"
           transform="rotate(90)"
           y="-25"
           x="4"
           ry="0.5"
           rx="0.5"
           height="18"
           width="8" />
      </g>
    </g>
  </g>
</svg>
