<?xml version="1.0" encoding="UTF-8" standalone="no"?>
<svg
   xmlns:dc="http://purl.org/dc/elements/1.1/"
   xmlns:cc="http://creativecommons.org/ns#"
   xmlns:rdf="http://www.w3.org/1999/02/22-rdf-syntax-ns#"
   xmlns:svg="http://www.w3.org/2000/svg"
   xmlns="http://www.w3.org/2000/svg"
   xmlns:sodipodi="http://sodipodi.sourceforge.net/DTD/sodipodi-0.dtd"
   xmlns:inkscape="http://www.inkscape.org/namespaces/inkscape"
   sodipodi:docname="im-message-new.svg"
   inkscape:version="1.0alpha2 (ba7fb61f5a, 2019-08-31)"
   version="1.1"
   id="svg3795"
   height="16"
   width="16">
  <defs
     id="defs3797" />
  <sodipodi:namedview
     inkscape:document-rotation="0"
     inkscape:window-maximized="1"
     inkscape:window-y="28"
     inkscape:window-x="0"
     inkscape:window-height="1381"
     inkscape:window-width="2560"
     inkscape:document-units="px"
     inkscape:grid-bbox="true"
     showgrid="true"
     inkscape:current-layer="layer1"
     inkscape:cy="8.9460396"
     inkscape:cx="8"
     inkscape:zoom="11.098901"
     inkscape:pageshadow="2"
     inkscape:pageopacity="0.0"
     borderopacity="1.0"
     bordercolor="#666666"
     pagecolor="#ffffff"
     id="base" />
  <metadata
     id="metadata3800">
    <rdf:RDF>
      <cc:Work
         rdf:about="">
        <dc:format>image/svg+xml</dc:format>
        <dc:type
           rdf:resource="http://purl.org/dc/dcmitype/StillImage" />
        <dc:title></dc:title>
      </cc:Work>
    </rdf:RDF>
  </metadata>
  <g
     inkscape:groupmode="layer"
     inkscape:label="Layer 1"
     id="layer1">
    <g
       transform="matrix(0.88888889,0,0,0.88888889,-2.6666667,0.88888888)"
       id="g834">
      <path
         inkscape:connector-curvature="0"
         d="M 10.5,1 C 6.36,1 3.0000001,4.3599999 3,8.5 c 0,4.14 3.3600001,7.5 7.5,7.5 1.964788,0 3.756106,-0.76222 5.09375,-2 H 21 L 17.65625,10.65625 C 17.864192,9.968633 18,9.255184 18,8.5 18,4.36 14.64,1.0000001 10.5,1 Z"
         id="path2396-2"
         style="display:inline;overflow:visible;visibility:visible;opacity:0.3;fill:#000000;fill-opacity:1;fill-rule:evenodd;stroke:none;stroke-width:1;marker:none;enable-background:accumulate" />
      <path
         inkscape:connector-curvature="0"
         d="M 10.5,0 C 6.36,0 3.0000001,3.3599999 3,7.5 c 0,4.14 3.3600001,7.5 7.5,7.5 1.964788,0 3.756106,-0.76222 5.09375,-2 H 21 L 17.65625,9.65625 C 17.864192,8.968633 18,8.255184 18,7.5 18,3.36 14.64,1e-7 10.5,0 Z"
         id="path2396"
         style="display:inline;overflow:visible;visibility:visible;fill:#19b6ee;fill-opacity:1;fill-rule:evenodd;stroke:none;stroke-width:1;marker:none;enable-background:accumulate" />
    </g>
  </g>
</svg>
