<?xml version="1.0" encoding="UTF-8" standalone="no"?>
<svg
   xmlns:dc="http://purl.org/dc/elements/1.1/"
   xmlns:cc="http://creativecommons.org/ns#"
   xmlns:rdf="http://www.w3.org/1999/02/22-rdf-syntax-ns#"
   xmlns:svg="http://www.w3.org/2000/svg"
   xmlns="http://www.w3.org/2000/svg"
   xmlns:sodipodi="http://sodipodi.sourceforge.net/DTD/sodipodi-0.dtd"
   xmlns:inkscape="http://www.inkscape.org/namespaces/inkscape"
   sodipodi:docname="new-messages-red.svg"
   inkscape:version="1.0alpha2 (ba7fb61f5a, 2019-08-31)"
   id="svg3229"
   height="16"
   width="16"
   version="1.0">
  <sodipodi:namedview
     inkscape:document-rotation="0"
     inkscape:current-layer="svg3229"
     inkscape:window-maximized="1"
     inkscape:window-y="28"
     inkscape:window-x="0"
     inkscape:cy="11.793814"
     inkscape:cx="11"
     inkscape:zoom="13.227273"
     showgrid="false"
     id="namedview7"
     inkscape:window-height="1381"
     inkscape:window-width="2560"
     inkscape:pageshadow="2"
     inkscape:pageopacity="0"
     guidetolerance="10"
     gridtolerance="10"
     objecttolerance="10"
     borderopacity="1"
     bordercolor="#666666"
     pagecolor="#ffffff" />
  <metadata
     id="metadata9">
    <rdf:RDF>
      <cc:Work
         rdf:about="">
        <dc:format>image/svg+xml</dc:format>
        <dc:type
           rdf:resource="http://purl.org/dc/dcmitype/StillImage" />
        <dc:title></dc:title>
      </cc:Work>
    </rdf:RDF>
  </metadata>
  <defs
     id="defs3231" />
  <g
     transform="matrix(0.88888889,0,0,0.88888889,-1.7777778,0.44444443)"
     id="g833">
    <path
       d="M 3.3050355,3.0221223 C 2.6956293,3.0221223 2,3.7823212 2,4.3363212 V 13.634982 C 2,14.36596 2.788896,15 3.4535077,15 H 18.502248 C 19.299593,15 20,14.322163 20,13.62392 V 4.4645688 C 20,3.68903 19.310739,3 18.590737,3 Z M 3.84375,4.15625 10.6875,11 h 0.59375 l 6.875,-6.84375 0.6875,0.6875 L 14.75,9 l 3.09375,3.15625 -0.6875,0.6875 L 14,9.6875 11.71875,12 h -1.4375 L 8,9.6875 4.84375,12.875 4.15625,12.15625 7.28125,9 3.15625,4.84375 Z"
       id="rect3170-2"
       style="display:inline;overflow:visible;visibility:visible;opacity:0.3;fill:#000000;fill-opacity:1;fill-rule:nonzero;stroke:none;stroke-width:1;marker:none;enable-background:accumulate"
       inkscape:connector-curvature="0" />
    <path
       d="M 3.3050355,2.0221223 C 2.6956293,2.0221223 2,2.7823212 2,3.3363212 V 12.634982 C 2,13.36596 2.788896,14 3.4535077,14 H 18.502248 C 19.299593,14 20,13.322163 20,12.62392 V 3.4645688 C 20,2.68903 19.310739,2 18.590737,2 Z M 3.84375,3.15625 10.6875,10 h 0.59375 l 6.875,-6.84375 0.6875,0.6875 L 14.75,8 l 3.09375,3.15625 -0.6875,0.6875 L 14,8.6875 11.71875,11 h -1.4375 L 8,8.6875 4.84375,11.875 4.15625,11.15625 7.28125,8 3.15625,3.84375 Z"
       id="rect3170"
       style="display:inline;overflow:visible;visibility:visible;fill:#df382c;fill-opacity:1;fill-rule:nonzero;stroke:none;stroke-width:1;marker:none;enable-background:accumulate"
       inkscape:connector-curvature="0" />
  </g>
</svg>
