<?xml version="1.0" encoding="UTF-8" standalone="no"?>
<svg
   xmlns:dc="http://purl.org/dc/elements/1.1/"
   xmlns:cc="http://creativecommons.org/ns#"
   xmlns:rdf="http://www.w3.org/1999/02/22-rdf-syntax-ns#"
   xmlns:svg="http://www.w3.org/2000/svg"
   xmlns="http://www.w3.org/2000/svg"
   xmlns:sodipodi="http://sodipodi.sourceforge.net/DTD/sodipodi-0.dtd"
   xmlns:inkscape="http://www.inkscape.org/namespaces/inkscape"
   sodipodi:docname="ubuntuone-client-paused.svg"
   inkscape:version="1.0alpha2 (ba7fb61f5a, 2019-08-31)"
   version="1.0"
   width="16"
   height="16"
   id="svg3215">
  <defs
     id="defs8" />
  <sodipodi:namedview
     inkscape:document-rotation="0"
     inkscape:current-layer="svg3215"
     inkscape:window-maximized="1"
     inkscape:window-y="28"
     inkscape:window-x="0"
     inkscape:cy="8"
     inkscape:cx="0.60912052"
     inkscape:zoom="19.1875"
     showgrid="false"
     id="namedview6"
     inkscape:window-height="1381"
     inkscape:window-width="2560"
     inkscape:pageshadow="2"
     inkscape:pageopacity="0"
     guidetolerance="10"
     gridtolerance="10"
     objecttolerance="10"
     borderopacity="1"
     bordercolor="#666666"
     pagecolor="#ffffff" />
  <metadata
     id="metadata8">
    <rdf:RDF>
      <cc:Work
         rdf:about="">
        <dc:format>image/svg+xml</dc:format>
        <dc:type
           rdf:resource="http://purl.org/dc/dcmitype/StillImage" />
        <dc:title></dc:title>
      </cc:Work>
    </rdf:RDF>
  </metadata>
  <g
     transform="matrix(0.88888889,0,0,0.88888889,-1.0000001e-8,0.44444443)"
     id="g3105">
    <path
       id="path2996"
       d="M 10.5,2 C 8.8105,2.0000001 7.36315,3.06245 6.59375,4.59375 6.16045,4.23325 5.6072,4 5,4 3.62,4 2.5,5.12 2.5,6.5 2.5,6.8099 2.55305,7.101 2.65625,7.375 1.08675,8.0763 0,9.664 0,11.5 0,13.993 2.007,16 4.5,16 h 9 C 15.993,16 18,13.993 18,11.5 18,9.5253 16.73075,7.859 14.96875,7.25 14.97275,7.1646 15,7.0865 15,7 15,4.24 12.984,2 10.5,2 Z M 6,7 h 2 v 6 H 6 Z m 4,0 h 2 v 6 h -2 z"
       style="opacity:0.3;fill:#000000;fill-rule:evenodd"
       inkscape:connector-curvature="0" />
    <path
       inkscape:connector-curvature="0"
       style="fill:#dfdbd2;fill-rule:evenodd"
       d="M 10.5,1 C 8.8105,1.0000001 7.36315,2.06245 6.59375,3.59375 6.16045,3.23325 5.6072,3 5,3 3.62,3 2.5,4.12 2.5,5.5 2.5,5.8099 2.55305,6.101 2.65625,6.375 1.08675,7.0763 0,8.664 0,10.5 0,12.993 2.007,15 4.5,15 h 9 C 15.993,15 18,12.993 18,10.5 18,8.5253 16.73075,6.859 14.96875,6.25 14.97275,6.1646 15,6.0865 15,6 15,3.24 12.984,1 10.5,1 Z M 6,6 h 2 v 6 H 6 Z m 4,0 h 2 v 6 h -2 z"
       id="rect3193" />
  </g>
</svg>
