<?xml version="1.0" encoding="UTF-8" standalone="no"?>
<svg
   xmlns:dc="http://purl.org/dc/elements/1.1/"
   xmlns:cc="http://creativecommons.org/ns#"
   xmlns:rdf="http://www.w3.org/1999/02/22-rdf-syntax-ns#"
   xmlns:svg="http://www.w3.org/2000/svg"
   xmlns="http://www.w3.org/2000/svg"
   version="1.0"
   width="16"
   height="16"
   id="svg3240">
  <metadata
     id="metadata9">
    <rdf:RDF>
      <cc:Work
         rdf:about="">
        <dc:format>image/svg+xml</dc:format>
        <dc:type
           rdf:resource="http://purl.org/dc/dcmitype/StillImage" />
        <dc:title></dc:title>
      </cc:Work>
    </rdf:RDF>
  </metadata>
  <defs
     id="defs3242" />
  <rect
     width="8"
     height="2"
     rx="0.52542406"
     ry="0.51960784"
     x="5"
     y="-4"
     transform="matrix(0,1,-1,0,0,0)"
     id="rect3190-4"
     style="display:inline;overflow:visible;visibility:visible;opacity:0.3;fill:#000000;fill-opacity:1;fill-rule:evenodd;stroke:none;stroke-width:1.69999993;marker:none;enable-background:accumulate" />
  <path
     d="M 2,3 C 0.892,3 0,3.892 0,5 l 0,8 c 0,1.108 0.892,2 2,2 l 10,0 c 1.108,0 2.174781,-0.905872 2,-2 l 0,-1 0.384328,0 C 15.492328,12 16,11.108 16,10 L 16,8 C 16,6.892 15.574418,6 14.466418,6 L 14,6 14,5 C 14,3.892 13.108,3 12,3 Z m 0,1 10,0 c 0.554,0 1,0.446 1,1 l 0,8 c 0,0.554 -0.446,1 -1,1 L 2,14 C 1.446,14 1,13.554 1,13 L 1,5 C 1,4.446 1.446,4 2,4 Z m 12,3 c 0.597415,0 1,0.051 1,1 l 0,2 c 0,0.9914 -0.406448,1 -1,1 z"
     id="rect2401-48-6"
     style="display:inline;overflow:visible;visibility:visible;opacity:0.3;fill:#000000;fill-opacity:1;fill-rule:nonzero;stroke:none;stroke-width:1;marker:none;enable-background:accumulate" />
  <rect
     width="11.611897"
     height="9.6118975"
     rx="0.86241895"
     ry="0.79663461"
     x="1.1940515"
     y="3.1940515"
     id="rect3192"
     style="display:inline;overflow:visible;visibility:visible;opacity:0.3;fill:none;stroke:#df382c;stroke-width:0.38810298;stroke-linecap:round;stroke-linejoin:miter;stroke-miterlimit:4;stroke-dasharray:none;stroke-dashoffset:0;stroke-opacity:1;marker:none;enable-background:accumulate" />
  <path
     d="M 2,2 C 0.892,2 0,2.892 0,4 l 0,8 c 0,1.108 0.892,2 2,2 l 10,0 c 1.108,0 2,-0.892 2,-2 l 0,-1 0.384328,0 C 15.492328,11 16,10.108 16,9 L 16,7 C 16,5.892 15.566726,5.1303348 14.466418,5 L 14,5 14,4 C 14,2.892 13.108,2 12,2 Z m 0,1 10,0 c 0.554,0 1,0.446 1,1 l 0,8 c 0,0.554 -0.446,1 -1,1 L 2,13 C 1.446,13 1,12.554 1,12 L 1,4 C 1,3.446 1.446,3 2,3 Z m 12,3 c 0.597415,0 1,0.051 1,1 l 0,2 c 0,0.9914 -0.406448,1 -1,1 z"
     id="rect2401-48"
     style="display:inline;overflow:visible;visibility:visible;fill:#df382c;fill-opacity:1;fill-rule:nonzero;stroke:none;stroke-width:1;marker:none;enable-background:accumulate" />
  <rect
     rx="0.53087437"
     ry="0.49152541"
     width="8"
     height="2"
     x="4"
     y="-4"
     transform="matrix(0,1,-1,0,0,0)"
     id="rect3190"
     style="display:inline;overflow:visible;visibility:visible;fill:#df382c;fill-opacity:1;fill-rule:evenodd;stroke:none;stroke-width:2;stroke-miterlimit:4;stroke-dasharray:none;marker:none;enable-background:accumulate" />
</svg>
