<?xml version="1.0" encoding="UTF-8" standalone="no"?>
<svg
   xmlns:dc="http://purl.org/dc/elements/1.1/"
   xmlns:cc="http://creativecommons.org/ns#"
   xmlns:rdf="http://www.w3.org/1999/02/22-rdf-syntax-ns#"
   xmlns:svg="http://www.w3.org/2000/svg"
   xmlns="http://www.w3.org/2000/svg"
   xmlns:sodipodi="http://sodipodi.sourceforge.net/DTD/sodipodi-0.dtd"
   xmlns:inkscape="http://www.inkscape.org/namespaces/inkscape"
   sodipodi:docname="user-invisible-panel.svg"
   inkscape:version="1.0alpha2 (ba7fb61f5a, 2019-08-31)"
   id="svg3795"
   height="16"
   width="16"
   version="1.1">
  <sodipodi:namedview
     showguides="false"
     inkscape:document-rotation="0"
     inkscape:current-layer="svg3795"
     inkscape:window-maximized="1"
     inkscape:window-y="28"
     inkscape:window-x="0"
     inkscape:cy="98.931809"
     inkscape:cx="-4.4636491"
     inkscape:zoom="5.8382445"
     showgrid="false"
     id="namedview9"
     inkscape:window-height="1381"
     inkscape:window-width="2560"
     inkscape:pageshadow="2"
     inkscape:pageopacity="0"
     guidetolerance="10"
     gridtolerance="10"
     objecttolerance="10"
     borderopacity="1"
     bordercolor="#666666"
     pagecolor="#ffffff" />
  <defs
     id="defs3797" />
  <metadata
     id="metadata3800">
    <rdf:RDF>
      <cc:Work
         rdf:about="">
        <dc:format>image/svg+xml</dc:format>
        <dc:type
           rdf:resource="http://purl.org/dc/dcmitype/StillImage" />
        <dc:title></dc:title>
      </cc:Work>
    </rdf:RDF>
  </metadata>
  <g
     transform="matrix(0.88888889,0,0,0.88888889,0,0.88888888)"
     id="g1405">
    <g
       transform="translate(-3,2)"
       id="layer1">
      <g
         id="g2984"
         style="opacity:0.4">
        <path
           d="M 10.5,-1 C 6.36,-1 3.0000001,2.3599999 3,6.5 c 0,4.14 3.3600001,7.5 7.5,7.5 1.964788,0 3.756106,-0.76222 5.09375,-2 H 21 L 17.65625,8.65625 C 17.864192,7.968633 18,7.255184 18,6.5 18,2.36 14.64,-0.9999999 10.5,-1 Z"
           id="path2396-2"
           style="display:inline;overflow:visible;visibility:visible;opacity:0.3;fill:#000000;fill-opacity:1;fill-rule:evenodd;stroke:none;stroke-width:1;marker:none;enable-background:accumulate"
           inkscape:connector-curvature="0" />
        <path
           d="M 10.5,-2 C 6.36,-2 3.0000001,1.3599999 3,5.5 3,9.64 6.3600001,13 10.5,13 c 1.964788,0 3.756106,-0.76222 5.09375,-2 H 21 L 17.65625,7.65625 C 17.864192,6.968633 18,6.255184 18,5.5 18,1.36 14.64,-1.9999999 10.5,-2 Z"
           id="path2396"
           style="display:inline;overflow:visible;visibility:visible;fill:#dfdbd2;fill-opacity:1;fill-rule:evenodd;stroke:none;stroke-width:1;marker:none;enable-background:accumulate"
           inkscape:connector-curvature="0" />
      </g>
    </g>
  </g>
</svg>
