<?xml version="1.0" encoding="UTF-8" standalone="no"?>
<svg
   xmlns:dc="http://purl.org/dc/elements/1.1/"
   xmlns:cc="http://creativecommons.org/ns#"
   xmlns:rdf="http://www.w3.org/1999/02/22-rdf-syntax-ns#"
   xmlns:svg="http://www.w3.org/2000/svg"
   xmlns="http://www.w3.org/2000/svg"
   version="1.0"
   width="24"
   height="24"
   id="svg2">
  <metadata
     id="metadata60">
    <rdf:RDF>
      <cc:Work
         rdf:about="">
        <dc:format>image/svg+xml</dc:format>
        <dc:type
           rdf:resource="http://purl.org/dc/dcmitype/StillImage" />
        <dc:title></dc:title>
      </cc:Work>
    </rdf:RDF>
  </metadata>
  <defs
     id="defs4">
    <radialGradient
       r="23"
       gradientTransform="matrix(0 -.31383 .53154 0 16.612 18.595)"
       cx="26.617"
       cy="-2.0645"
       gradientUnits="userSpaceOnUse"
       id="radialGradient2982">
      <stop
         offset="0"
         style="stop-color:#abc187;stop-opacity:1"
         id="stop2749" />
      <stop
         offset=".26238"
         style="stop-color:#87a556;stop-opacity:1"
         id="stop2751" />
      <stop
         offset=".66094"
         style="stop-color:#657b40;stop-opacity:1"
         id="stop2753" />
      <stop
         offset="1"
         style="stop-color:#4a5a2f;stop-opacity:1"
         id="stop2755" />
    </radialGradient>
    <linearGradient
       x1="2.3596"
       y1="20.335"
       gradientTransform="matrix(.53150 0 0 .34494 2.0316 1.9608)"
       x2="35.407"
       gradientUnits="userSpaceOnUse"
       y2="20.335"
       id="linearGradient2984">
      <stop
         offset="0"
         style="stop-color:#87a556;stop-opacity:1"
         id="stop2759" />
      <stop
         offset="1"
         style="stop-color:#4d5e31;stop-opacity:1"
         id="stop2761" />
    </linearGradient>
    <linearGradient
       x1="12.938"
       y1="8.4375"
       gradientTransform="matrix(.47619 0 0 .53333 1.5714 1.4)"
       x2="15.25"
       gradientUnits="userSpaceOnUse"
       y2="19.812"
       id="linearGradient3004">
      <stop
         offset="0"
         style="stop-color:#fff;stop-opacity:.27451"
         id="stop6594" />
      <stop
         offset="1"
         style="stop-color:#fff;stop-opacity:0"
         id="stop6596" />
    </linearGradient>
    <linearGradient
       x1="316.86"
       y1="85.62"
       gradientTransform="matrix(.40476 0 0 0.5 -118.52 -24.5)"
       x2="319.39"
       gradientUnits="userSpaceOnUse"
       y2="93.916"
       id="linearGradient3007">
      <stop
         offset="0"
         style="stop-color:#282828"
         id="stop4576" />
      <stop
         offset="1"
         style="stop-color:#5a5c58"
         id="stop4578" />
    </linearGradient>
    <linearGradient
       x1="145.44"
       y1="372.67"
       gradientTransform="matrix(.091559 0 0 .079246 -2.3161 -10.282)"
       x2="145.44"
       gradientUnits="userSpaceOnUse"
       y2="416.83"
       id="linearGradient3010">
      <stop
         offset="0"
         style="stop-color:#fff"
         id="stop7257" />
      <stop
         offset="1"
         style="stop-color:#e6e6e6"
         id="stop7259" />
    </linearGradient>
    <radialGradient
       r="7.2284"
       gradientTransform="matrix(1.7293 -.0000023849 1.963e-7 .13834 .40908 12.816)"
       cx="6.7027"
       cy="73.616"
       gradientUnits="userSpaceOnUse"
       id="radialGradient3013">
      <stop
         offset="0"
         id="stop10693" />
      <stop
         offset="1"
         style="stop-opacity:0"
         id="stop10695" />
    </radialGradient>
    <radialGradient
       r="23"
       gradientTransform="matrix(.46667 0 0 .31485 .29986 2.9625)"
       cx="3.6431"
       cy="6.4713"
       gradientUnits="userSpaceOnUse"
       id="radialGradient3021">
      <stop
         offset="0"
         style="stop-color:#fff"
         id="stop6604" />
      <stop
         offset="1"
         style="stop-color:#fff;stop-opacity:0"
         id="stop6606" />
    </radialGradient>
    <linearGradient
       x1="20.147"
       y1="-.00049710"
       gradientTransform="matrix(.49016 0 0 .51667 -.26402 -.26660)"
       x2="20.104"
       gradientUnits="userSpaceOnUse"
       y2="31.983"
       id="linearGradient3024">
      <stop
         offset="0"
         style="stop-color:#f0f0f0"
         id="stop6546" />
      <stop
         offset="1"
         style="stop-color:#d2d2d2"
         id="stop6548" />
    </linearGradient>
    <linearGradient
       x1="320.28"
       y1="86.913"
       gradientTransform="matrix(.52744 0 0 .49997 -156.8 -26.747)"
       x2="320.28"
       gradientUnits="userSpaceOnUse"
       y2="93.38"
       id="linearGradient3027">
      <stop
         offset="0"
         style="stop-color:#787878"
         id="stop6534" />
      <stop
         offset=".26105"
         style="stop-color:#bebebe"
         id="stop6536" />
      <stop
         offset=".43423"
         style="stop-color:#c8c8c8"
         id="stop6538" />
      <stop
         offset=".61838"
         style="stop-color:#e6e6e6"
         id="stop6540" />
      <stop
         offset="1"
         style="stop-color:#8c8c8c"
         id="stop6542" />
    </linearGradient>
    <linearGradient
       x1="22.325"
       y1="30.958"
       gradientTransform="matrix(.52934 0 0 .49990 -.70406 1.2534)"
       x2="22.301"
       gradientUnits="userSpaceOnUse"
       y2="37.319"
       id="linearGradient3029">
      <stop
         offset="0"
         style="stop-color:#505050"
         id="stop6522" />
      <stop
         offset=".25956"
         style="stop-color:#a0a0a0"
         id="stop6524" />
      <stop
         offset=".43181"
         style="stop-color:#aaa"
         id="stop6526" />
      <stop
         offset=".61664"
         style="stop-color:#bebebe"
         id="stop6528" />
      <stop
         offset="1"
         style="stop-color:#6e6e6e"
         id="stop6530" />
    </linearGradient>
  </defs>
  <path
     d="m9.5 14.5v3.5c-0.0117 0.901-1.4064 1.5-1.4064 1.5-0.3963 0.044-0.5934 0.223-0.5934 0.5s0.2668 0.5 0.5934 0.5h7.8124c0.327 0 0.594-0.223 0.594-0.5s-0.197-0.456-0.594-0.5c0 0-1.394-0.599-1.406-1.5v-3.5h-5z"
     style="stroke-linejoin:round;stroke-width:1.0004;stroke-dashoffset:0.5;stroke:url(#linearGradient3029);stroke-linecap:round;enable-background:new;fill:url(#linearGradient3027)"
     id="path4675" />
  <rect
     x="1.5"
     y="1.5"
     width="21"
     height="15"
     style="stroke-linejoin:round;stroke-dashoffset:0.5;stroke:#aaa;stroke-linecap:round;stroke-width:.99994;fill:url(#linearGradient3024)"
     id="rect2722" />
  <rect
     x="2.4999"
     y="2.5001"
     width="19"
     height="13"
     ry="0"
     rx="0"
     style="stroke-linejoin:round;stroke-width:.99988;stroke-dashoffset:0.5;stroke:url(#radialGradient3021);stroke-linecap:round;enable-background:new;fill:none"
     id="rect4642" />
  <rect
     x="3.4999"
     y="3.5001"
     width="17"
     height="11"
     style="stroke-linejoin:round;stroke-width:1.0021;fill-rule:evenodd;color:#000000;stroke:url(#linearGradient2984);stroke-linecap:round;fill:url(#radialGradient2982)"
     id="rect2716" />
  <path
     d="m24 23c0 0.552-5.373 1-12 1-6.6274 0-12-0.448-12-1s5.3726-1 12-1c6.627 0 12 0.448 12 1z"
     style="opacity:.3;fill:url(#radialGradient3013)"
     id="path6096" />
  <path
     d="m4.156 19.499c-0.129 0.012-0.2415 0.078-0.3033 0.176l-1.3076 2.09c-0.0307 0.05-0.0468 0.108-0.0458 0.164-0.0001-0.006-0.0003-0.005 0 0.005v0.233 0.024c-0.0003 0.035 0.0116 0.069 0.0344 0.097 0.0069 0.017 0.0067 0.03 0.02 0.049 0.0695 0.101 0.1966 0.163 0.3348 0.164h18.22c0.139 0 0.267-0.062 0.338-0.166 0.031-0.044 0.04-0.085 0.046-0.116 0.011-0.054 0.009-0.092 0.009-0.092v-0.005-0.166c0-0.047-0.001-0.12-0.049-0.196l-1.359-2.09h-0.003c-0.07-0.106-0.201-0.172-0.343-0.171h-15.542-0.009-0.0286-0.0114z"
     style="stroke-width:.99829;stroke-dashoffset:.3612;stroke:#a0a0a0;stroke-linecap:square;enable-background:new;fill:url(#linearGradient3010)"
     id="path3698" />
  <path
     d="m5.5247 19l-1.0247 2.198h15.1l-1.1-2.198h-12.975z"
     style="enable-background:new;fill:url(#linearGradient3007);fill-rule:evenodd"
     id="path3704" />
  <path
     d="m3 3h18v4.2667l-18 3.7333v-8z"
     style="fill:url(#linearGradient3004)"
     id="rect6588" />
</svg>
