<?xml version="1.0" encoding="UTF-8" standalone="no"?>
<!-- Created with Inkscape (http://www.inkscape.org/) -->

<svg
   xmlns:dc="http://purl.org/dc/elements/1.1/"
   xmlns:cc="http://creativecommons.org/ns#"
   xmlns:rdf="http://www.w3.org/1999/02/22-rdf-syntax-ns#"
   xmlns:svg="http://www.w3.org/2000/svg"
   xmlns="http://www.w3.org/2000/svg"
   xmlns:xlink="http://www.w3.org/1999/xlink"
   xmlns:sodipodi="http://sodipodi.sourceforge.net/DTD/sodipodi-0.dtd"
   xmlns:inkscape="http://www.inkscape.org/namespaces/inkscape"
   id="svg3446"
   height="24"
   width="24"
   version="1.0"
   inkscape:version="0.91 r13725"
   sodipodi:docname="preferences-desktop-theme.svg">
  <metadata
     id="metadata74">
    <rdf:RDF>
      <cc:Work
         rdf:about="">
        <dc:format>image/svg+xml</dc:format>
        <dc:type
           rdf:resource="http://purl.org/dc/dcmitype/StillImage" />
      </cc:Work>
    </rdf:RDF>
  </metadata>
  <sodipodi:namedview
     pagecolor="#ffffff"
     bordercolor="#666666"
     borderopacity="1"
     objecttolerance="10"
     gridtolerance="10"
     guidetolerance="10"
     inkscape:pageopacity="0"
     inkscape:pageshadow="2"
     inkscape:window-width="958"
     inkscape:window-height="1002"
     id="namedview72"
     showgrid="false"
     inkscape:zoom="27.812867"
     inkscape:cx="17.288442"
     inkscape:cy="17.491071"
     inkscape:window-x="0"
     inkscape:window-y="24"
     inkscape:window-maximized="0"
     inkscape:current-layer="layer1" />
  <defs
     id="defs3448">
    <linearGradient
       id="linearGradient4216">
      <stop
         offset="0"
         style="stop-color:#b4c990;stop-opacity:1"
         id="stop4218" />
      <stop
         offset=".26238"
         style="stop-color:#b4c990;stop-opacity:1"
         id="stop4220" />
      <stop
         offset=".66094"
         style="stop-color:#87a556;stop-opacity:1"
         id="stop4222" />
      <stop
         offset="1"
         style="stop-color:#617f30;stop-opacity:1"
         id="stop4224" />
    </linearGradient>
    <linearGradient
       id="linearGradient4210">
      <stop
         offset="0"
         style="stop-color:#4e6827;stop-opacity:1"
         id="stop4212" />
      <stop
         offset="1"
         style="stop-color:#617f30;stop-opacity:1"
         id="stop4214" />
    </linearGradient>
    <radialGradient
       id="radialGradient3016"
       xlink:href="#linearGradient5060"
       gradientUnits="userSpaceOnUse"
       cy="486.65"
       cx="605.71"
       gradientTransform="matrix(-.025962 0 0 .016471 19.878 20.961)"
       r="117.14" />
    <radialGradient
       id="radialGradient3014"
       xlink:href="#linearGradient5060"
       gradientUnits="userSpaceOnUse"
       cy="486.65"
       cx="605.71"
       gradientTransform="matrix(.025962 0 0 .016471 1.1218 20.961)"
       r="117.14" />
    <linearGradient
       id="linearGradient3012"
       y2="609.51"
       xlink:href="#linearGradient5048"
       gradientUnits="userSpaceOnUse"
       x2="302.86"
       gradientTransform="matrix(.025962 0 0 .016471 1.1167 20.961)"
       y1="366.65"
       x1="302.86" />
    <linearGradient
       id="linearGradient3436"
       y2="3.9762"
       xlink:href="#linearGradient4210"
       gradientUnits="userSpaceOnUse"
       x2="22.154"
       y1="19"
       x1="22.154" />
    <linearGradient
       id="linearGradient3818"
       y2="42.165"
       xlink:href="#linearGradient4216"
       gradientUnits="userSpaceOnUse"
       x2="20.57"
       gradientTransform="matrix(.56963 0 0 .54941 6.2827 -3.7997)"
       y1="14.982"
       x1="20.57" />
    <radialGradient
       id="radialGradient3815"
       xlink:href="#linearGradient6823"
       gradientUnits="userSpaceOnUse"
       cy="14.136"
       cx="4"
       gradientTransform="matrix(1.4671 1.8385e-7 -2.1847e-7 1.6804 5.2429 -14.055)"
       r="5" />
    <linearGradient
       id="linearGradient3812"
       y2="31.401"
       gradientUnits="userSpaceOnUse"
       x2="38.489"
       gradientTransform="matrix(.50047 0 0 .56549 -3.2627 -3.7571)"
       y1="19.199"
       x1="38.489">
      <stop
         id="stop9368"
         style="stop-color:#b4c990;stop-opacity:1"
         offset="0" />
      <stop
         id="stop9370"
         style="stop-color:#617f30;stop-opacity:1"
         offset="1" />
    </linearGradient>
    <linearGradient
       id="linearGradient3420">
      <stop
         id="stop3422"
         style="stop-color:#4e6827;stop-opacity:1"
         offset="0" />
      <stop
         id="stop3424"
         style="stop-color:#617f30;stop-opacity:1"
         offset="1" />
    </linearGradient>
    <linearGradient
       id="linearGradient3444"
       y2=".98501"
       xlink:href="#linearGradient3420"
       gradientUnits="userSpaceOnUse"
       x2="19.792"
       y1="8"
       x1="19.792" />
    <linearGradient
       id="linearGradient3839">
      <stop
         id="stop3841"
         style="stop-color:#b4c990;stop-opacity:1"
         offset="0" />
      <stop
         id="stop3843"
         style="stop-color:#b4c990;stop-opacity:1"
         offset=".26238" />
      <stop
         id="stop3845"
         style="stop-color:#87a556;stop-opacity:1"
         offset=".66094" />
      <stop
         id="stop3847"
         style="stop-color:#617f30;stop-opacity:1"
         offset="1" />
    </linearGradient>
    <radialGradient
       id="radialGradient3806"
       xlink:href="#linearGradient3839"
       gradientUnits="userSpaceOnUse"
       cy="4.6072"
       cx="27.849"
       gradientTransform="matrix(1.0466 0 0 .70849 -15.198 -.80092)"
       r="7.489" />
    <radialGradient
       id="radialGradient3803"
       gradientUnits="userSpaceOnUse"
       cy="12.173"
       cx="30.974"
       gradientTransform="matrix(1.0876 0 0 .43596 -17.687 -.80672)"
       r="4.8906">
      <stop
         id="stop3431"
         style="stop-color:#4e6827;stop-opacity:1"
         offset="0" />
      <stop
         id="stop3433"
         style="stop-color:#617f30;stop-opacity:1"
         offset="1" />
    </radialGradient>
    <radialGradient
       id="radialGradient2939"
       gradientUnits="userSpaceOnUse"
       cy="12.173"
       cx="30.974"
       gradientTransform="matrix(1.0876 0 0 .43596 -25.687 3.1933)"
       r="4.8906">
      <stop
         id="stop3552"
         style="stop-color:#6f6f6f"
         offset="0" />
      <stop
         id="stop3554"
         style="stop-color:#969696"
         offset="1" />
    </radialGradient>
    <radialGradient
       id="radialGradient2942"
       xlink:href="#linearGradient3568"
       gradientUnits="userSpaceOnUse"
       cy="4.6072"
       cx="27.849"
       gradientTransform="matrix(.64514 0 0 .43674 -12.019 4.4511)"
       r="7.489" />
    <radialGradient
       id="radialGradient2945"
       xlink:href="#linearGradient4639"
       gradientUnits="userSpaceOnUse"
       cy="22.429"
       cx="18.164"
       gradientTransform="matrix(1.1953 0 0 1.2379 -13.711 -18.31)"
       r="2.8423" />
    <linearGradient
       id="linearGradient4639">
      <stop
         id="stop4641"
         style="stop-color:#555753"
         offset="0" />
      <stop
         id="stop4643"
         style="stop-color:#7c7f79"
         offset="1" />
    </linearGradient>
    <linearGradient
       id="linearGradient2948"
       y2="20.348"
       xlink:href="#linearGradient4639"
       gradientUnits="userSpaceOnUse"
       x2="38.492"
       gradientTransform="matrix(.50047 0 0 .56549 -11.263 .24292)"
       y1="28.944"
       x1="38.492" />
    <linearGradient
       id="linearGradient6823">
      <stop
         id="stop6825"
         style="stop-color:#fff"
         offset="0" />
      <stop
         id="stop6827"
         style="stop-color:#fff;stop-opacity:0"
         offset="1" />
    </linearGradient>
    <radialGradient
       id="radialGradient2951"
       xlink:href="#linearGradient6823"
       gradientUnits="userSpaceOnUse"
       cy="14.136"
       cx="4"
       gradientTransform="matrix(1.4671 1.8385e-7 -2.1847e-7 1.6804 -2.7571 -10.055)"
       r="5" />
    <linearGradient
       id="linearGradient3568">
      <stop
         id="stop3570"
         style="stop-color:#d6d6d6"
         offset="0" />
      <stop
         id="stop3572"
         style="stop-color:#f0f0f0"
         offset="1" />
    </linearGradient>
    <linearGradient
       id="linearGradient2954"
       y2="20.414"
       xlink:href="#linearGradient3568"
       gradientUnits="userSpaceOnUse"
       x2="14.986"
       gradientTransform="matrix(.56963 0 0 .54941 -1.7173 .20033)"
       y1="28.909"
       x1="17.062" />
    <linearGradient
       id="linearGradient5060">
      <stop
         id="stop5062"
         offset="0" />
      <stop
         id="stop5064"
         style="stop-opacity:0"
         offset="1" />
    </linearGradient>
    <linearGradient
       id="linearGradient5048">
      <stop
         id="stop5050"
         style="stop-opacity:0"
         offset="0" />
      <stop
         id="stop5056"
         offset=".5" />
      <stop
         id="stop5052"
         style="stop-opacity:0"
         offset="1" />
    </linearGradient>
  </defs>
  <g
     id="layer1">
    <g
       id="g2992"
       transform="matrix(.84211 0 0 1 7.1579 -11)">
      <rect
         id="rect2994"
         style="opacity:.40206;enable-background:new;fill:url(#linearGradient3012)"
         height="4"
         width="12.536"
         y="27"
         x="4.2321" />
      <path
         id="path2996"
         style="opacity:.40206;enable-background:new;fill:url(#radialGradient3014)"
         d="m16.768 27v4c1.337 0.007 3.232-0.896 3.232-2s-1.492-2-3.232-2z" />
      <path
         id="path2998"
         style="opacity:.40206;enable-background:new;fill:url(#radialGradient3016)"
         d="m4.2321 27v4c-1.3369 0.007-3.2321-0.896-3.2321-2s1.492-2 3.2321-2z" />
    </g>
    <path
       id="path3000"
       style="stroke-width:1.0143;fill-rule:evenodd;stroke:url(#linearGradient3436);enable-background:new;fill:url(#linearGradient3818)"
       d="m14.945 4.5071h2.11c2.441 0 5.438 0.7239 5.438 1.0198v12.432c0 0.296-0.249 0.534-0.558 0.534h-11.87c-0.309 0-0.5579-0.238-0.5579-0.534v-12.432c0-0.296 2.9459-1.0199 5.4379-1.0199z" />
    <path
       id="path3002"
       style="opacity:.26316;stroke-linejoin:round;stroke-width:1.0145;stroke:url(#radialGradient3815);enable-background:new;fill:none"
       d="m15.108 5.5072h1.784c2.066 0 4.601 0.7731 4.601 0.7731v11.213h-10.986v-11.213c0 0.0003 2.492-0.7728 4.601-0.7728z" />
    <path
       id="path3004"
       style="stroke-width:1.0033;fill-rule:evenodd;stroke:#617f30;enable-background:new;fill:url(#linearGradient3812);stroke-opacity:1"
       d="m15.978 5.495s-1.476 2.7896-1.476 3.8504v6.4456l1.563 1.907 1.433-1.907v-6.5456c0-0.9901-1.52-3.7504-1.52-3.7504z" />
    <path
       id="path3006"
       style="fill:#b4c990;fill-opacity:1;fill-rule:evenodd;stroke:#617f30;stroke-width:1.0072;stroke-opacity:1;enable-background:new"
       d="M 17.496,6 C 17.497,6.8264 16.827,7.4964 16,7.4964 15.173,7.4964 14.503,6.8264 14.504,6 14.503,5.1736 15.173,4.5036 16,4.5036 c 0.827,0 1.497,0.67 1.496,1.4964 z"
       inkscape:connector-curvature="0"
       sodipodi:nodetypes="cscsc" />
    <path
       id="path3008"
       style="stroke-width:.98225;fill-rule:evenodd;stroke:url(#linearGradient3444);enable-background:new;fill:url(#radialGradient3806)"
       d="m15.939 5.5184l-3.25 1.9905s-1.198-2.9155-1.198-4.2124c0-1.2962 0.856-1.8054 1.768-1.8054h5.417c0.617 0 1.697 0.2083 1.825 1.7128 0.128 1.5044-1.312 4.305-1.312 4.305l-3.25-1.9905z" />
    <path
       id="path3010"
       style="fill-rule:evenodd;enable-background:new;fill:url(#radialGradient3803)"
       d="m14.288 2.5c-0.255 0-0.926 0.2083-0.763 0.7083 0.164 0.5 0.969 1.2917 1.417 1.2917h2.343c0.352 0 1.076-0.6667 1.198-1.1667 0.123-0.5-0.453-0.8333-0.708-0.8333h-3.487z" />
    <g
       id="g2978">
      <g
         id="g6001"
         transform="matrix(.84211 0 0 1 -.84211 -7)">
        <rect
           id="rect6003"
           style="opacity:.40206;enable-background:new;fill:url(#linearGradient3012)"
           height="4"
           width="12.536"
           y="27"
           x="4.2321" />
        <path
           id="path6005"
           style="opacity:.40206;enable-background:new;fill:url(#radialGradient3014)"
           d="m16.768 27v4c1.337 0.007 3.232-0.896 3.232-2s-1.492-2-3.232-2z" />
        <path
           id="path6007"
           style="opacity:.40206;enable-background:new;fill:url(#radialGradient3016)"
           d="m4.2321 27v4c-1.3369 0.007-3.2321-0.896-3.2321-2s1.492-2 3.2321-2z" />
      </g>
      <path
         id="path15945"
         style="stroke-width:1.0143;fill-rule:evenodd;stroke:#949494;enable-background:new;fill:url(#linearGradient2954)"
         d="m6.9455 8.5071h2.109c2.4415 0 5.4385 0.7239 5.4385 1.0198v12.432c0 0.296-0.249 0.534-0.558 0.534h-11.87c-0.309 0-0.5579-0.238-0.5579-0.534v-12.432c0-0.296 2.946-1.0199 5.4384-1.0199z" />
      <path
         id="path15947"
         style="opacity:.26316;stroke-linejoin:round;stroke-width:1.0145;stroke:url(#radialGradient2951);enable-background:new;fill:none"
         d="m7.1079 9.5072h1.7842c2.0659 0 4.6009 0.7728 4.6009 0.7728v11.213h-10.986l0.0002-11.213s2.4922-0.7728 4.6007-0.7728z" />
      <path
         id="path15949"
         style="stroke-width:1.0033;fill-rule:evenodd;stroke:#414141;enable-background:new;fill:url(#linearGradient2948)"
         d="m7.9783 9.495s-1.4766 2.79-1.4766 3.85v6.446l1.5634 1.907 1.4332-1.907v-6.546c0-0.99-1.52-3.75-1.52-3.75z" />
      <path
         id="path15951"
         style="stroke-width:1.0072;fill-rule:evenodd;stroke:#414141;enable-background:new;fill:url(#radialGradient2945)"
         d="m9.4964 10c0.0002 0.826-0.6698 1.496-1.4964 1.496s-1.4966-0.67-1.4964-1.496c-0.0002-0.8264 0.6698-1.4964 1.4964-1.4964s1.4966 0.67 1.4964 1.4964z" />
      <path
         id="path15953"
         style="stroke-width:.98225;fill-rule:evenodd;stroke:#949494;enable-background:new;fill:url(#radialGradient2942)"
         d="m7.9389 9.5184l-3.2503 1.9906s-1.1975-2.9156-1.1975-4.2125c0-1.2962 0.8554-1.8054 1.7678-1.8054h5.4171c0.617 0 1.697 0.2083 1.825 1.7128 0.128 1.5044-1.312 4.3051-1.312 4.3051l-3.2501-1.9906z" />
      <path
         id="path15955"
         style="fill-rule:evenodd;enable-background:new;fill:url(#radialGradient2939)"
         d="m6.2881 6.5c-0.2551 0-0.9262 0.2083-0.7628 0.7083 0.1635 0.5 0.9691 1.2917 1.4165 1.2917h2.3427c0.3522 0 1.0765-0.6667 1.1985-1.1667 0.123-0.5-0.453-0.8333-0.7081-0.8333h-3.4868z" />
    </g>
  </g>
</svg>
