<?xml version="1.0" encoding="UTF-8" standalone="no"?>
<svg
   xmlns:dc="http://purl.org/dc/elements/1.1/"
   xmlns:cc="http://creativecommons.org/ns#"
   xmlns:rdf="http://www.w3.org/1999/02/22-rdf-syntax-ns#"
   xmlns:svg="http://www.w3.org/2000/svg"
   xmlns="http://www.w3.org/2000/svg"
   xmlns:xlink="http://www.w3.org/1999/xlink"
   version="1.1"
   width="16"
   height="16"
   id="svg4505">
  <defs
     id="defs4507">
    <linearGradient
       id="linearGradient4011">
      <stop
         id="stop4013"
         style="stop-color:#ffffff;stop-opacity:1"
         offset="0" />
      <stop
         id="stop4015"
         style="stop-color:#ffffff;stop-opacity:0.23529412"
         offset="0.507761" />
      <stop
         id="stop4017"
         style="stop-color:#ffffff;stop-opacity:0.15686275"
         offset="0.83456558" />
      <stop
         id="stop4019"
         style="stop-color:#ffffff;stop-opacity:0.39215687"
         offset="1" />
    </linearGradient>
    <linearGradient
       id="linearGradient4632-92-3-0-8-1-6-6">
      <stop
         id="stop4634-68-8-0-2-9-1-1"
         style="stop-color:#fafafa;stop-opacity:1"
         offset="0" />
      <stop
         id="stop4636-8-21-7-1-4-9-4"
         style="stop-color:#e1e1e1;stop-opacity:1"
         offset="1" />
    </linearGradient>
    <linearGradient
       id="linearGradient3104-8-8-97-4-6-2-0-1-4-0-5-8-3-9-1-4">
      <stop
         id="stop3106-5-4-3-5-0-1-61-9-2-7-3-3-2-6-9-2"
         style="stop-color:#000000;stop-opacity:0.32173914"
         offset="0" />
      <stop
         id="stop3108-4-3-7-8-2-4-01-9-9-0-6-4-3-7-7-3"
         style="stop-color:#000000;stop-opacity:0.27826086"
         offset="1" />
    </linearGradient>
    <radialGradient
       r="19.99999"
       fy="8.5012016"
       fx="1.4009665"
       cy="8.5012016"
       cx="1.4009665"
       gradientTransform="matrix(0,1.2179055,-1.2883986,-3.3149514e-8,18.886711,-6.6311237)"
       gradientUnits="userSpaceOnUse"
       id="radialGradient3543"
       xlink:href="#radialGradient2444" />
    <radialGradient
       r="23.097"
       gradientTransform="matrix(1.5647,-9.5143e-8,6.1772e-8,1.0159,-59.14917,8.1461003)"
       cx="63.969002"
       cy="14.113"
       gradientUnits="userSpaceOnUse"
       id="radialGradient2444">
      <stop
         offset="0"
         style="stop-color:#ADC980"
         id="stop3618" />
      <stop
         offset="0.6875183"
         style="stop-color:#87A556"
         id="stop3270" />
      <stop
         offset="1"
         style="stop-color:#688933"
         id="stop3620" />
    </radialGradient>
    <linearGradient
       gradientTransform="matrix(0.53069046,0,0,0.53069075,-30.303176,-6.7887052)"
       gradientUnits="userSpaceOnUse"
       xlink:href="#linearGradient4806-9"
       id="linearGradient3097"
       y2="40.495617"
       x2="71.204407"
       y1="15.369057"
       x1="71.204407" />
    <linearGradient
       id="linearGradient4806-9">
      <stop
         offset="0"
         style="stop-color:#ffffff;stop-opacity:1"
         id="stop4808-49" />
      <stop
         offset="0.42447853"
         style="stop-color:#ffffff;stop-opacity:0.23529412"
         id="stop4810-05" />
      <stop
         offset="0.82089913"
         style="stop-color:#ffffff;stop-opacity:0.15686275"
         id="stop4812-6" />
      <stop
         offset="1"
         style="stop-color:#ffffff;stop-opacity:0.39215687"
         id="stop4814-7" />
    </linearGradient>
    <linearGradient
       x1="71.204407"
       y1="7.8309216"
       x2="71.204407"
       y2="42.883553"
       id="linearGradient3364-8"
       xlink:href="#linearGradient4011"
       gradientUnits="userSpaceOnUse"
       gradientTransform="matrix(0.16216217,0,0,0.16216217,-0.1324634,7.3880156)" />
    <radialGradient
       cx="6.2751122"
       cy="8.4497671"
       r="19.99999"
       fx="6.2751122"
       fy="8.4497671"
       id="radialGradient3370-2"
       xlink:href="#linearGradient4632-92-3-0-8-1-6-6"
       gradientUnits="userSpaceOnUse"
       gradientTransform="matrix(0,0.42663032,-0.45132398,-1.1612221e-8,15.313602,5.3228469)" />
    <linearGradient
       x1="-95.837799"
       y1="54.199703"
       x2="-95.837799"
       y2="5.1757793"
       id="linearGradient3373-2-5"
       xlink:href="#linearGradient3104-8-8-97-4-6-2-0-1-4-0-5-8-3-9-1-4"
       gradientUnits="userSpaceOnUse"
       gradientTransform="matrix(0.43066578,0,0,0.44466344,23.405594,-6.6386368)" />
  </defs>
  <metadata
     id="metadata4510">
    <rdf:RDF>
      <cc:Work
         rdf:about="">
        <dc:format>image/svg+xml</dc:format>
        <dc:type
           rdf:resource="http://purl.org/dc/dcmitype/StillImage" />
        <dc:title />
      </cc:Work>
    </rdf:RDF>
  </metadata>
  <path
     d="m 8.0000014,0.4985358 c -4.1382417,0 -7.5000013,3.3617585 -7.5000013,7.4999999 0,4.1382413 3.3617596,7.5000013 7.5000013,7.5000003 4.1382396,0 7.5000026,-3.361759 7.4999986,-7.5000003 0,-4.1382414 -3.361759,-7.4999999 -7.4999986,-7.4999999 z"
     id="path2555"
     style="color:#000000;display:inline;overflow:visible;visibility:visible;fill:url(#radialGradient3543);fill-opacity:1;fill-rule:nonzero;stroke:none;stroke-width:1;marker:none;enable-background:accumulate" />
  <path
     style="color:#000000;font-style:normal;font-variant:normal;font-weight:normal;font-stretch:normal;font-size:medium;line-height:normal;font-family:Sans;-inkscape-font-specification:Sans;text-indent:0;text-align:start;text-decoration:none;text-decoration-line:none;letter-spacing:normal;word-spacing:normal;text-transform:none;direction:ltr;block-progression:tb;writing-mode:lr-tb;baseline-shift:baseline;text-anchor:start;clip-rule:nonzero;display:inline;overflow:visible;visibility:visible;opacity:0.05;isolation:auto;mix-blend-mode:normal;color-interpolation:sRGB;color-interpolation-filters:linearRGB;solid-color:#000000;solid-opacity:1;fill:#000000;fill-opacity:1;fill-rule:nonzero;stroke:none;stroke-width:1;stroke-linecap:butt;stroke-linejoin:miter;stroke-miterlimit:4;stroke-dasharray:none;stroke-dashoffset:0;stroke-opacity:1;marker:none;color-rendering:auto;image-rendering:auto;shape-rendering:auto;text-rendering:auto;enable-background:accumulate;filter-blend-mode:normal;filter-gaussianBlur-deviation:0"
     id="path4220"
     d="m 9.2851562,2.5917969 a 0.93659134,0.93659134 0 0 0 -0.9648437,0.90625 C 8.2129397,3.4913611 8.1105262,3.4765625 8,3.4765625 c -2.1103397,0 -3.8671431,1.2630243 -4.7949219,3.015625 L 3.1679688,6.4707031 A 0.93659134,0.93659134 0 0 0 1.7558594,7.2753906 l -0.00391,3.4433594 a 0.93659134,0.93659134 0 0 0 1.4121094,0.808594 l 0.039063,-0.02344 C 4.1304773,13.257857 5.8886663,14.521484 8,14.521484 c 0.1102185,0 0.2057918,-0.01644 0.3105469,-0.02344 l 0,0.02344 a 0.93659134,0.93659134 0 0 0 1.4121093,0.808594 l 2.9179688,-1.722656 a 0.93659134,0.93659134 0 0 0 0,-1.613281 l -0.04687,-0.02734 c 0.559572,-0.863596 0.927733,-1.867937 0.927734,-2.9687501 0,-1.0828147 -0.356822,-2.0741279 -0.90039,-2.9296875 l 0.02148,-0.013672 a 0.93659134,0.93659134 0 0 0 0,-1.6132813 L 9.7304688,2.7207031 A 0.93659134,0.93659134 0 0 0 9.2851562,2.5917969 Z M 8,7.5410156 c 0.1333361,0 0.2604664,0.018071 0.3828125,0.050781 a 0.93659134,0.93659134 0 0 0 0.1972656,0.03125 0.93659134,0.93659134 0 0 0 0.3847657,0.2382812 0.93659134,0.93659134 0 0 0 0.1132812,0.15625 c 0.235759,0.2592512 0.3789062,0.5933413 0.3789062,0.9804688 0,0.3959672 -0.1507159,0.7358373 -0.4003906,0.9980469 A 0.93659134,0.93659134 0 0 0 8.9042969,10.212891 0.93659134,0.93659134 0 0 0 8.640625,10.371094 0.93659134,0.93659134 0 0 0 8.3867188,10.400391 C 8.259058,10.433917 8.1307123,10.453125 8,10.453125 c -0.68024,0 -1.2198394,-0.440626 -1.3945312,-1.046875 a 0.93659134,0.93659134 0 0 0 -0.087891,-0.2050781 0.93659134,0.93659134 0 0 0 0,-0.4023438 0.93659134,0.93659134 0 0 0 0.087891,-0.2070312 C 6.7804351,7.9841165 7.3215403,7.5410153 8,7.5410156 Z" />
  <path
     id="path9-3"
     d="M 9.253334,3.526669 9.249734,6.970838 12.166559,5.2487538 9.253306,3.526669 Z M 8,4.4120067 c -1.8886406,0 -3.5134965,1.1510374 -4.2151769,2.7867754 L 4.3250285,7.5174752 C 4.9094792,6.0645007 6.3340468,5.0436754 8,5.0436754 c 0.2142979,0 0.4235879,0.019081 0.6280964,0.052163 l 0,-0.6381 C 8.4224529,4.4291967 8.2136729,4.4120088 8,4.4120088 Z m 0,1.559165 c -1.3155386,0 -2.4404916,0.8494729 -2.8546587,2.0279155 L 5.7048397,8.3313565 C 5.9922609,7.333106 6.9059286,6.6064134 8,6.6064139 c 0.2163257,0 0.4259693,0.028184 0.6252386,0.08146 l 0,-0.648104 C 8.4233193,5.9968796 8.2139514,5.9711717 8,5.9711717 Z m 3.678544,0.2901104 -0.543778,0.3222656 c 0.514048,0.667273 0.820312,1.5048681 0.820312,2.4152059 0,0.9277621 -0.317679,1.7775574 -0.849609,2.4509334 l 0.543778,0.322266 c 0.586861,-0.770827 0.9375,-1.732827 0.9375,-2.7731994 0,-1.0244072 -0.337724,-1.9726505 -0.908203,-2.7374715 z M 10.320884,7.06516 9.770674,7.3874256 c 0.386255,0.4247429 0.621666,0.9887137 0.621666,1.611328 0,0.6408128 -0.250499,1.2168754 -0.657393,1.6441974 l 0.55664,0.328697 c 0.457375,-0.530857 0.735995,-1.2219566 0.735995,-1.9728944 0,-0.7343471 -0.267184,-1.4078971 -0.706698,-1.9335936 z M 2.6908344,7.2766694 2.6872629,10.720838 5.6040879,8.9987536 2.6908355,7.2766694 Z M 5.7048397,9.6661508 5.1453413,9.9948471 C 5.5586326,11.174726 6.6834457,12.026336 8,12.026336 c 0.2139514,0 0.4233193,-0.02571 0.6252386,-0.0686 l 0,-0.650962 C 8.4259157,11.359121 8.2163664,11.388236 8,11.388236 c -1.0940714,0 -2.0077391,-0.724622 -2.2951603,-1.7220852 z M 4.3250285,10.480032 3.7848231,10.798725 C 4.4865035,12.434464 6.1113594,13.585501 8,13.585501 c 0.211115,0 0.4184836,-0.01746 0.6216657,-0.04573 l 0,-0.634527 C 8.4189421,12.937238 8.2122193,12.953837 8,12.953837 c -1.6659532,0 -3.0905208,-1.020825 -3.6749715,-2.473798 z M 9.249761,11.082404 9.246861,14.523 12.163686,12.800916 9.24972,11.082404 Z"
     style="color:#000000;font-style:normal;font-variant:normal;font-weight:normal;font-stretch:normal;font-size:medium;line-height:normal;font-family:Sans;-inkscape-font-specification:Sans;text-indent:0;text-align:start;text-decoration:none;text-decoration-line:none;letter-spacing:normal;word-spacing:normal;text-transform:none;direction:ltr;block-progression:tb;writing-mode:lr-tb;baseline-shift:baseline;text-anchor:start;display:inline;overflow:visible;visibility:visible;fill:#000000;fill-opacity:1;stroke:none;stroke-width:1;marker:none;enable-background:accumulate;clip-rule:nonzero;opacity:0.15;isolation:auto;mix-blend-mode:normal;color-interpolation:sRGB;color-interpolation-filters:linearRGB;solid-color:#000000;solid-opacity:1;fill-rule:nonzero;stroke-linecap:butt;stroke-linejoin:miter;stroke-miterlimit:4;stroke-dasharray:none;stroke-dashoffset:0;stroke-opacity:1;filter-blend-mode:normal;filter-gaussianBlur-deviation:0;color-rendering:auto;image-rendering:auto;shape-rendering:auto;text-rendering:auto" />
  <path
     id="path9"
     d="M 9.253334,2.5264518 9.249734,5.9706208 12.166559,4.2485366 9.253306,2.5264518 Z M 8,3.4117895 c -1.8886406,0 -3.5134965,1.1510374 -4.2151769,2.7867754 L 4.3250285,6.517258 C 4.9094792,5.0642835 6.3340468,4.0434582 8,4.0434582 c 0.2142979,0 0.4235879,0.019081 0.6280964,0.052163 l 0,-0.6381 C 8.4224529,3.4289795 8.2136729,3.4117916 8,3.4117916 Z m 0,1.559165 c -1.3155386,0 -2.4404916,0.8494729 -2.8546587,2.0279155 L 5.7048397,7.3311393 C 5.9922609,6.3328888 6.9059286,5.6061962 8,5.6061967 c 0.2163257,0 0.4259693,0.028184 0.6252386,0.08146 l 0,-0.648104 C 8.4233193,4.9966624 8.2139514,4.9709545 8,4.9709545 Z m 3.678544,0.2901104 -0.543778,0.3222656 c 0.514048,0.667273 0.820312,1.5048681 0.820312,2.4152059 0,0.9277621 -0.317679,1.7775578 -0.849609,2.4509336 l 0.543778,0.322266 c 0.586861,-0.770827 0.9375,-1.7328275 0.9375,-2.7731996 0,-1.0244072 -0.337724,-1.9726505 -0.908203,-2.7374715 z m -1.35766,0.8038779 -0.55021,0.3222656 c 0.386255,0.4247429 0.621666,0.9887137 0.621666,1.611328 0,0.6408128 -0.250499,1.2168757 -0.657393,1.6441978 l 0.55664,0.3286965 c 0.457375,-0.5308572 0.735995,-1.2219565 0.735995,-1.9728943 0,-0.7343471 -0.267184,-1.4078971 -0.706698,-1.9335936 z M 2.6908344,6.2764522 2.6872629,9.7206207 5.6040879,7.9985364 2.6908355,6.2764522 Z M 5.7048397,8.6659336 5.1453413,8.9946299 C 5.5586326,10.174509 6.6834457,11.026119 8,11.026119 c 0.2139514,0 0.4233193,-0.02571 0.6252386,-0.0686 l 0,-0.650962 C 8.4259157,10.358904 8.2163664,10.388019 8,10.388019 c -1.0940714,0 -2.0077391,-0.7246226 -2.2951603,-1.7220854 z M 4.3250285,9.479815 3.7848231,9.7985079 C 4.4865035,11.434247 6.1113594,12.585284 8,12.585284 c 0.211115,0 0.4184836,-0.01746 0.6216657,-0.04573 l 0,-0.634527 C 8.4189421,11.937021 8.2122193,11.95362 8,11.95362 c -1.6659532,0 -3.0905208,-1.020825 -3.6749715,-2.4737986 z m 4.9247325,0.602372 -0.0029,3.440596 2.916825,-1.722084 -2.913966,-1.718512 z"
     style="color:#000000;font-style:normal;font-variant:normal;font-weight:normal;font-stretch:normal;font-size:medium;line-height:normal;font-family:Sans;-inkscape-font-specification:Sans;text-indent:0;text-align:start;text-decoration:none;text-decoration-line:none;letter-spacing:normal;word-spacing:normal;text-transform:none;direction:ltr;block-progression:tb;writing-mode:lr-tb;baseline-shift:baseline;text-anchor:start;display:inline;overflow:visible;visibility:visible;fill:#ffffff;fill-opacity:1;stroke:none;stroke-width:1.17073166;marker:none;enable-background:accumulate" />
  <path
     style="color:#000000;clip-rule:nonzero;display:inline;overflow:visible;visibility:visible;opacity:0.3;isolation:auto;mix-blend-mode:normal;color-interpolation:sRGB;color-interpolation-filters:linearRGB;solid-color:#000000;solid-opacity:1;fill:none;fill-opacity:1;fill-rule:nonzero;stroke:#000000;stroke-width:1;stroke-linecap:round;stroke-linejoin:round;stroke-miterlimit:4;stroke-dasharray:none;stroke-dashoffset:0;stroke-opacity:1;marker:none;color-rendering:auto;image-rendering:auto;shape-rendering:auto;text-rendering:auto;enable-background:accumulate"
     id="path2555-7-1-7"
     d="m 8,0.49999995 c -4.1382415,0 -7.5,3.36175855 -7.5,7.49999935 C 0.5,12.138241 3.8617585,15.500001 8,15.5 c 4.138241,0 7.500005,-3.361759 7.5,-7.5000007 C 15.5,3.8617585 12.138241,0.49999995 8,0.49999995 Z" />
  <path
     style="color:#000000;display:inline;overflow:visible;visibility:visible;opacity:0.5;fill:none;stroke:url(#linearGradient3097);stroke-width:0.99999994;stroke-linecap:round;stroke-linejoin:round;stroke-miterlimit:4;stroke-dasharray:none;stroke-dashoffset:0;stroke-opacity:1;marker:none;enable-background:accumulate"
     id="path3421"
     d="M 14.5,8.0000002 C 14.5,11.589853 11.589844,14.5 7.9999996,14.5 4.4101558,14.5 1.4999999,11.589853 1.4999999,8.0000002 1.4999999,4.41015 4.4101558,1.5 7.9999996,1.5 11.589844,1.5 14.5,4.41015 14.5,8.0000002 Z" />
  <path
     d="M 11.500001,7.5 C 9.2929392,7.5 7.5,9.2929376 7.5,11.5 c 0,2.207062 1.7929392,4.000001 4.000001,4 2.20706,0 4.000001,-1.792938 3.999999,-4 0,-2.2070624 -1.792939,-4 -3.999999,-4 z"
     id="path2555-7-2"
     style="color:#000000;display:inline;overflow:visible;visibility:visible;opacity:0.8;fill:none;stroke:url(#linearGradient3373-2-5);stroke-width:1;stroke-linecap:butt;stroke-linejoin:miter;stroke-miterlimit:4;stroke-dasharray:none;stroke-dashoffset:0;stroke-opacity:1;marker:none;enable-background:accumulate" />
  <path
     d="M 11.500001,8 C 9.5688213,8 8,9.5688206 8,11.5 8,13.431179 9.5688213,15.000001 11.500001,15 13.431179,15 15.000002,13.431179 15,11.5 15,9.5688206 13.431179,8 11.500001,8 Z"
     id="path2555-03-8"
     style="color:#000000;display:inline;overflow:visible;visibility:visible;fill:url(#radialGradient3370-2);fill-opacity:1;fill-rule:nonzero;stroke:none;stroke-width:1;marker:none;enable-background:accumulate" />
  <path
     d="m 14.5,11.499894 c 0,1.656908 -1.343245,3.000107 -2.999962,3.000107 C 9.8431682,14.500001 8.5,13.156787 8.5,11.499894 8.5,9.8430634 9.8431682,8.5000001 11.500038,8.5000001 13.156755,8.5000001 14.5,9.8430634 14.5,11.499894 l 0,0 z"
     id="path8655-6-4-6"
     style="color:#000000;display:inline;overflow:visible;visibility:visible;fill:none;stroke:url(#linearGradient3364-8);stroke-width:0.99999988;stroke-linecap:round;stroke-linejoin:round;stroke-miterlimit:4;stroke-dasharray:none;stroke-dashoffset:0;stroke-opacity:1;marker:none;enable-background:accumulate" />
  <path
     d="m 9,11 0,1 2.5,3 2.5,-3 0,-1 z"
     id="rect3005-5-6-9"
     style="color:#000000;display:inline;overflow:visible;visibility:visible;fill:#ffffff;fill-opacity:1;fill-rule:nonzero;stroke:none;stroke-width:1;marker:none;enable-background:accumulate" />
  <path
     d="m 11,9 0,2 -2,0 2.5,3 2.5,-3 -2,0 0,-2 z"
     id="rect3005-5-7"
     style="color:#000000;display:inline;overflow:visible;visibility:visible;fill:#87a556;fill-opacity:1;fill-rule:nonzero;stroke:none;stroke-width:1;marker:none;enable-background:accumulate" />
  <path
     d="m 11,9 0,1 1,0 0,-1 z M 9,11 10.007031,12 11,12 11,11 Z m 3,0 0,1 1.016406,0 L 14,11 Z"
     id="rect4305-3"
     style="color:#000000;display:inline;overflow:visible;visibility:visible;opacity:0.15;fill:#000000;fill-opacity:1;fill-rule:nonzero;stroke:none;stroke-width:1;marker:none;enable-background:accumulate" />
</svg>
